<svg width="202" height="204" viewBox="0 0 182 204" fill="none" xmlns="http://www.w3.org/2000/svg">
<rect x="0.5" y="0.5" width="181" height="203" rx="19.5" fill="#041306" stroke="#CFF6DA"/>
<path d="M66.6958 62H66.5941C61.6383 62 56.8873 64.7743 53.3963 69.7114C49.9054 74.6465 47.9629 81.3341 48.0005 88.2874C48.0075 89.6277 48.7831 90.7081 49.7383 90.7081H49.7509C50.2118 90.7022 50.6532 90.4404 50.9762 89.9813C51.2993 89.5202 51.4789 88.897 51.4761 88.2503C51.4455 82.5982 53.0232 77.1609 55.8624 73.148C58.7002 69.135 62.5629 66.8765 66.5913 66.8765H66.6944C67.6538 66.8765 68.4322 65.7863 68.4336 64.4383C68.4336 63.0921 67.6566 62 66.6972 62H66.6958ZM88.4057 112.308H113.74C114.605 112.308 115.433 112.789 116.045 113.647C116.656 114.504 117 115.669 117 116.88V152.426C117 154.952 115.541 157 113.74 157H88.4057C87.541 157 86.7125 156.519 86.1012 155.662C85.4899 154.804 85.146 153.64 85.146 152.426V116.88C85.146 115.669 85.4899 114.504 86.1012 113.647C86.7125 112.789 87.541 112.307 88.4057 112.307V112.308Z" fill="#FFFAFA"/>
<path d="M135.149 126.689C150.394 126.689 162.888 109.457 162.998 88.2754L162.999 88.2774C163.055 77.9623 160.18 68.0415 155.01 60.7181C149.843 53.3967 142.81 49.2789 135.474 49.2789H135.374C133.821 49.2769 132.301 48.6511 130.993 47.4799C129.683 46.3067 128.638 44.6353 127.981 42.6578C124.719 32.7861 118.894 25.0428 111.7 21.0192C104.508 16.9936 96.4917 16.9936 89.2996 21.0192C82.1061 25.0428 76.2813 32.7861 73.0194 42.6578C72.3595 44.6373 71.3118 46.3126 69.9989 47.4858C68.6861 48.657 67.1639 49.2808 65.6083 49.2789H65.526C58.1902 49.2789 51.1572 53.3967 45.9895 60.7201C40.8204 68.0415 37.945 77.9603 38.0008 88.2774C38.1124 109.459 50.6061 126.691 65.8497 126.691H76.4739V133.383H59.0273C58.4762 131.229 57.2331 129.569 55.6747 128.908C54.1163 128.247 52.4282 128.661 51.1209 130.024C49.8151 131.39 49.0449 133.542 49.0449 135.831C49.0449 138.119 49.8151 140.273 51.1209 141.636C52.4282 143.002 54.1163 143.416 55.6747 142.754C57.2331 142.091 58.4762 140.432 59.0273 138.28H76.4739V143.369H65.6251C63.2631 143.37 61.3489 146.062 61.3475 149.383V178.336C59.8156 179.11 58.6353 180.858 58.1651 183.05C57.6936 185.241 57.9879 187.615 58.959 189.453C59.9286 191.289 61.4605 192.372 63.0887 192.372C64.7154 192.372 66.2473 191.289 67.2169 189.453C68.188 187.615 68.4824 185.241 68.0108 183.05C67.5406 180.858 66.3603 179.11 64.8298 178.336V149.381V149.383C64.8298 148.765 65.1856 148.265 65.6251 148.263H76.4739V156.495C76.4767 159.64 77.3654 162.655 78.9475 164.878C80.5282 167.1 82.6726 168.352 84.9076 168.356H90.4325C90.4269 168.434 90.4241 168.515 90.4241 168.595L90.4269 178.961H90.4255C88.8936 179.734 87.7133 181.482 87.2417 183.674C86.7702 185.863 87.0632 188.239 88.0328 190.077C89.0038 191.915 90.5343 192.998 92.1625 193C93.7893 193 95.3211 191.917 96.2922 190.081C97.2632 188.245 97.5576 185.869 97.0874 183.678C96.6173 181.486 95.4369 179.738 93.9064 178.963V168.595C93.9064 168.515 93.9037 168.434 93.8981 168.356H107.167C107.162 168.434 107.159 168.515 107.159 168.595V178.963H107.158C105.626 179.738 104.446 181.486 103.975 183.678C103.505 185.867 103.8 188.243 104.771 190.079C105.74 191.917 107.272 193 108.9 192.998C110.527 192.998 112.059 191.915 113.029 190.077C113.998 188.239 114.293 185.865 113.821 183.674C113.349 181.482 112.169 179.736 110.637 178.961L110.64 168.595C110.64 168.515 110.637 168.434 110.632 168.356H115.847H115.845C118.082 168.352 120.226 167.1 121.807 164.878C123.388 162.655 124.278 159.64 124.281 156.495V148.263H133.54H133.539C133.978 148.265 134.334 148.765 134.336 149.383V178.338V178.336C132.804 179.11 131.623 180.858 131.153 183.05C130.682 185.241 130.977 187.615 131.947 189.453C132.917 191.289 134.449 192.372 136.077 192.372C137.703 192.372 139.235 191.289 140.205 189.453C141.176 187.615 141.47 185.241 141 183.05C140.529 180.858 139.348 179.11 137.818 178.336V149.381V149.383C137.815 146.062 135.901 143.37 133.539 143.367H124.279V138.278H140.137V138.28C140.688 140.432 141.931 142.091 143.489 142.753C145.048 143.416 146.736 143.002 148.043 141.636C149.349 140.273 150.12 138.119 150.12 135.831C150.12 133.542 149.349 131.388 148.043 130.024C146.736 128.659 145.048 128.245 143.489 128.908C141.931 129.569 140.688 131.229 140.137 133.383H124.279L124.281 126.691L135.149 126.689ZM120.797 156.495H120.798C120.795 160.338 118.58 163.453 115.845 163.457H84.9076C82.1745 163.453 79.959 160.338 79.9562 156.495V112.992C79.959 109.149 82.1745 106.034 84.9076 106.03H115.845C118.58 106.034 120.795 109.149 120.798 112.992L120.797 156.495ZM124.098 110.544H124.099C123.697 107.884 122.658 105.498 121.157 103.785C119.654 102.073 117.781 101.135 115.845 101.133H110.639L110.637 83.5436L110.639 83.5416C112.171 82.7667 113.351 81.0188 113.821 78.8274C114.293 76.6361 113.997 74.2623 113.027 72.4241C112.056 70.5879 110.524 69.505 108.897 69.505C107.269 69.505 105.737 70.5899 104.768 72.4261C103.798 74.2643 103.504 76.64 103.975 78.8294C104.446 81.0207 105.627 82.7687 107.159 83.5436L107.158 101.133H93.9064L93.9037 83.5436C95.4355 82.7687 96.6159 81.0207 97.0874 78.8314C97.559 76.64 97.2646 74.2643 96.295 72.4281C95.3253 70.5898 93.7934 69.505 92.1653 69.505C90.5385 69.505 89.0066 70.5879 88.0356 72.4241C87.066 74.2623 86.7702 76.6361 87.2417 78.8274C87.7119 81.0188 88.8922 82.7667 90.4241 83.5416V101.131H84.909L84.9076 101.133C82.9739 101.135 81.0988 102.073 79.5976 103.785C78.095 105.5 77.057 107.886 76.6552 110.546C76.6455 110.546 76.6357 110.544 76.6245 110.544H73.0166C72.2368 110.542 71.6033 109.653 71.6033 108.556V96.9466C73.1338 96.1717 74.3141 94.4237 74.7857 92.2343C75.2559 90.043 74.9615 87.6692 73.9905 85.831C73.0208 83.9928 71.4889 82.9099 69.8622 82.9099C68.234 82.9099 66.7035 83.9928 65.7325 85.831C64.7629 87.6692 64.4685 90.043 64.9386 92.2343C65.4088 94.4237 66.5891 96.1717 68.121 96.9466V108.556C68.1238 112.356 70.3142 115.436 73.0166 115.44H76.4739V121.795H65.8497C52.5105 121.795 41.5808 106.744 41.4831 88.2421C41.4343 79.2296 43.9456 70.5643 48.4603 64.1689C52.9751 57.7715 59.118 54.1755 65.526 54.1755H65.6265C67.842 54.1696 70.0115 53.279 71.8796 51.6056C73.7477 49.9302 75.2391 47.5427 76.1781 44.7216C79.0647 35.9838 84.2198 29.1293 90.586 25.5686C96.9521 22.006 104.048 22.006 110.414 25.5686C116.78 29.1293 121.935 35.9838 124.822 44.7216C125.761 47.5446 127.254 49.9321 129.123 51.6075C130.993 53.2809 133.162 54.1716 135.379 54.1755H135.474C141.882 54.1755 148.025 57.7734 152.54 64.1689C157.053 70.5643 159.566 79.2296 159.517 88.2401C159.419 106.742 148.488 121.793 135.15 121.793H124.281V115.44H126.149H126.147C128.85 115.435 131.04 112.356 131.043 108.556V96.9466C132.575 96.1717 133.755 94.4237 134.225 92.2343C134.697 90.043 134.403 87.6692 133.431 85.831C132.462 83.9928 130.93 82.9099 129.302 82.9099C127.675 82.9099 126.143 83.9928 125.173 85.831C124.202 87.6692 123.908 90.043 124.38 92.2343C124.85 94.4237 126.03 96.1717 127.561 96.9466V108.556C127.561 109.653 126.929 110.542 126.147 110.544H124.098Z" fill="#FDFDFF"/>
</svg>
