<?xml version="1.0" standalone="no"?>
<!DOCTYPE svg PUBLIC "-//W3C//DTD SVG 20010904//EN"
 "http://www.w3.org/TR/2001/REC-SVG-20010904/DTD/svg10.dtd">
<svg version="1.0" xmlns="http://www.w3.org/2000/svg"
 width="826.000000pt" height="826.000000pt" viewBox="0 0 826.000000 826.000000"
 preserveAspectRatio="xMidYMid meet">

<g transform="translate(0.000000,826.000000) scale(0.100000,-0.100000)"
fill="#000000" stroke="none">
<path d="M3383 7563 c15 -2 37 -2 50 0 12 2 0 4 -28 4 -27 0 -38 -2 -22 -4z"/>
<path d="M3303 7539 c-37 -23 -77 -83 -70 -102 4 -7 6 -6 6 5 1 22 48 76 86
99 16 11 26 19 20 19 -5 0 -24 -10 -42 -21z"/>
<path d="M3509 7532 c13 -11 33 -30 43 -43 11 -13 16 -17 12 -9 -12 24 -37 51
-59 62 -15 7 -14 5 4 -10z"/>
<path d="M3571 7444 c0 -11 3 -14 6 -6 3 7 2 16 -1 19 -3 4 -6 -2 -5 -13z"/>
<path d="M4358 7402 c-29 -26 -90 -78 -135 -115 -57 -47 -80 -73 -76 -83 8
-21 263 -234 280 -234 9 0 13 15 13 49 0 46 1 49 31 55 17 3 157 6 310 6 l278
0 -37 39 c-20 21 -77 71 -125 111 -49 39 -86 74 -84 77 3 2 53 -34 111 -82 58
-47 103 -80 100 -72 -3 8 -41 45 -85 82 -44 37 -78 70 -75 73 4 3 21 -8 39
-25 17 -16 57 -49 87 -73 45 -34 56 -49 60 -79 4 -24 8 1 13 73 4 60 5 111 2
115 -4 3 -146 7 -316 9 l-309 3 0 59 c0 75 -10 76 -82 12z m62 6 c0 -16 -3
-19 -11 -11 -6 6 -8 16 -5 22 11 17 16 13 16 -11z m10 -80 c0 -16 -11 -7 -30
25 -28 46 -25 57 5 17 14 -19 25 -38 25 -42z m-43 13 c25 -40 194 -231 205
-231 4 0 8 -4 8 -10 0 -14 -128 -11 -133 4 -3 7 -42 58 -87 115 -95 117 -104
148 -12 39 98 -117 131 -152 137 -147 2 3 -29 46 -71 95 -91 108 -118 144
-107 144 5 0 43 -42 85 -92 42 -51 91 -106 109 -123 l33 -30 -29 40 c-16 22
-62 80 -102 128 -40 48 -73 90 -73 92 0 15 21 1 37 -24z m-18 -138 c50 -60 86
-110 80 -112 -6 -2 -16 5 -24 15 -7 11 -45 57 -84 103 -64 76 -80 101 -66 101
2 0 45 -48 94 -107z m162 25 c41 -46 84 -91 97 -101 24 -20 29 -37 10 -37 -12
0 -198 202 -198 215 0 18 27 -5 91 -77z m74 -24 c59 -58 109 -103 113 -99 3 3
-36 48 -88 100 -52 52 -92 97 -89 99 4 4 219 -201 219 -209 0 -1 -20 -3 -43
-3 -43 -1 -46 1 -118 85 -145 169 -144 176 6 27z m98 -1 c59 -59 107 -109 107
-111 0 -2 -6 -2 -14 0 -16 4 -222 218 -209 218 5 0 57 -48 116 -107z m-12 60
c25 -27 73 -74 107 -106 65 -61 69 -67 51 -67 -13 0 -170 151 -200 193 -32 43
-7 31 42 -20z m104 -16 c39 -34 93 -81 119 -105 27 -23 46 -45 43 -48 -3 -4
-46 30 -94 74 -48 43 -104 93 -123 110 -19 17 -30 32 -25 32 6 0 42 -28 80
-63z m-5 48 c6 -8 64 -56 127 -107 93 -75 111 -94 94 -96 -15 -3 -36 11 -69
45 -26 27 -78 76 -117 110 -38 34 -65 62 -59 63 6 0 17 -7 24 -15z m188 -36
c62 -48 83 -69 67 -69 -3 0 -34 23 -68 51 -77 64 -83 69 -74 69 4 0 38 -23 75
-51z m-96 -127 c39 -28 47 -42 24 -42 -15 0 -216 188 -216 203 0 5 35 -24 78
-63 42 -40 94 -84 114 -98z m-542 50 c45 -51 80 -96 78 -100 -4 -10 -178 175
-178 189 0 20 18 4 100 -89z m77 -152 c-2 -10 0 -25 5 -34 14 -25 -1 -19 -31
12 -14 15 -72 66 -129 115 -93 79 -117 107 -94 107 5 0 48 -38 96 -85 89 -86
146 -132 146 -119 0 4 -48 53 -107 109 -68 65 -104 106 -99 113 11 18 219
-196 213 -218z"/>
<path d="M3360 7429 c0 -5 5 -7 10 -4 6 3 10 8 10 11 0 2 -4 4 -10 4 -5 0 -10
-5 -10 -11z"/>
<path d="M3420 7430 c0 -5 5 -10 11 -10 5 0 7 5 4 10 -3 6 -8 10 -11 10 -2 0
-4 -4 -4 -10z"/>
<path d="M3221 7406 c0 -10 -14 -34 -31 -53 -35 -40 -42 -80 -11 -63 31 16 54
12 92 -16 48 -36 95 -54 140 -54 35 0 39 -3 39 -25 0 -50 27 -95 67 -111 30
-13 61 -15 172 -9 75 4 143 11 152 16 10 5 21 26 26 46 8 35 12 38 41 37 47
-3 43 29 -7 61 -22 13 -44 32 -50 42 -6 10 -11 13 -11 6 0 -6 19 -28 43 -48
31 -27 36 -35 19 -30 -29 8 -52 -10 -52 -41 0 -43 -20 -50 -162 -57 -73 -4
-146 -3 -163 1 -39 10 -65 60 -66 132 -1 30 -4 43 -6 28 -3 -21 -10 -28 -27
-28 -46 0 -120 30 -153 62 -31 30 -35 31 -65 20 -17 -6 -33 -10 -35 -8 -3 2
10 20 27 40 19 21 30 43 27 53 -4 17 -5 16 -6 -1z"/>
<path d="M3320 7413 c0 -5 10 -18 23 -29 l22 -19 -20 25 c-11 14 -21 27 -22
29 -2 2 -3 0 -3 -6z"/>
<path d="M3588 7403 c12 -2 30 -2 40 0 9 3 -1 5 -23 4 -22 0 -30 -2 -17 -4z"/>
<path d="M3492 7378 c-11 -13 -22 -34 -25 -48 -2 -14 -2 -19 0 -12 3 6 9 12
14 12 6 0 7 5 4 10 -3 6 2 10 12 11 11 0 13 3 5 6 -6 2 -10 9 -7 13 3 5 11 7
19 4 7 -3 13 2 13 11 0 21 -10 19 -35 -7z"/>
<path d="M3708 7393 c18 -2 45 -2 60 0 15 2 0 4 -33 4 -33 0 -45 -2 -27 -4z"/>
<path d="M3818 7372 c9 -10 19 -17 21 -16 6 5 -20 34 -30 34 -5 0 -1 -8 9 -18z"/>
<path d="M3400 7370 c-35 -7 -35 -7 -5 -9 17 0 37 4 45 9 17 11 11 11 -40 0z"/>
<path d="M2620 7335 c-51 -23 -89 -63 -116 -120 -28 -59 -29 -76 -8 -121 11
-22 31 -40 61 -55 41 -20 50 -21 95 -10 73 16 107 14 167 -14 30 -14 56 -24
58 -21 2 2 -5 21 -16 42 -25 47 -26 58 -5 134 20 71 10 107 -44 148 -43 33
-137 41 -192 17z m143 -19 c18 -7 43 -25 56 -39 21 -23 23 -32 16 -74 -4 -26
-8 -74 -9 -105 -1 -35 -5 -56 -11 -54 -54 24 -86 28 -129 17 -75 -19 -110 -14
-145 18 -48 45 -40 114 22 180 60 63 136 85 200 57z"/>
<path d="M2735 7259 c-4 -6 -4 -13 -1 -16 3 -4 6 -1 6 5 0 7 7 12 16 12 10 0
14 -5 10 -16 -3 -8 -2 -12 4 -9 6 3 10 13 10 21 0 16 -36 19 -45 3z"/>
<path d="M2700 7259 c0 -4 7 -22 15 -40 8 -19 14 -27 14 -19 0 14 -28 72 -29
59z"/>
<path d="M2662 7204 c4 -3 0 -14 -9 -22 -10 -11 -12 -17 -4 -20 6 -2 9 -7 6
-12 -3 -4 2 -11 11 -14 10 -4 13 -2 8 6 -5 8 -2 9 10 5 10 -4 15 -3 11 4 -4 5
-1 17 7 26 9 12 9 15 1 9 -7 -4 -13 -3 -13 2 0 6 -8 13 -17 16 -10 4 -14 4
-11 0z"/>
<path d="M2755 7201 c-3 -5 -1 -12 5 -16 5 -3 10 1 10 9 0 18 -6 21 -15 7z"/>
<path d="M2726 7171 c-4 -5 -2 -12 3 -15 5 -4 12 -2 15 3 4 5 2 12 -3 15 -5 4
-12 2 -15 -3z"/>
<path d="M2566 7151 c-28 -31 -17 -56 23 -56 28 0 35 4 38 24 4 26 -12 51 -32
51 -6 0 -20 -9 -29 -19z m48 -7 c5 -12 2 -15 -10 -10 -8 3 -20 6 -25 6 -6 0
-7 5 -4 10 10 15 32 12 39 -6z m-30 -25 c-2 -4 4 -10 13 -13 11 -3 9 -4 -6 -3
-26 2 -41 24 -17 24 8 0 13 -4 10 -8z"/>
<path d="M3540 7255 c0 -8 4 -15 8 -15 5 0 9 7 9 15 0 8 -4 15 -9 15 -4 0 -8
-7 -8 -15z"/>
<path d="M3620 7259 c0 -5 5 -7 10 -4 6 3 10 8 10 11 0 2 -4 4 -10 4 -5 0 -10
-5 -10 -11z"/>
<path d="M3695 7261 c-3 -5 -2 -12 3 -15 5 -3 9 1 9 9 0 17 -3 19 -12 6z"/>
<path d="M3635 7240 c-16 -7 -17 -9 -3 -9 9 -1 20 4 23 9 7 11 7 11 -20 0z"/>
<path d="M5805 7231 c-71 -42 -115 -120 -115 -200 0 -101 42 -136 160 -136 83
1 202 32 241 64 21 17 11 16 -75 -10 -151 -45 -265 -37 -296 20 -38 73 26 213
114 246 41 16 46 16 80 0 47 -23 77 -66 84 -120 4 -38 1 -45 -23 -61 -27 -18
-28 -18 -46 5 -12 15 -19 39 -19 67 0 44 -11 61 -32 48 -7 -5 -21 -9 -32 -9
-46 -4 -75 -105 -43 -149 17 -24 49 -14 67 19 16 30 26 31 40 5 13 -24 56 -27
87 -5 60 42 20 175 -68 220 -38 20 -88 19 -124 -4z m71 -125 c6 -16 -32 -96
-45 -96 -10 0 -21 25 -21 49 0 42 53 80 66 47z"/>
<path d="M1938 7119 c-2 -8 -1 -54 3 -104 l7 -90 -2 83 c0 45 2 83 5 85 4 1 3
11 -1 21 -5 15 -8 16 -12 5z"/>
<path d="M1667 7008 c3 -15 9 -26 14 -25 5 1 30 -20 55 -48 53 -58 24 -12 -35
55 -36 41 -39 42 -34 18z"/>
<path d="M2237 7001 c-17 -6 -17 -9 -4 -19 12 -10 16 -9 20 8 3 11 4 20 4 19
-1 0 -10 -4 -20 -8z"/>
<path d="M2165 6935 c-27 -25 -45 -45 -40 -45 6 1 32 21 60 45 27 25 45 45 40
45 -6 -1 -32 -21 -60 -45z"/>
<path d="M3228 6943 c7 -3 16 -2 19 1 4 3 -2 6 -13 5 -11 0 -14 -3 -6 -6z"/>
<path d="M3260 6931 c0 -5 7 -11 14 -14 10 -4 13 -1 9 9 -6 15 -23 19 -23 5z"/>
<path d="M5515 6905 c5 -24 31 -85 63 -147 2 -5 -22 -8 -53 -8 -41 0 -56 -3
-53 -12 3 -9 31 -14 82 -16 l77 -2 -20 37 c-10 21 -38 70 -61 108 -29 49 -40
61 -35 40z"/>
<path d="M5257 6884 c-15 -16 -5 -24 29 -24 24 0 34 4 32 13 -5 13 -50 22 -61
11z"/>
<path d="M1830 6866 c-135 -36 -190 -131 -116 -201 51 -48 131 -70 256 -70 95
0 110 3 163 29 101 49 125 122 61 182 -19 19 -41 34 -47 34 -7 0 -3 -7 8 -15
73 -54 83 -92 38 -145 -54 -65 -185 -94 -318 -71 -163 29 -226 104 -155 185
46 52 106 71 225 71 55 0 116 -3 135 -7 33 -7 33 -6 -5 7 -50 17 -185 18 -245
1z"/>
<path d="M4120 6838 c41 -45 50 -53 50 -45 0 2 -21 23 -47 47 l-48 45 45 -47z"/>
<path d="M4027 6826 c-43 -51 -44 -56 -18 -56 11 0 22 -8 24 -17 4 -16 5 -16
6 0 1 11 -7 21 -19 24 -19 5 -18 8 15 44 31 35 41 49 32 49 -1 0 -19 -20 -40
-44z"/>
<path d="M5065 6859 c-4 -6 -5 -13 -1 -16 8 -9 76 7 76 17 0 14 -67 13 -75 -1z"/>
<path d="M2790 6835 c-7 -9 -11 -17 -9 -20 3 -2 10 5 17 15 14 24 10 26 -8 5z"/>
<path d="M5400 6835 c0 -16 30 -35 55 -35 26 0 12 23 -23 37 -27 11 -32 11
-32 -2z"/>
<path d="M3131 6838 c2 -2 19 -16 37 -33 20 -18 31 -23 27 -13 -6 16 -47 48
-61 48 -4 0 -5 -1 -3 -2z"/>
<path d="M4911 6791 c-15 -12 -20 -21 -13 -25 12 -7 66 17 77 34 11 17 -39 11
-64 -9z"/>
<path d="M1778 6793 c-29 -7 -21 -41 12 -58 33 -17 31 -31 -4 -45 -14 -6 -16
-9 -5 -9 8 -1 24 6 35 14 18 15 18 16 -13 43 -39 34 -40 40 -10 44 12 2 18 6
12 9 -5 3 -18 4 -27 2z"/>
<path d="M2000 6754 c0 -29 4 -43 10 -39 6 4 19 1 28 -7 16 -12 16 -11 2 5
-12 17 -12 20 3 28 23 13 22 36 -2 49 -34 18 -41 11 -41 -36z m39 23 c8 -10 7
-17 -1 -25 -19 -19 -28 -14 -28 13 0 27 12 32 29 12z"/>
<path d="M2087 6793 c-10 -9 -8 -58 3 -87 6 -18 17 -26 32 -25 l23 0 -22 9
c-13 5 -23 16 -23 23 0 8 10 19 23 25 21 11 20 11 -5 6 -25 -5 -28 -3 -28 19
0 19 6 27 23 30 20 4 20 4 1 6 -11 0 -24 -2 -27 -6z"/>
<path d="M3019 6771 c-33 -33 -37 -65 -12 -101 23 -33 33 -40 66 -40 39 0 64
15 82 50 19 37 11 74 -22 100 -37 29 -79 26 -114 -9z"/>
<path d="M1843 6745 c0 -27 2 -40 4 -28 2 13 13 24 26 26 l22 4 -22 2 c-14 1
-23 9 -26 24 -2 12 -4 0 -4 -28z"/>
<path d="M1903 6740 c0 -30 2 -43 4 -27 2 15 2 39 0 55 -2 15 -4 2 -4 -28z"/>
<path d="M1936 6768 c-3 -13 -7 -38 -9 -57 l-4 -33 19 23 c18 24 19 24 33 5
19 -25 19 -21 -1 37 -17 51 -31 60 -38 25z m28 -23 c3 -9 0 -15 -9 -15 -8 0
-15 7 -15 15 0 8 4 15 9 15 5 0 11 -7 15 -15z"/>
<path d="M4156 6768 c3 -5 10 -6 15 -3 13 9 11 12 -6 12 -8 0 -12 -4 -9 -9z"/>
<path d="M5865 6751 c-128 -46 -416 -175 -424 -190 -13 -24 116 -321 139 -321
13 0 379 154 443 187 46 23 48 26 42 56 -8 39 -93 257 -107 275 -13 16 -32 14
-93 -7z m54 -19 c-8 -11 -48 -69 -89 -129 l-75 -110 -45 13 c-25 8 -82 23
-128 33 -46 11 -85 21 -87 23 -3 2 73 37 168 77 95 40 192 83 217 96 50 26 60
25 39 -3z m74 -120 c27 -59 51 -113 54 -120 4 -9 -12 -5 -43 11 -27 13 -73 32
-102 43 -29 10 -51 23 -50 29 5 17 82 145 88 145 3 0 27 -48 53 -108z m-45
-111 c62 -22 109 -41 105 -44 -4 -2 -26 -10 -48 -17 -22 -7 -119 -46 -217 -86
-97 -41 -178 -74 -181 -74 -2 0 11 42 30 93 19 50 36 98 39 106 3 10 16 12 53
7 47 -6 50 -5 71 24 12 16 24 30 28 30 4 0 58 -18 120 -39z m-373 12 c44 -9
82 -18 84 -19 6 -5 -83 -203 -91 -204 -5 0 -8 5 -8 11 0 10 -34 98 -74 192
-19 44 -21 43 89 20z"/>
<path d="M2791 6744 c0 -11 3 -14 6 -6 3 7 2 16 -1 19 -3 4 -6 -2 -5 -13z"/>
<path d="M2490 6740 c0 -5 5 -10 11 -10 5 0 7 -4 4 -10 -3 -5 -2 -10 4 -10 20
0 21 19 1 30 -13 7 -20 7 -20 0z"/>
<path d="M4123 6700 c0 -30 2 -43 4 -27 2 15 2 39 0 55 -2 15 -4 2 -4 -28z"/>
<path d="M1450 6731 c0 -17 18 -21 24 -6 3 9 0 15 -9 15 -8 0 -15 -4 -15 -9z"/>
<path d="M4155 6730 c-4 -6 -5 -36 -4 -68 3 -56 2 -57 -25 -60 l-27 -3 48 -52
c26 -29 51 -53 55 -55 8 -4 98 88 98 101 0 4 -9 7 -20 7 -18 0 -20 7 -20 70
l0 70 -49 0 c-28 0 -53 -5 -56 -10z"/>
<path d="M1533 6723 c20 -2 54 -2 75 0 20 2 3 4 -38 4 -41 0 -58 -2 -37 -4z"/>
<path d="M2338 6723 c29 -2 74 -2 100 0 26 2 2 3 -53 3 -55 0 -76 -1 -47 -3z"/>
<path d="M4020 6676 c0 -14 4 -26 8 -26 11 0 12 39 1 45 -5 4 -9 -5 -9 -19z"/>
<path d="M4776 6668 c-24 -34 -1 -51 24 -18 11 14 20 28 20 33 0 16 -30 6 -44
-15z"/>
<path d="M2890 6676 c0 -2 8 -10 18 -17 15 -13 16 -12 3 4 -13 16 -21 21 -21
13z"/>
<path d="M3754 6670 c-27 -11 -66 -59 -58 -72 4 -6 17 3 31 18 21 25 23 26 12
5 -10 -21 -9 -23 5 -18 11 4 15 3 11 -4 -4 -5 -12 -8 -18 -6 -6 2 -20 -6 -29
-17 -14 -17 -17 -17 -12 -3 4 10 1 17 -6 17 -9 0 -11 -10 -6 -30 4 -22 2 -29
-6 -24 -8 5 -9 1 -4 -12 6 -15 5 -17 -5 -6 -7 6 -20 12 -30 12 -18 0 -70 -37
-67 -48 1 -4 -3 -17 -10 -30 -13 -22 -9 -42 8 -42 5 0 12 9 15 21 4 13 12 18
21 15 8 -3 13 -2 10 3 -7 10 39 54 60 57 8 1 25 13 38 26 12 13 34 33 49 45
26 22 29 61 3 46 -8 -5 -8 -3 0 8 6 8 14 21 18 29 4 9 5 6 2 -6 -2 -12 0 -28
5 -35 6 -10 10 -8 17 10 5 14 12 20 15 14 4 -6 -3 -24 -16 -39 l-22 -29 33 23
c39 28 40 24 6 -36 l-27 -47 31 35 c17 19 31 40 32 46 0 6 7 17 15 24 14 11
14 10 5 -16 -6 -16 -20 -38 -30 -49 -10 -11 -27 -39 -39 -62 -32 -64 -56 -73
-26 -10 17 36 9 25 -52 -71 -22 -36 -39 -71 -36 -79 8 -19 23 -16 23 6 0 10 7
24 15 31 12 10 13 7 5 -22 -6 -18 -10 -33 -10 -34 0 -5 37 1 45 6 6 5 29 5 53
0 23 -4 42 -5 42 -3 0 3 -9 16 -20 30 -23 29 -18 66 12 100 11 12 18 25 15 30
-3 4 1 16 8 26 12 16 13 16 18 -3 3 -11 1 -18 -4 -14 -5 3 -9 0 -9 -5 0 -6 9
-11 20 -11 14 0 20 7 21 25 2 33 3 38 13 53 4 7 5 25 1 40 -6 26 -6 26 10 7
15 -18 15 -17 0 13 -23 46 -69 72 -130 71 -27 0 -60 -4 -71 -9z m116 -20 c0
-5 -7 -7 -15 -4 -8 4 -12 10 -9 15 6 11 24 2 24 -11z m50 -14 c0 -8 -4 -17 -8
-20 -4 -2 -8 4 -8 15 0 10 4 19 8 19 4 0 8 -6 8 -14z m-12 -66 c-8 -25 -28
-51 -28 -37 0 15 24 67 30 67 5 0 4 -14 -2 -30z m-258 -54 c0 -2 -8 -10 -17
-17 -16 -13 -17 -12 -4 4 13 16 21 21 21 13z m166 -53 c-27 -52 -55 -93 -56
-80 0 10 71 127 77 127 2 0 -8 -21 -21 -47z m-236 -23 c0 -5 -5 -10 -11 -10
-5 0 -7 5 -4 10 3 6 8 10 11 10 2 0 4 -4 4 -10z m190 -105 c-7 -9 -15 -13 -17
-11 -7 7 7 26 19 26 6 0 6 -6 -2 -15z"/>
<path d="M3290 6666 c0 -2 8 -10 18 -17 15 -13 16 -12 3 4 -13 16 -21 21 -21
13z"/>
<path d="M2970 6627 c14 -16 34 -33 45 -39 21 -11 20 -10 -35 37 l-35 30 25
-28z"/>
<path d="M4043 6633 c9 -2 25 -2 35 0 9 3 1 5 -18 5 -19 0 -27 -2 -17 -5z"/>
<path d="M2850 6626 c0 -2 8 -10 18 -17 15 -13 16 -12 3 4 -13 16 -21 21 -21
13z"/>
<path d="M1713 6530 c-35 -28 -66 -50 -70 -50 -14 0 -9 -23 6 -28 8 -3 11 0 8
5 -4 6 23 34 58 63 57 46 72 60 62 60 -1 0 -30 -23 -64 -50z"/>
<path d="M2831 6564 c0 -11 3 -14 6 -6 3 7 2 16 -1 19 -3 4 -6 -2 -5 -13z"/>
<path d="M2170 6565 c0 -6 22 -33 50 -60 27 -26 47 -52 45 -56 -3 -3 4 -9 15
-12 11 -3 20 -2 20 1 -1 12 -130 137 -130 127z"/>
<path d="M1953 6480 c0 -47 2 -66 4 -42 2 23 2 61 0 85 -2 23 -4 4 -4 -43z"/>
<path d="M3775 6549 c-4 -6 -5 -12 -2 -15 2 -3 7 2 10 11 7 17 1 20 -8 4z"/>
<path d="M4705 6552 c-13 -9 -35 -58 -35 -77 0 -28 20 -15 35 22 17 40 17 67
0 55z"/>
<path d="M6340 6487 c0 -2 15 -16 33 -33 l32 -29 -29 33 c-28 30 -36 37 -36
29z"/>
<path d="M3715 6453 l-17 -28 23 22 c12 12 20 25 17 28 -3 3 -13 -7 -23 -22z"/>
<path d="M6509 6463 c-13 -16 -12 -17 4 -4 9 7 17 15 17 17 0 8 -8 3 -21 -13z"/>
<path d="M3620 6420 c-6 -11 -8 -20 -6 -20 3 0 10 9 16 20 6 11 8 20 6 20 -3
0 -10 -9 -16 -20z"/>
<path d="M3885 6430 c-3 -6 1 -7 9 -4 18 7 21 14 7 14 -6 0 -13 -4 -16 -10z"/>
<path d="M3580 6405 c-13 -14 -18 -25 -11 -25 7 0 9 -5 5 -11 -4 -8 0 -8 15 0
11 7 21 14 21 17 0 3 -4 2 -10 -1 -13 -8 -13 1 0 26 14 26 8 24 -20 -6z"/>
<path d="M3656 6405 c-9 -14 -23 -37 -32 -52 l-16 -28 21 25 c23 26 54 80 47
80 -2 0 -11 -11 -20 -25z"/>
<path d="M6459 6403 c-13 -16 -12 -17 4 -4 16 13 21 21 13 21 -2 0 -10 -8 -17
-17z"/>
<path d="M1946 6375 c4 -8 10 -15 15 -15 5 0 9 7 9 15 0 8 -7 15 -15 15 -9 0
-12 -6 -9 -15z"/>
<path d="M3664 6379 c-4 -8 -14 -24 -22 -36 -13 -21 -13 -23 5 -23 23 0 45 40
33 59 -6 11 -9 10 -16 0z m-2 -41 c-7 -7 -12 -8 -12 -2 0 14 12 26 19 19 2 -3
-1 -11 -7 -17z"/>
<path d="M4646 6358 c-10 -38 -7 -58 9 -58 11 0 15 11 15 40 0 43 -14 54 -24
18z"/>
<path d="M4675 6225 c-99 -58 -184 -111 -189 -119 -7 -9 12 -49 64 -134 40
-67 76 -120 79 -118 46 24 371 219 371 222 0 6 -24 -7 -198 -108 -84 -50 -156
-87 -159 -84 -3 3 4 42 17 86 12 45 19 84 16 87 -5 5 -18 -38 -37 -124 -7 -29
-15 -53 -18 -53 -10 1 -123 201 -117 207 3 3 46 2 96 -3 49 -5 97 -7 107 -3
10 3 -33 9 -96 13 -62 5 -109 11 -105 16 5 4 83 52 174 105 150 88 192 115
179 115 -2 0 -85 -47 -184 -105z"/>
<path d="M4820 6213 c-63 -132 -70 -151 -40 -105 15 21 28 31 39 28 48 -15
163 -37 167 -33 3 3 -30 13 -74 22 -44 10 -85 21 -91 25 -9 5 -3 27 20 78 17
40 35 72 39 72 4 0 33 -45 65 -100 32 -55 61 -98 63 -95 5 4 -116 212 -127
219 -3 2 -31 -48 -61 -111z"/>
<path d="M2428 6284 c-14 -13 -9 -54 7 -60 11 -5 15 -22 15 -63 1 -65 22 -131
46 -146 50 -30 59 -43 46 -64 -7 -12 -8 -21 -2 -21 5 0 15 10 21 22 12 23 7
30 -61 78 -25 18 -45 124 -31 162 l9 23 128 -8 c71 -4 135 -10 142 -13 11 -3
12 -17 7 -57 -11 -81 -31 -114 -82 -137 -36 -16 -44 -24 -41 -42 2 -12 19 -33
38 -45 42 -28 59 -69 59 -146 l1 -59 -122 7 c-167 9 -179 11 -174 38 3 12 8
40 11 62 7 40 23 80 30 73 3 -2 -2 -26 -10 -53 -28 -90 -26 -92 63 -99 42 -4
104 -9 136 -12 l59 -5 -6 66 c-7 78 -12 87 -57 117 -59 40 -51 83 19 116 37
18 52 46 64 124 7 45 10 44 -152 53 l-113 7 4 -73 c3 -61 7 -74 27 -88 67 -47
74 -57 67 -85 -5 -19 -18 -32 -49 -45 -42 -18 -65 -19 -37 -1 9 6 10 10 3 10
-23 0 -51 -52 -63 -117 -8 -46 -17 -71 -31 -81 -12 -8 -19 -23 -17 -35 4 -27
33 -33 236 -42 l152 -8 0 27 c0 15 -7 29 -15 32 -11 5 -15 23 -15 76 0 77 -20
133 -51 143 -22 7 -49 32 -49 46 0 5 20 19 45 31 52 25 71 59 81 142 5 41 12
60 25 67 24 12 25 45 2 57 -10 5 -72 12 -138 16 -66 4 -142 9 -170 12 -27 3
-53 3 -57 -2z m250 -110 c50 -5 52 -7 52 -35 0 -17 -6 -32 -15 -35 -9 -4 -63
-3 -120 1 l-105 7 0 39 0 40 68 -6 c37 -3 91 -8 120 -11z m-138 -99 c0 -8 -2
-15 -4 -15 -2 0 -6 7 -10 15 -3 8 -1 15 4 15 6 0 10 -7 10 -15z m85 -3 c-3 -8
0 -10 6 -6 7 4 10 1 7 -6 -7 -23 -22 -21 -34 4 -10 22 -9 24 8 23 11 -1 16 -7
13 -15z m-28 -114 c-3 -8 -6 -5 -6 6 -1 11 2 17 5 13 3 -3 4 -12 1 -19z m-16
-45 c-21 -40 -101 -96 -101 -71 0 22 14 37 60 62 25 13 46 25 48 25 1 1 -2 -7
-7 -16z m102 -48 c9 -8 17 -24 17 -35 0 -18 -2 -18 -37 6 -40 27 -46 35 -58
73 l-8 25 34 -27 c19 -14 42 -33 52 -42z m-98 -32 c3 -15 13 -32 22 -38 12 -9
10 -11 -11 -11 -21 0 -25 4 -21 21 3 11 2 14 -1 6 -5 -11 -10 -8 -21 10 -8 13
-12 16 -9 7 3 -10 9 -26 12 -35 5 -16 4 -15 -10 1 -14 17 -16 17 -22 3 -3 -9
-11 -14 -16 -11 -6 4 -14 0 -20 -7 -7 -11 -8 -9 -6 6 4 24 29 51 57 60 12 3
21 11 21 16 0 19 18 -1 25 -28z m40 -72 c3 -6 -4 -9 -15 -8 -11 1 -20 5 -20 9
0 11 28 10 35 -1z"/>
<path d="M2515 5819 c-4 -6 -5 -12 -2 -15 2 -3 7 2 10 11 7 17 1 20 -8 4z"/>
<path d="M7020 6250 c0 -4 28 -15 62 -24 221 -62 371 -244 422 -516 27 -142
16 -303 -30 -420 -22 -59 -100 -176 -121 -184 -22 -9 -27 -1 -14 22 14 26 14
82 1 82 -5 0 -10 -15 -10 -32 0 -18 -9 -48 -21 -67 -11 -18 -18 -35 -16 -37 2
-2 19 1 38 6 20 6 58 11 86 12 56 3 62 18 7 18 -19 0 -34 3 -34 6 0 4 14 22
31 42 37 42 71 114 96 204 26 93 23 306 -6 412 -58 218 -199 393 -361 451 -57
20 -130 35 -130 25z"/>
<path d="M5824 6185 c-7 -37 0 -55 15 -39 5 5 11 24 14 42 5 24 3 32 -8 32 -8
0 -17 -14 -21 -35z"/>
<path d="M1578 6204 c-9 -8 6 -52 35 -109 32 -62 33 -58 4 32 -25 76 -30 87
-39 77z"/>
<path d="M1914 6151 c-14 -22 -24 -48 -22 -57 2 -13 12 -4 36 32 34 54 38 64
22 64 -5 0 -21 -18 -36 -39z"/>
<path d="M3271 6176 c-10 -12 -7 -22 12 -53 14 -21 28 -58 32 -83 32 -217 181
-448 347 -535 50 -26 53 -30 55 -69 4 -60 46 -136 108 -195 89 -85 211 -128
176 -63 -11 20 -18 148 -9 157 3 3 17 1 32 -5 24 -9 31 -5 89 53 76 74 107
142 89 191 -7 16 -10 31 -8 33 2 2 51 7 110 10 68 4 106 10 106 17 0 20 -161
155 -217 182 -44 22 -63 26 -113 22 -33 -2 -60 -1 -60 3 0 15 -143 150 -201
190 -120 81 -255 128 -374 129 -33 1 -78 7 -100 15 -50 18 -60 18 -74 1z m275
-62 c77 -16 188 -65 261 -115 25 -17 78 -64 117 -104 l72 -72 64 -5 c83 -5
146 -36 225 -110 60 -57 60 -57 30 -58 -43 0 -136 -27 -152 -42 -11 -11 -9
-20 12 -50 l24 -36 -37 -43 c-38 -44 -94 -98 -118 -112 -7 -4 -27 2 -47 13
l-35 21 -6 -23 c-8 -33 -7 -127 3 -170 5 -21 6 -38 2 -38 -4 0 -43 32 -86 72
-79 74 -125 145 -125 198 0 19 -15 37 -57 70 -179 138 -264 255 -322 442 -11
35 -23 83 -27 108 -3 25 -10 53 -15 62 -8 15 -1 16 69 12 42 -3 109 -12 148
-20z"/>
<path d="M3543 5993 c-7 -2 -13 -11 -13 -20 0 -11 7 -13 29 -8 22 5 35 1 50
-14 26 -26 26 -33 2 -62 -19 -23 -21 -23 -48 -9 -18 10 -29 25 -31 43 -4 35
-22 25 -22 -13 0 -34 40 -70 77 -70 33 0 73 42 73 78 0 55 -65 96 -117 75z"/>
<path d="M6869 6116 c-59 -6 -113 -17 -123 -25 -23 -19 -21 -83 10 -290 27
-180 32 -207 38 -200 2 2 -7 74 -20 159 -36 233 -41 302 -19 320 20 17 224 40
254 28 25 -9 25 -7 61 -260 21 -146 27 -215 20 -232 -9 -26 -59 -46 -112 -46
-15 0 -50 -5 -79 -11 -38 -8 -58 -8 -77 0 -23 11 -24 11 -12 -5 11 -13 24 -15
60 -10 25 4 77 11 117 16 88 11 110 22 117 57 7 32 -48 434 -65 475 -9 22 -40
41 -59 37 -3 -1 -53 -7 -111 -13z"/>
<path d="M6851 6069 c-93 -12 -89 -7 -79 -91 20 -176 40 -303 49 -317 8 -12 9
-9 4 12 -10 50 -34 220 -40 298 l-7 76 38 6 c22 3 71 9 111 13 l72 6 5 -33 c3
-19 15 -90 26 -158 11 -68 20 -141 20 -162 0 -35 -2 -38 -32 -43 -18 -3 -66
-10 -106 -17 -40 -6 -71 -13 -68 -16 3 -3 33 -1 68 5 35 6 84 14 110 17 l47 6
-5 47 c-3 26 -17 114 -30 197 -13 82 -24 153 -24 157 0 10 -72 8 -159 -3z"/>
<path d="M5780 6041 c-19 -46 -6 -61 18 -22 20 33 21 51 3 51 -5 0 -14 -13
-21 -29z"/>
<path d="M2159 6011 c-24 -21 -53 -54 -64 -72 -16 -29 -8 -24 53 31 39 36 72
68 72 73 0 15 -19 6 -61 -32z"/>
<path d="M1340 5988 c0 -13 87 -54 96 -46 7 8 -18 26 -59 43 -28 12 -37 12
-37 3z"/>
<path d="M1680 5971 c-71 -23 -138 -81 -177 -153 -27 -50 -24 -169 5 -229 41
-83 126 -148 194 -149 21 0 34 -10 57 -44 19 -27 28 -51 25 -63 -3 -11 1 -27
10 -36 9 -8 16 -20 16 -26 0 -17 30 -41 52 -41 11 0 26 -7 32 -16 17 -23 82
-21 115 4 33 25 47 87 40 184 -3 37 -3 38 -23 19 -30 -27 -180 -111 -199 -111
-9 0 -18 4 -21 9 -11 17 21 39 111 76 51 21 98 44 104 51 8 10 5 23 -11 53
l-23 39 24 49 c31 62 34 189 5 243 -26 49 -74 98 -121 123 -44 22 -170 33
-215 18z m211 -42 c119 -66 159 -207 96 -340 l-25 -54 19 -31 c26 -42 24 -48
-16 -67 -27 -13 -37 -14 -39 -4 -2 6 -14 41 -27 76 l-22 64 26 47 c15 27 27
59 27 73 0 32 -27 60 -49 51 -9 -3 -31 -7 -50 -8 -19 -1 -36 -7 -39 -14 -2 -7
-13 -12 -23 -12 -11 0 -34 -7 -52 -16 -89 -45 -91 -82 -8 -124 59 -29 94 -67
135 -147 15 -31 15 -33 -3 -43 -30 -15 -34 -13 -66 35 -24 36 -36 45 -60 45
-116 2 -229 151 -211 278 12 86 86 176 172 208 57 21 161 13 215 -17z m-51
-239 c0 -20 26 -35 35 -19 4 5 3 18 0 29 -5 14 -2 20 10 20 29 0 30 -32 2 -82
-34 -61 -34 -79 3 -155 28 -60 28 -63 10 -73 -15 -8 -22 -3 -45 38 -48 81 -75
112 -125 137 -58 29 -67 42 -47 63 14 14 16 13 23 -11 7 -31 34 -36 55 -11 10
12 10 20 1 35 -15 23 -15 29 -2 29 6 0 15 -11 20 -25 11 -28 37 -33 46 -10 4
8 1 22 -6 30 -13 15 -4 39 11 30 5 -4 9 -14 9 -25z m-95 -39 c3 -5 1 -12 -5
-16 -5 -3 -10 1 -10 9 0 18 6 21 15 7z m295 -259 c0 -16 -35 -40 -110 -76
-106 -51 -122 -44 -21 9 46 24 91 51 100 59 17 18 31 21 31 8z m10 -41 c0 -12
-26 -38 -52 -52 -30 -16 -131 -50 -135 -45 -2 2 34 22 81 45 48 23 86 46 86
51 0 6 5 10 10 10 6 0 10 -4 10 -9z"/>
<path d="M6010 5681 c0 -160 3 -291 8 -291 4 0 8 94 10 208 2 114 6 210 10
213 4 3 103 4 220 1 l212 -4 0 -97 c0 -53 -3 -147 -7 -210 l-6 -114 -209 6
c-126 3 -206 2 -203 -4 4 -5 101 -9 221 -9 l214 0 0 284 c0 157 -3 287 -7 289
-5 3 -110 8 -235 12 l-228 8 0 -292z m230 265 c0 -3 -4 -8 -10 -11 -5 -3 -10
-1 -10 4 0 6 5 11 10 11 6 0 10 -2 10 -4z m30 -6 c0 -5 -4 -10 -10 -10 -5 0
-10 5 -10 10 0 6 5 10 10 10 6 0 10 -4 10 -10z m52 -2 c-17 -8 -26 -8 -34 0
-9 9 -4 12 23 11 32 0 33 -1 11 -11z m78 2 c0 -5 -7 -10 -15 -10 -8 0 -15 5
-15 10 0 6 7 10 15 10 8 0 15 -4 15 -10z m-160 -109 c0 -4 -13 -6 -30 -3 -16
2 -28 8 -25 12 5 9 55 1 55 -9z m180 4 c10 -12 10 -15 -4 -15 -9 0 -16 7 -16
15 0 8 2 15 4 15 2 0 9 -7 16 -15z m-293 -1 c-3 -3 -12 -4 -19 -1 -8 3 -5 6 6
6 11 1 17 -2 13 -5z m218 -4 c3 -5 2 -10 -4 -10 -5 0 -13 5 -16 10 -3 6 -2 10
4 10 5 0 13 -4 16 -10z m40 0 c3 -5 -1 -10 -10 -10 -9 0 -13 5 -10 10 3 6 8
10 10 10 2 0 7 -4 10 -10z m82 -6 c-3 -3 -12 -4 -19 -1 -8 3 -5 6 6 6 11 1 17
-2 13 -5z"/>
<path d="M1080 5941 c0 -9 33 -21 58 -21 6 0 12 7 12 15 0 10 -11 15 -35 15
-19 0 -35 -4 -35 -9z"/>
<path d="M928 5933 c-26 -7 -22 -23 6 -23 31 0 56 10 56 21 0 9 -31 10 -62 2z"/>
<path d="M5686 5900 c-45 -54 -29 -70 19 -20 20 21 26 33 18 41 -7 7 -18 1
-37 -21z"/>
<path d="M4830 5894 c0 -8 42 -148 46 -153 1 -1 7 0 12 3 9 6 5 41 -12 95 -8
23 -7 23 42 16 32 -4 52 -3 57 4 4 7 -3 11 -18 11 -14 0 -44 7 -67 15 -46 16
-60 18 -60 9z"/>
<path d="M770 5835 c-24 -25 -29 -35 -18 -35 21 0 80 49 72 61 -9 15 -19 10
-54 -26z"/>
<path d="M4909 5801 c6 -10 21 -26 35 -34 37 -25 45 0 10 29 -36 29 -59 32
-45 5z"/>
<path d="M5555 5777 c-28 -24 -28 -26 -9 -27 24 0 48 23 42 41 -2 7 -15 2 -33
-14z"/>
<path d="M6190 5741 c-31 -30 -37 -59 -20 -90 6 -13 3 -29 -11 -58 -24 -49
-18 -84 18 -113 49 -38 146 -16 159 37 4 14 3 37 -2 51 -8 21 -17 29 -53 49
-2 1 6 14 18 29 24 31 27 57 7 73 -12 10 -13 8 -9 -9 12 -46 -57 -79 -92 -44
-14 14 -14 19 -2 37 8 12 25 24 38 27 30 7 31 34 1 38 -14 2 -33 -7 -52 -27z
m97 -143 c44 -41 18 -108 -42 -108 -31 0 -65 28 -65 53 0 31 26 65 53 70 12 2
24 5 26 6 3 0 15 -9 28 -21z"/>
<path d="M5030 5735 c0 -13 42 -35 65 -35 31 0 13 26 -25 37 -30 8 -40 7 -40
-2z"/>
<path d="M2126 5720 c14 -14 134 -25 134 -13 0 10 -67 23 -118 23 -17 0 -23
-3 -16 -10z"/>
<path d="M5385 5716 c-20 -8 -25 -15 -17 -20 19 -11 72 3 72 20 0 17 -15 17
-55 0z"/>
<path d="M665 5707 c-3 -9 -7 -24 -10 -32 -2 -8 0 -17 5 -20 14 -9 33 46 21
58 -7 7 -12 5 -16 -6z"/>
<path d="M1210 5710 c0 -6 31 -10 73 -10 50 0 67 3 57 10 -20 13 -130 13 -130
0z"/>
<path d="M5190 5701 c0 -11 25 -21 56 -21 15 0 24 6 24 15 0 11 -11 15 -40 15
-22 0 -40 -4 -40 -9z"/>
<path d="M5760 5680 c0 -5 -13 -7 -30 -3 -26 5 -30 3 -30 -16 0 -16 -6 -20
-22 -18 -18 1 -23 -3 -23 -22 0 -14 -6 -26 -13 -29 -14 -4 -16 -38 -2 -47 6
-4 7 1 3 11 -4 10 0 20 11 26 11 6 14 16 10 35 -6 23 -4 24 15 18 18 -5 24 -2
28 14 4 16 10 20 30 15 16 -4 28 -2 34 7 8 12 11 12 19 -1 8 -13 10 -12 10 3
0 10 -8 17 -20 17 -11 0 -20 -4 -20 -10z"/>
<path d="M5815 5659 c-5 -8 -1 -9 14 -4 18 5 21 2 21 -19 0 -19 5 -26 20 -26
23 0 26 -10 8 -29 -11 -10 -9 -15 6 -26 11 -8 15 -19 11 -27 -6 -10 -5 -10 5
-1 11 10 11 16 -3 31 -12 13 -14 21 -6 29 13 13 4 33 -16 33 -7 0 -15 10 -17
22 -3 25 -32 36 -43 17z"/>
<path d="M6914 5625 c-8 -19 4 -35 24 -34 15 1 15 2 -1 6 -24 6 -16 27 10 31
14 2 23 -3 26 -15 4 -14 5 -13 6 5 1 18 -4 22 -29 22 -18 0 -33 -6 -36 -15z"/>
<path d="M4793 5603 c15 -2 39 -2 55 0 15 2 2 4 -28 4 -30 0 -43 -2 -27 -4z"/>
<path d="M5732 5594 c-34 -24 -25 -95 13 -94 5 0 2 5 -7 11 -18 10 -24 45 -10
65 4 6 16 16 27 22 11 6 15 12 10 12 -6 0 -21 -7 -33 -16z"/>
<path d="M4715 5583 c-39 -21 -155 -122 -155 -135 0 -6 9 0 20 13 10 13 19 20
20 15 0 -5 9 3 20 17 11 13 32 28 47 32 20 5 23 9 13 15 -9 6 1 15 36 34 27
14 45 25 39 25 -5 0 -23 -7 -40 -16z"/>
<path d="M4880 5596 c0 -2 7 -7 16 -10 8 -3 12 -2 9 4 -6 10 -25 14 -25 6z"/>
<path d="M5803 5572 c11 -32 10 -35 -18 -58 -21 -17 -24 -23 -10 -18 43 15 57
55 30 90 -13 17 -13 16 -2 -14z"/>
<path d="M3009 5562 c-56 -50 -40 -120 48 -204 68 -66 98 -88 121 -88 24 0
124 106 152 160 44 85 11 160 -69 160 -31 0 -45 -6 -67 -29 l-28 -30 -33 30
c-43 38 -83 38 -124 1z m295 -3 c38 -30 32 -42 -9 -18 -19 12 -35 25 -35 30 0
15 15 10 44 -12z m-183 -8 c13 -11 21 -22 17 -26 -6 -6 -88 31 -88 40 0 13 51
3 71 -14z m177 -30 c37 -19 56 -41 34 -41 -15 0 -112 71 -112 82 0 7 7 5 18
-4 9 -9 36 -25 60 -37z m-253 30 c3 -6 34 -25 68 -44 34 -18 86 -48 115 -67
70 -45 77 -33 7 14 -73 48 -71 67 3 20 74 -47 73 -46 57 -68 -13 -18 -15 -18
-42 2 -15 11 -75 43 -133 72 -121 60 -114 56 -105 69 8 14 22 14 30 2z m210
-46 c32 -19 62 -36 69 -38 8 -3 8 -8 0 -17 -9 -9 -24 -2 -65 29 -30 23 -57 41
-61 41 -5 0 -8 5 -8 10 0 14 1 14 65 -25z m-122 -51 c150 -75 141 -70 133 -82
-7 -12 -268 117 -274 136 -2 6 -1 12 2 12 4 0 66 -30 139 -66z m-50 -21 c73
-35 90 -50 30 -28 -76 27 -113 46 -113 56 0 6 3 9 8 7 4 -2 37 -18 75 -35z
m147 -104 c0 -14 -9 -11 -90 22 -99 41 -103 44 -108 57 -2 6 42 -7 97 -30 56
-22 101 -44 101 -49z m19 25 c2 -2 2 -7 -2 -10 -3 -3 -16 2 -29 11 l-23 17 25
-7 c14 -4 27 -9 29 -11z m-69 -31 c19 -9 30 -17 24 -19 -12 -5 -104 32 -104
41 0 7 31 -1 80 -22z"/>
<path d="M2250 5574 c0 -3 9 -19 21 -35 11 -17 26 -57 32 -89 6 -33 15 -60 19
-60 4 0 8 19 10 43 l3 42 59 -88 c66 -99 109 -200 127 -300 13 -71 29 -90 29
-34 0 90 -79 280 -161 386 -26 35 -34 51 -22 46 10 -4 29 -10 43 -12 26 -5 25
-4 -107 75 -29 17 -53 29 -53 26z"/>
<path d="M4803 5563 c15 -2 37 -2 50 0 12 2 0 4 -28 4 -27 0 -38 -2 -22 -4z"/>
<path d="M4888 5563 c6 -2 18 -2 25 0 6 3 1 5 -13 5 -14 0 -19 -2 -12 -5z"/>
<path d="M4738 5553 c7 -3 16 -2 19 1 4 3 -2 6 -13 5 -11 0 -14 -3 -6 -6z"/>
<path d="M4968 5526 c28 -36 28 -60 0 -87 l-23 -21 22 11 c42 21 40 77 -4 112
-12 10 -11 5 5 -15z"/>
<path d="M640 5500 c0 -22 5 -40 10 -40 6 0 10 18 10 40 0 22 -4 40 -10 40 -5
0 -10 -18 -10 -40z"/>
<path d="M5337 5522 c-13 -14 -17 -38 -17 -96 0 -44 -6 -91 -14 -111 -15 -36
-31 -45 -38 -23 -6 18 -212 18 -230 0 -20 -20 -24 -284 -5 -304 10 -10 46 -17
105 -22 94 -7 134 1 150 29 8 16 11 16 41 1 44 -23 184 -32 249 -16 53 12 64
20 66 49 1 9 8 29 16 44 10 20 11 35 4 55 -8 20 -7 33 5 51 13 21 13 26 -2 54
-13 21 -15 33 -7 41 15 15 12 62 -6 77 -11 9 -44 12 -110 11 l-94 -3 0 51 c0
61 -19 102 -55 118 -34 16 -39 15 -58 -6z m72 -26 c15 -16 24 -42 29 -87 l7
-64 88 4 c96 3 117 -5 117 -45 0 -15 -9 -28 -27 -38 -29 -15 -30 -15 22 -31
22 -7 18 -48 -6 -63 -20 -13 -20 -14 -4 -32 21 -23 16 -60 -10 -74 -11 -6 -22
-12 -24 -14 -3 -1 4 -9 15 -17 19 -15 19 -15 0 -30 -15 -11 -47 -15 -125 -15
-89 0 -114 4 -155 23 l-49 22 2 105 c2 84 6 114 23 149 15 31 23 70 25 125 3
45 6 87 8 94 7 20 40 14 64 -12z m-250 -365 c77 -146 75 -141 63 -141 -4 0
-17 19 -29 43 -11 23 -46 85 -77 137 -31 52 -56 101 -56 109 0 29 26 -10 99
-148z m-44 128 c9 -17 14 -33 11 -36 -4 -4 -36 49 -36 62 0 13 11 2 25 -26z
m25 5 c0 -8 -4 -12 -10 -9 -5 3 -10 13 -10 21 0 8 5 12 10 9 6 -3 10 -13 10
-21z m28 8 c6 -18 -15 -14 -22 4 -4 10 -1 14 6 12 6 -2 14 -10 16 -16z m50
-24 c32 -47 45 -78 34 -78 -4 0 -16 15 -28 33 -11 17 -29 44 -38 60 -30 45 1
31 32 -15z m32 31 c0 -6 -4 -7 -10 -4 -5 3 -10 2 -10 -4 0 -5 5 -13 10 -16 6
-3 10 -12 10 -18 -1 -12 -40 30 -40 42 0 4 9 7 20 8 11 1 20 -3 20 -8z m-126
-142 c42 -73 76 -136 76 -140 0 -4 -5 -7 -11 -7 -5 0 -24 30 -40 67 -38 83
-90 175 -96 170 -2 -3 10 -28 27 -57 44 -74 90 -180 79 -180 -5 0 -29 41 -55
91 -25 50 -47 89 -49 87 -3 -2 13 -38 35 -79 22 -41 39 -81 39 -89 0 -8 -16
16 -35 54 -19 37 -37 66 -40 64 -2 -3 9 -29 26 -59 31 -57 35 -69 22 -69 -14
0 -72 128 -60 132 8 3 8 10 -1 26 -6 12 -8 22 -3 22 5 0 8 23 6 50 -1 28 -1
50 1 50 2 0 37 -60 79 -133z m109 39 c28 -46 32 -56 20 -56 -8 0 -63 82 -63
94 0 17 18 1 43 -38z m-33 -65 c18 -39 35 -69 37 -67 3 2 -12 36 -32 76 -20
40 -34 75 -31 78 7 7 7 7 41 -48 33 -53 48 -107 31 -113 -8 -3 -8 -8 2 -18 14
-15 16 -29 4 -29 -5 0 -35 51 -67 113 -34 66 -50 105 -39 95 11 -10 35 -49 54
-87z m-135 -81 c19 -37 19 -39 -2 -36 -12 2 -18 13 -19 34 -2 40 1 40 21 2z"/>
<path d="M4848 5523 c7 -3 16 -2 19 1 4 3 -2 6 -13 5 -11 0 -14 -3 -6 -6z"/>
<path d="M5643 5519 c-16 -16 -5 -39 19 -39 14 0 18 -5 13 -19 -7 -23 19 -36
43 -21 14 9 13 10 -8 8 -19 -2 -24 1 -22 15 2 11 -7 21 -24 27 -22 9 -24 13
-14 25 15 18 9 20 -7 4z"/>
<path d="M4808 5513 c7 -3 16 -2 19 1 4 3 -2 6 -13 5 -11 0 -14 -3 -6 -6z"/>
<path d="M4758 5503 c7 -3 16 -2 19 1 4 3 -2 6 -13 5 -11 0 -14 -3 -6 -6z"/>
<path d="M1410 5456 c-16 -25 -26 -47 -21 -50 9 -6 36 27 60 72 21 40 -7 24
-39 -22z"/>
<path d="M4708 5493 c6 -2 18 -2 25 0 6 3 1 5 -13 5 -14 0 -19 -2 -12 -5z"/>
<path d="M5872 5490 c2 -9 -6 -16 -19 -18 -15 -2 -23 -10 -23 -23 0 -18 -4
-20 -30 -14 -20 4 -30 3 -30 -5 0 -8 -8 -10 -21 -7 -17 5 -19 3 -10 -6 9 -9
16 -9 30 0 10 7 28 9 40 6 17 -4 24 0 28 16 3 13 11 20 19 17 20 -8 40 22 25
37 -10 9 -12 9 -9 -3z"/>
<path d="M4260 5477 c0 -7 -13 -20 -29 -30 -43 -25 -99 -92 -110 -131 -19 -71
21 -140 113 -194 39 -23 40 -22 26 26 -8 30 -7 33 8 26 49 -21 180 -54 204
-52 l27 3 -20 55 c-11 30 -35 80 -54 112 -19 31 -35 59 -35 63 0 4 19 -8 41
-26 40 -31 41 -32 34 -8 -21 66 -76 131 -132 155 -41 18 -73 18 -73 1z m90
-50 l35 -22 -37 -3 c-21 -2 -38 -5 -38 -8 0 -2 18 -28 41 -56 36 -46 99 -156
99 -174 0 -3 -17 -3 -37 1 -67 12 -142 46 -193 86 -28 22 -50 37 -50 34 0 -3
9 -23 20 -45 29 -56 24 -70 -10 -32 -53 57 -36 125 54 220 35 37 55 37 116 -1z"/>
<path d="M4818 5483 c6 -2 18 -2 25 0 6 3 1 5 -13 5 -14 0 -19 -2 -12 -5z"/>
<path d="M4753 5473 c9 -2 23 -2 30 0 6 3 -1 5 -18 5 -16 0 -22 -2 -12 -5z"/>
<path d="M4591 5443 c-1 -14 11 -31 32 -47 30 -23 43 -26 108 -25 68 1 154 14
119 18 -8 1 1 10 21 21 19 10 42 27 50 37 13 17 13 17 -6 2 -103 -85 -294 -90
-316 -9 -6 23 -7 23 -8 3z"/>
<path d="M4910 5410 c-8 -5 -10 -10 -5 -10 6 0 17 5 25 10 8 5 11 10 5 10 -5
0 -17 -5 -25 -10z"/>
<path d="M4583 5388 c11 -10 27 -18 36 -17 10 0 7 4 -8 10 -14 5 -30 13 -36
17 -6 4 -2 -1 8 -10z"/>
<path d="M675 5340 c-7 -11 8 -41 29 -60 21 -17 21 1 1 40 -17 33 -21 35 -30
20z"/>
<path d="M3363 5224 c-17 -27 -54 -96 -84 -153 -57 -110 -116 -187 -157 -202
-15 -6 -38 -5 -64 2 -65 17 -123 86 -208 248 l-75 143 -7 -38 c-42 -216 -75
-294 -140 -334 -64 -39 -121 -18 -240 87 -41 38 -90 77 -108 87 l-33 19 6 -64
c3 -35 15 -115 26 -178 25 -136 26 -197 5 -250 -28 -70 -67 -73 -289 -20 -125
30 -155 34 -155 21 0 -15 245 -267 262 -270 39 -7 15 34 -69 119 -47 49 -85
91 -82 93 2 2 36 -4 76 -14 105 -27 184 -34 226 -21 84 28 105 140 67 356 -12
69 -20 129 -17 132 4 3 34 -20 69 -52 162 -148 289 -138 369 29 16 33 34 85
40 115 10 50 12 54 25 36 8 -10 14 -23 14 -28 0 -16 81 -147 113 -184 36 -41
118 -83 162 -83 41 0 103 41 139 92 16 22 55 89 87 147 32 58 59 104 59 101 0
-3 11 -62 24 -133 42 -223 103 -313 212 -311 65 0 122 36 246 153 l86 81 11
-61 c12 -70 37 -119 66 -129 34 -12 77 7 175 80 52 39 96 67 98 62 1 -5 -11
-64 -28 -133 -16 -68 -30 -150 -30 -182 l0 -59 55 7 c31 3 94 19 140 35 l85
29 0 -40 c0 -51 13 -75 50 -94 32 -16 119 -19 188 -6 23 5 42 5 42 1 0 -5 -11
-32 -25 -62 -29 -62 -34 -152 -10 -197 18 -36 71 -61 130 -61 55 0 52 15 -6
24 -26 4 -52 17 -71 37 -28 28 -30 34 -26 87 5 65 31 127 82 193 l35 45 -107
-17 c-128 -22 -179 -23 -212 -6 -31 16 -36 45 -16 104 9 26 14 48 12 50 -2 2
-60 -15 -130 -37 -70 -22 -138 -40 -151 -40 -33 0 -33 28 0 155 27 101 50 243
41 252 -4 4 -57 -31 -214 -142 -35 -25 -72 -45 -83 -45 -29 0 -48 54 -57 157
l-7 87 -115 -109 c-131 -123 -177 -159 -226 -175 -47 -16 -88 1 -125 53 -36
50 -53 105 -84 279 -35 193 -35 191 -72 132z"/>
<path d="M854 5191 c4 -35 12 -74 17 -88 l10 -26 -66 7 c-43 4 -65 3 -65 -4 0
-14 13 -17 96 -23 l72 -6 -18 47 c-10 26 -21 68 -25 95 -11 74 -29 72 -21 -2z"/>
<path d="M760 5192 c0 -10 43 -52 53 -52 14 0 7 27 -11 43 -20 18 -42 22 -42
9z"/>
<path d="M6933 5193 c-12 -2 -27 -11 -34 -19 -10 -12 -9 -13 3 -9 23 9 28 -17
7 -39 -18 -19 -19 -19 -27 5 l-9 23 -12 -21 c-17 -33 -13 -79 10 -126 32 -62
101 -169 106 -164 2 3 -16 36 -40 73 -24 38 -48 80 -52 93 -7 24 -7 24 12 5
11 -10 39 -47 62 -81 23 -35 51 -72 63 -82 l21 -20 -38 2 c-36 2 -42 7 -86 74
-26 40 -53 86 -61 103 -7 16 -18 30 -24 30 -22 0 -22 -25 -1 -50 14 -17 18
-19 14 -7 -4 10 -3 16 2 12 6 -3 9 -13 8 -23 0 -10 21 -47 49 -84 49 -66 49
-66 97 -66 44 0 47 2 42 21 -6 21 -5 21 8 4 11 -13 16 -14 20 -4 3 7 -20 53
-51 101 -45 71 -53 89 -41 97 9 6 -1 9 -33 9 -46 0 -48 1 -48 29 0 31 38 71
68 71 13 0 12 3 -3 20 -10 11 -14 20 -9 20 13 -1 74 -93 74 -112 0 -9 -8 -19
-17 -21 -15 -4 -15 -5 2 -6 13 -1 32 -21 55 -58 43 -71 46 -78 29 -68 -7 5 -3
-6 10 -23 12 -18 24 -32 26 -32 3 0 4 16 3 35 -1 27 -3 31 -12 20 -9 -13 -11
-11 -12 9 -1 19 2 23 15 19 13 -5 12 -2 -4 17 -11 13 -14 20 -7 16 17 -10 15
2 -7 33 -15 21 -17 28 -6 28 8 0 12 -3 10 -7 -2 -3 1 -12 6 -20 7 -11 8 -9 6
8 -4 25 -25 44 -39 36 -4 -3 -8 7 -8 21 0 34 -25 82 -50 95 -27 14 -25 9 10
-35 17 -21 30 -43 30 -48 0 -6 -11 5 -25 24 -14 19 -28 33 -30 32 -3 -2 -4 0
-2 3 1 3 -6 10 -16 15 -9 6 -15 14 -12 20 6 9 -11 10 -52 2z m15 -31 c6 -18
-15 -14 -22 4 -4 10 -1 14 6 12 6 -2 14 -10 16 -16z m-64 -58 c9 -24 2 -26
-12 -4 -7 11 -8 20 -3 20 5 0 12 -7 15 -16z m109 -147 c22 -42 44 -74 48 -71
5 2 13 -6 19 -18 10 -21 10 -22 -3 -5 -9 11 -16 14 -19 7 -4 -14 -93 120 -92
137 1 7 -3 11 -8 10 -6 -1 -12 3 -15 10 -2 6 3 10 13 9 10 -2 34 -35 57 -79z
m-153 53 c0 -5 -2 -10 -4 -10 -3 0 -8 5 -11 10 -3 6 -1 10 4 10 6 0 11 -4 11
-10z"/>
<path d="M4738 5142 c-71 -20 -77 -37 -10 -28 l48 6 -2 -62 c-3 -61 -3 -61 6
-19 5 24 18 58 29 76 29 50 22 52 -71 27z"/>
<path d="M6293 5095 c-140 -38 -254 -129 -316 -254 -34 -68 -65 -200 -52 -221
3 -5 32 -10 64 -10 l57 0 11 63 c14 84 45 145 101 202 89 89 197 123 324 101
18 -3 26 -3 18 1 -28 11 -160 107 -160 115 0 16 -3 18 129 -71 35 -24 60 -38
56 -31 -4 6 -39 33 -78 58 -39 25 -66 47 -60 49 7 3 38 -13 70 -35 73 -49 83
-54 83 -48 0 3 -26 22 -57 43 -43 27 -53 38 -40 41 10 2 26 -3 35 -11 9 -8 28
-20 42 -26 l25 -12 -25 20 c-21 17 -22 21 -7 21 10 0 28 -5 40 -11 17 -9 19
-9 11 1 -29 31 -181 39 -271 15z m30 -16 c48 -25 128 -84 118 -87 -6 -2 -36
12 -65 32 -30 20 -62 39 -70 42 -9 3 -16 10 -16 15 0 12 7 11 33 -2z m14 -41
c29 -18 53 -36 53 -40 0 -13 -32 -9 -49 6 -9 7 -36 25 -61 39 -38 23 -41 27
-20 27 13 0 48 -14 77 -32z m-56 -9 c32 -17 56 -36 53 -41 -3 -5 -12 -7 -19
-4 -7 2 -17 0 -23 -6 -8 -8 -27 -3 -66 18 -31 16 -56 32 -56 37 0 12 16 8 64
-19 26 -15 49 -24 52 -21 3 3 -15 15 -41 26 -26 11 -44 25 -40 31 9 14 10 14
76 -21z m-73 -36 c50 -24 53 -28 36 -40 -10 -7 -22 -13 -27 -13 -6 0 -15 -7
-22 -16 -10 -15 -16 -14 -63 10 -29 15 -52 31 -52 37 0 12 29 5 73 -18 16 -8
31 -12 34 -9 3 3 -13 13 -36 22 -22 9 -41 20 -41 25 0 15 18 10 71 -17 28 -14
49 -21 45 -16 -3 5 -23 17 -46 27 -22 10 -40 22 -40 27 0 12 9 10 68 -19z
m-84 -65 l45 -22 -35 -40 c-19 -23 -40 -47 -46 -55 -14 -17 -48 -137 -48 -168
0 -21 -5 -23 -50 -23 -27 0 -50 5 -50 10 0 6 6 10 13 11 6 0 3 4 -8 9 -17 8
-16 9 10 11 24 1 26 3 8 6 -43 8 -25 26 20 20 28 -4 36 -3 22 3 -11 5 -30 9
-42 9 -13 1 -23 6 -23 11 0 6 17 8 43 5 44 -5 42 -1 -5 9 -16 4 -28 10 -28 15
0 6 15 5 36 -1 50 -13 53 -4 3 11 -27 8 -38 16 -32 22 6 6 20 6 37 -1 15 -5
35 -10 44 -9 9 0 -1 6 -22 12 -22 7 -41 18 -44 26 -3 10 0 12 14 7 11 -4 33
-9 49 -12 27 -3 26 -3 -5 7 -19 6 -39 15 -44 20 -13 12 16 12 50 -1 15 -6 29
-8 31 -6 3 3 -13 10 -36 17 -23 7 -41 16 -41 21 0 9 44 1 72 -13 28 -15 35 -9
8 6 -14 8 -33 14 -42 15 -10 0 -18 5 -18 11 0 7 9 9 23 5 53 -15 69 -15 30 0
-24 9 -43 20 -43 26 0 10 22 5 78 -18 18 -7 30 -9 27 -4 -3 5 -24 15 -45 21
-22 7 -40 16 -40 21 0 11 5 10 47 -7 20 -8 38 -13 40 -11 3 2 -12 10 -31 17
-20 7 -36 17 -36 21 0 13 17 9 64 -14z"/>
<path d="M5998 4653 c6 -2 18 -2 25 0 6 3 1 5 -13 5 -14 0 -19 -2 -12 -5z"/>
<path d="M5983 4633 c9 -2 23 -2 30 0 6 3 -1 5 -18 5 -16 0 -22 -2 -12 -5z"/>
<path d="M4684 5035 c-86 -87 -185 -289 -148 -302 5 -2 18 24 28 57 19 62 71
151 135 230 58 71 64 80 56 80 -4 0 -36 -29 -71 -65z"/>
<path d="M1183 5053 c-7 -2 -13 -15 -13 -29 0 -21 -4 -23 -37 -21 -35 2 -40
-1 -56 -34 -29 -59 -48 -243 -23 -218 3 2 11 55 19 117 9 63 17 115 19 117 1
1 89 -7 193 -19 l190 -21 -7 -40 c-4 -22 -7 -78 -7 -124 l-1 -83 -117 6 c-65
4 -153 12 -197 17 -73 10 -98 7 -83 -7 12 -13 294 -37 349 -30 l57 7 5 67 c4
37 10 92 15 122 10 64 6 71 -52 85 -40 10 -42 13 -39 43 3 29 1 32 -22 32 -22
0 -26 -4 -26 -30 0 -29 0 -30 -47 -24 -85 10 -89 11 -88 40 0 28 -10 36 -32
27z m194 -65 c-3 -8 -6 -5 -6 6 -1 11 2 17 5 13 3 -3 4 -12 1 -19z"/>
<path d="M6551 5025 c0 -23 -6 -46 -13 -53 -9 -9 -9 -12 0 -12 15 0 25 39 19
76 -3 23 -4 21 -6 -11z"/>
<path d="M1695 5015 c-5 -1 -36 -8 -67 -15 -32 -7 -58 -16 -58 -19 1 -8 146
-92 170 -98 41 -11 18 17 -40 48 -33 17 -60 36 -60 40 0 5 12 11 28 15 15 3
47 12 72 19 l45 13 -40 0 c-22 0 -44 -1 -50 -3z"/>
<path d="M6820 4962 c0 -13 8 -32 18 -42 19 -20 66 -100 59 -100 -2 0 -18 23
-36 51 -18 27 -34 49 -36 47 -1 -2 1 -25 4 -53 l6 -50 48 -3 c26 -2 47 1 47 6
0 6 -19 36 -43 68 -24 33 -48 68 -55 79 -11 19 -11 19 -12 -3z"/>
<path d="M1758 4949 c121 -28 195 -55 306 -110 54 -28 101 -48 103 -45 12 12
-18 32 -121 81 -131 63 -241 95 -317 94 l-54 -1 83 -19z"/>
<path d="M1135 4926 c-18 -27 -11 -52 17 -67 34 -18 91 35 59 55 -5 3 -8 -2
-7 -12 1 -12 -8 -18 -26 -20 -23 -3 -28 1 -28 18 0 13 8 24 20 27 26 7 26 23
0 23 -11 0 -26 -11 -35 -24z"/>
<path d="M1332 4918 c-16 -16 -15 -53 2 -67 33 -28 108 11 79 40 -8 8 -11 6
-10 -7 2 -15 -5 -19 -28 -19 -36 0 -41 25 -7 40 12 5 22 13 22 17 0 13 -45 9
-58 -4z"/>
<path d="M5410 4911 c0 -6 4 -13 10 -16 6 -3 7 1 4 9 -7 18 -14 21 -14 7z"/>
<path d="M6339 4906 c-106 -38 -172 -114 -205 -239 -12 -47 -12 -47 14 -54 14
-3 41 -6 61 -7 32 -1 35 2 42 32 22 106 158 186 241 141 25 -13 25 -13 31 41
3 25 4 37 1 28 -3 -10 -8 -18 -11 -18 -15 0 -125 74 -115 78 6 2 24 -5 39 -16
43 -29 77 -46 69 -33 -4 6 -22 19 -39 28 -18 9 -26 18 -19 21 7 2 28 -5 47
-17 19 -11 35 -16 35 -10 0 16 -66 39 -112 39 -24 -1 -59 -7 -79 -14z m103
-47 c71 -43 90 -72 41 -62 -16 3 -41 6 -58 7 -45 2 -168 76 -127 76 5 0 34
-16 66 -35 32 -19 53 -28 46 -20 -7 8 -30 25 -52 37 -41 24 -41 25 11 37 3 1
35 -18 73 -40z m-63 -56 c2 -2 2 -5 -1 -8 -7 -7 -108 55 -108 66 0 7 83 -37
109 -58z m-78 20 c27 -14 49 -30 49 -35 0 -4 -2 -8 -4 -8 -7 0 -106 62 -106
66 0 8 15 3 61 -23z m-4 -25 l34 -21 -26 -27 -27 -28 -48 22 c-27 11 -45 25
-40 29 4 5 27 -1 50 -13 23 -12 39 -16 35 -10 -4 7 -24 19 -44 27 -20 9 -31
18 -24 20 6 2 31 -5 55 -17 42 -21 42 -21 18 -1 -14 11 -33 23 -42 27 -10 3
-18 10 -18 15 0 13 32 3 77 -23z m-64 -64 c18 -9 33 -18 35 -19 2 -2 -4 -17
-12 -34 -9 -16 -16 -39 -16 -51 0 -22 -6 -23 -62 -14 -32 6 -37 10 -36 31 2
23 6 24 38 19 24 -4 30 -3 20 4 -8 5 -23 10 -32 10 -10 0 -18 5 -18 11 0 7 9
9 23 5 55 -15 69 -15 32 0 -47 20 -50 22 -43 29 3 3 24 -1 47 -10 23 -8 39
-10 36 -5 -3 4 -19 11 -35 15 -16 4 -32 11 -35 16 -10 14 23 11 58 -7z"/>
<path d="M6361 4887 c27 -23 130 -87 124 -78 -8 14 -109 81 -121 81 -4 0 -5
-2 -3 -3z"/>
<path d="M6180 4640 c34 -11 60 -11 35 0 -11 5 -29 8 -40 8 -16 0 -15 -2 5 -8z"/>
<path d="M5321 4893 c7 -12 15 -20 18 -17 3 2 -3 12 -13 22 -17 16 -18 16 -5
-5z"/>
<path d="M7113 4844 c0 -16 13 -19 21 -5 3 5 0 11 -7 14 -8 3 -14 -1 -14 -9z"/>
<path d="M7457 4812 c-3 -4 9 -7 26 -7 23 0 35 -7 46 -27 14 -25 14 -31 1 -55
-30 -53 -103 -36 -113 26 l-4 26 -2 -27 c-3 -63 79 -92 118 -42 12 15 21 34
21 44 0 43 -75 93 -93 62z"/>
<path d="M1141 4796 c-19 -22 6 -33 104 -45 132 -16 167 -15 163 6 -3 19 -71
36 -189 47 -50 5 -69 3 -78 -8z m249 -36 c0 -12 -17 -12 -45 0 -17 7 -15 9 13
9 17 1 32 -3 32 -9z"/>
<path d="M5420 4796 c0 -2 8 -10 18 -17 15 -13 16 -12 3 4 -13 16 -21 21 -21
13z"/>
<path d="M5472 4734 c10 -10 20 -16 22 -13 3 3 -5 11 -17 18 -21 13 -21 12 -5
-5z"/>
<path d="M5593 4733 c9 -2 23 -2 30 0 6 3 -1 5 -18 5 -16 0 -22 -2 -12 -5z"/>
<path d="M899 4703 c-1 -40 -16 -200 -30 -323 -8 -67 -17 -108 -25 -113 -21
-12 -44 -63 -44 -96 0 -31 42 -75 64 -68 18 6 19 39 2 49 -26 14 -20 57 10 70
48 22 86 -33 46 -67 -21 -19 -19 -65 3 -65 7 0 25 14 39 31 33 39 33 82 1 129
l-25 36 14 85 15 84 -2 -68 c-1 -37 1 -67 6 -67 4 0 7 3 7 6 0 7 28 246 36
302 5 41 6 42 42 42 20 0 87 -7 147 -15 61 -8 147 -15 193 -15 l82 0 0 -27 c0
-16 -7 -84 -15 -153 -8 -69 -15 -145 -15 -169 l0 -44 -37 7 c-48 8 -414 56
-430 56 -7 0 -13 -4 -13 -9 0 -6 20 -13 45 -17 33 -4 43 -10 36 -18 -5 -6 -12
-52 -14 -101 -9 -145 -15 -175 -41 -175 -32 0 -66 -28 -66 -54 0 -24 12 -38
42 -49 28 -10 32 12 4 23 -30 11 -34 35 -8 49 22 11 158 -1 173 -16 7 -7 9
-19 6 -27 -5 -12 -22 -16 -74 -17 -58 -1 -63 -2 -38 -10 17 -5 55 -8 85 -7 30
1 66 -4 79 -11 16 -9 26 -10 34 -2 7 7 2 13 -16 20 -53 20 -23 51 48 50 80 -2
110 -11 110 -34 0 -17 -8 -21 -65 -25 l-65 -5 47 -11 c58 -14 95 -8 109 18 14
25 -13 68 -42 68 -13 0 -20 6 -18 18 4 47 -2 70 -23 80 l-23 11 23 0 c28 1 37
24 46 114 l8 67 43 0 c33 0 45 4 48 18 3 10 5 5 6 -11 1 -20 -8 -38 -29 -57
-22 -21 -30 -37 -30 -63 0 -37 32 -87 56 -87 22 0 30 31 11 42 -38 21 0 87 42
73 30 -9 37 -44 12 -61 -22 -16 -27 -40 -12 -63 7 -10 16 -6 42 17 29 26 34
36 33 72 -2 50 -32 87 -81 96 -29 6 -34 10 -29 28 4 11 9 51 13 89 6 64 7 67
33 67 l26 0 -2 -87 c-3 -68 -1 -80 6 -53 19 74 23 162 9 171 -21 13 -67 11
-72 -3 -2 -7 -8 -10 -12 -6 -4 4 0 14 8 22 9 10 18 43 22 83 10 110 12 115 43
111 26 -3 27 -5 24 -53 -1 -27 -5 -72 -8 -100 -8 -83 13 -30 26 63 8 64 8 87
-1 98 -13 16 -85 19 -94 4 -4 -6 -14 -8 -23 -6 -10 3 -80 12 -157 21 -255 27
-319 36 -329 44 -6 5 -30 12 -53 16 -42 7 -43 6 -44 -22z m71 -30 c0 -16 -3
-58 -7 -95 -6 -67 -6 -68 -36 -68 -29 0 -29 1 -24 38 4 20 9 63 13 95 6 51 9
57 30 57 19 0 24 -5 24 -27z m5 -192 c3 -5 1 -12 -5 -16 -5 -3 -10 1 -10 9 0
18 6 21 15 7z m-38 -78 c-4 -38 -7 -78 -7 -90 0 -19 -6 -23 -31 -23 -27 0 -30
3 -26 23 4 12 9 42 12 67 11 83 14 90 37 90 20 0 21 -3 15 -67z m299 -160
c-12 -45 -28 -174 -30 -251 -1 -20 -8 -37 -18 -43 -30 -17 -32 21 -8 215 5 43
7 83 4 87 -3 5 9 9 26 9 25 0 30 -4 26 -17z m-73 -6 c-2 -4 -3 -39 -3 -78 0
-62 -2 -70 -17 -66 -10 3 -34 8 -54 11 l-36 6 4 48 c9 94 8 94 61 90 26 -2 46
-7 45 -11z m181 -8 c1 -2 1 -37 -2 -77 l-4 -73 -47 7 c-25 4 -48 8 -50 10 -2
1 0 35 4 75 l7 71 45 -5 c24 -2 45 -6 47 -8z m200 -47 c2 -4 -10 -6 -29 -4
-24 3 -39 -2 -55 -18 -12 -12 -24 -19 -27 -17 -2 3 5 15 16 26 21 21 85 30 95
13z m-694 -56 c0 -5 -7 -3 -15 4 -8 7 -15 20 -15 28 0 13 3 12 15 -4 8 -10 15
-23 15 -28z m110 20 c0 -2 -8 -10 -17 -17 -16 -13 -17 -12 -4 4 13 16 21 21
21 13z m595 -76 c-3 -5 -11 -10 -16 -10 -6 0 -7 5 -4 10 3 6 11 10 16 10 6 0
7 -4 4 -10z m-415 -46 l0 -37 -47 7 c-56 7 -57 8 -49 41 6 22 12 25 51 25 l45
0 0 -36z m148 10 c24 -5 31 -12 34 -36 l5 -30 -49 4 c-27 3 -50 7 -52 9 -2 2
-2 16 1 32 6 28 12 31 61 21z"/>
<path d="M6382 4692 c-12 -2 -30 -14 -38 -27 -23 -36 -3 -91 41 -112 29 -14
35 -14 67 1 33 16 58 50 58 80 0 27 -41 66 -68 66 -26 -1 -26 -1 8 -16 37 -16
50 -30 50 -56 0 -18 -41 -68 -56 -68 -16 0 -94 45 -94 54 0 4 6 6 13 3 6 -3
29 -12 50 -21 20 -9 37 -14 37 -11 0 3 -25 16 -56 30 -70 31 -63 52 8 24 29
-11 57 -23 62 -25 6 -3 2 2 -9 11 -11 8 -37 21 -57 27 -21 6 -38 15 -38 20 0
14 40 9 80 -12 22 -11 40 -18 40 -15 0 2 -15 12 -32 21 -18 9 -35 20 -38 23
-3 3 -15 5 -28 3z m24 -127 c10 -8 14 -15 8 -15 -5 0 -19 7 -30 15 -10 8 -14
15 -8 15 5 0 19 -7 30 -15z"/>
<path d="M7480 4661 c69 -7 102 -20 120 -49 8 -12 10 -12 7 -2 -2 8 -18 25
-37 38 -26 17 -45 22 -94 20 l-61 -1 65 -6z"/>
<path d="M7385 4650 c-3 -6 1 -7 9 -4 18 7 21 14 7 14 -6 0 -13 -4 -16 -10z"/>
<path d="M3507 4626 c-9 -13 -23 -50 -32 -82 -9 -32 -19 -66 -22 -74 -4 -8 -6
-18 -5 -21 0 -3 -6 -28 -14 -54 -19 -64 -18 -85 4 -85 12 0 22 16 35 60 l17
60 45 0 c25 0 48 0 52 1 4 0 13 -17 22 -38 8 -21 21 -47 29 -58 12 -18 13 -16
7 25 -4 25 -9 53 -11 62 -3 10 3 19 16 23 27 8 25 21 -3 29 -19 4 -27 18 -41
68 -29 106 -65 137 -99 84z m53 -78 c6 -24 13 -48 15 -55 3 -10 -62 -29 -71
-21 -6 7 28 118 37 118 5 0 13 -19 19 -42z"/>
<path d="M5266 4631 c-4 -5 18 -23 47 -39 58 -33 90 -70 131 -149 33 -66 33
-68 -4 -42 -41 31 -50 15 -13 -24 17 -17 36 -43 43 -55 6 -13 13 -22 16 -20 6
7 53 173 49 176 -2 2 -13 -15 -26 -39 l-22 -43 -19 52 c-12 32 -40 74 -71 107
-51 54 -120 94 -131 76z"/>
<path d="M7346 4614 c-9 -24 -2 -26 12 -4 7 11 8 20 3 20 -5 0 -12 -7 -15 -16z"/>
<path d="M3707 4585 c-4 -16 -10 -82 -13 -145 -6 -108 -5 -116 14 -133 26 -23
135 -36 156 -18 29 24 7 40 -54 39 -31 0 -62 2 -69 6 -7 5 -11 48 -12 119 -1
62 -4 123 -8 137 l-7 25 -7 -30z"/>
<path d="M2480 4589 c-37 -15 -70 -50 -70 -74 0 -27 20 -44 91 -78 70 -34 91
-69 60 -101 -17 -17 -38 -22 -109 -26 -66 -4 -87 -8 -87 -19 0 -39 149 -37
207 2 79 54 57 130 -55 185 -60 29 -67 35 -55 49 20 24 88 53 128 53 26 0 31
3 20 10 -19 12 -98 12 -130 -1z"/>
<path d="M2706 4551 c-100 -102 -67 -265 55 -278 81 -8 142 55 143 149 1 58
-24 95 -82 123 -23 11 -41 26 -42 33 0 24 -37 11 -74 -27z m98 -20 c38 -26 55
-57 56 -104 0 -76 -55 -130 -112 -108 -73 27 -78 133 -10 204 31 32 29 32 66
8z"/>
<path d="M3060 4579 c-80 -32 -126 -152 -91 -237 17 -41 68 -72 117 -72 47 0
69 12 61 34 -5 13 -15 15 -45 10 -32 -5 -43 -2 -70 21 -26 22 -32 34 -32 68 0
49 34 122 66 144 13 8 35 13 49 11 33 -7 32 10 -1 22 -14 6 -26 10 -27 9 -1 0
-13 -5 -27 -10z"/>
<path d="M3220 4570 c0 -13 7 -20 20 -20 19 0 20 -7 20 -110 0 -81 -3 -110
-12 -112 -7 0 -19 -2 -27 -2 -7 -1 -20 -11 -29 -24 -14 -22 -14 -22 39 -22 60
0 129 16 129 30 0 5 -16 12 -36 16 -25 5 -34 11 -30 21 3 8 6 55 6 104 0 49 4
89 9 89 5 0 22 5 38 11 l28 11 -25 13 c-14 8 -49 14 -77 15 -46 0 -53 -2 -53
-20z"/>
<path d="M7613 4520 c0 -41 2 -58 4 -37 2 20 2 54 0 75 -2 20 -4 3 -4 -38z"/>
<path d="M1079 4564 c-8 -9 -13 -44 -13 -87 l-1 -72 71 -14 72 -15 47 42 c26
23 52 42 56 42 18 0 8 -16 -33 -52 l-43 -37 57 -1 c31 0 63 -2 71 -6 10 -4 17
9 26 52 6 32 11 74 11 93 l0 37 -137 17 c-168 21 -167 21 -184 1z m193 -25
c62 -8 102 -17 105 -25 2 -7 -1 -38 -7 -68 -10 -49 -14 -56 -36 -56 -30 0 -30
7 -3 36 12 13 19 30 16 38 -11 28 -54 18 -103 -25 -34 -29 -53 -39 -68 -35
-12 3 -39 6 -60 6 l-39 0 6 65 c4 36 9 71 13 77 4 6 21 8 42 5 19 -4 80 -12
134 -18z"/>
<path d="M7332 4494 c-2 -96 9 -124 43 -110 12 4 15 22 13 88 l-2 83 -3 -83
c-3 -72 -6 -83 -21 -80 -14 3 -18 19 -23 98 l-5 95 -2 -91z"/>
<path d="M7547 4574 c-4 -4 -7 -114 -7 -245 0 -240 -4 -265 -35 -239 -11 9
-15 9 -15 1 0 -18 29 -25 45 -11 12 10 15 52 17 239 1 124 3 199 5 166 5 -92
10 -107 36 -103 12 2 23 11 25 23 4 20 3 20 -11 1 -23 -31 -37 -10 -38 62 -1
74 -10 118 -22 106z"/>
<path d="M7398 4453 c4 -218 8 -239 10 -60 1 97 -1 177 -5 177 -5 0 -7 -53 -5
-117z"/>
<path d="M6652 4457 c-7 -9 -22 -60 -32 -114 -10 -54 -42 -218 -70 -365 -28
-147 -49 -272 -46 -277 10 -16 63 -28 271 -65 273 -48 308 -51 327 -33 8 8 20
48 27 88 23 141 91 504 106 569 17 75 19 106 5 115 -13 8 -438 83 -514 91 -49
5 -64 3 -74 -9z m168 -22 c58 -9 173 -28 255 -43 l150 -27 -1 -40 c0 -22 -17
-125 -38 -230 -21 -104 -48 -252 -61 -328 -13 -77 -30 -146 -36 -154 -9 -10
-22 -13 -43 -8 -17 3 -80 15 -140 25 -113 20 -142 30 -87 30 28 0 32 3 29 22
-2 16 -12 24 -35 29 -41 8 -60 -10 -43 -41 10 -19 9 -21 -7 -16 -10 3 -58 12
-107 21 -49 10 -101 21 -114 26 -28 11 -28 6 19 239 16 80 43 221 60 314 33
190 41 210 72 202 12 -3 69 -12 127 -21z m6 -750 c18 -15 18 -15 -10 -13 -16
2 -31 9 -34 16 -5 17 20 15 44 -3z"/>
<path d="M6708 4403 c-21 -5 -17 8 -63 -238 -20 -104 -43 -227 -51 -272 -9
-45 -14 -88 -11 -95 7 -20 12 -2 57 242 67 368 61 345 91 348 14 2 70 -7 125
-18 54 -12 137 -28 183 -35 111 -19 121 -23 121 -46 0 -27 -90 -561 -96 -571
-3 -4 -20 -8 -37 -8 -31 0 -64 6 -306 49 -127 23 -143 25 -120 11 19 -11 396
-80 439 -80 22 0 33 6 40 23 5 12 30 147 55 299 49 295 49 312 2 323 -12 3
-53 10 -91 15 -38 6 -105 19 -150 29 -95 22 -164 31 -188 24z"/>
<path d="M7464 4336 c-3 -8 -4 -25 -1 -38 3 -18 5 -15 8 12 2 19 6 -19 9 -85
l6 -120 2 117 c1 70 -2 119 -8 123 -6 3 -13 0 -16 -9z"/>
<path d="M3519 4270 c-8 -5 -36 -54 -64 -109 -27 -56 -52 -101 -55 -101 -3 0
-25 38 -48 85 -23 47 -48 85 -55 85 -31 0 -37 -24 -37 -157 0 -113 2 -135 16
-140 26 -10 35 17 32 105 -2 45 -1 82 2 82 3 0 20 -29 38 -65 18 -38 38 -65
47 -65 18 0 40 34 93 139 35 71 37 73 44 45 3 -16 11 -68 17 -117 5 -48 15
-95 21 -105 12 -20 8 271 -4 300 -10 21 -28 28 -47 18z"/>
<path d="M4356 4208 c-8 -29 -18 -66 -22 -82 -4 -16 -15 -31 -25 -33 -24 -7
-32 -30 -13 -41 13 -7 13 -15 3 -55 -6 -26 -8 -54 -5 -64 6 -15 8 -15 22 -1 8
8 21 37 28 64 12 49 13 49 60 55 51 6 49 7 90 -64 34 -59 44 -55 22 9 -19 55
-19 64 -7 64 5 0 22 5 38 12 l28 11 -50 12 c-49 11 -49 11 -66 69 -19 64 -43
96 -70 96 -14 0 -22 -14 -33 -52z m62 -57 c16 -51 16 -51 -17 -51 l-28 0 10
45 c6 25 13 45 17 45 4 0 12 -17 18 -39z"/>
<path d="M3624 4240 c-6 -6 -7 -37 -2 -83 4 -39 9 -110 10 -157 l3 -85 57 -3
c59 -3 138 12 138 27 0 13 -39 21 -109 21 l-64 0 7 38 c3 20 6 43 6 50 0 7 14
12 38 12 21 0 42 3 45 7 13 13 -16 33 -49 33 l-34 0 0 55 0 55 54 0 c59 0 79
13 47 29 -25 14 -134 14 -147 1z"/>
<path d="M3874 4103 c4 -80 9 -149 11 -153 3 -4 32 -2 66 5 106 22 140 81 99
171 -35 81 -88 124 -151 124 l-32 0 7 -147z m95 68 c49 -49 67 -105 46 -138
-17 -25 -49 -48 -80 -57 -19 -5 -20 -1 -22 114 0 66 3 120 8 120 5 0 27 -18
48 -39z"/>
<path d="M4078 4243 c-35 -9 -11 -48 25 -41 25 5 25 3 31 -66 4 -39 9 -92 12
-118 5 -44 4 -48 -15 -48 -11 0 -25 -9 -31 -20 -11 -20 -9 -21 51 -18 41 2 64
8 67 16 2 7 -4 16 -14 18 -17 5 -19 18 -22 125 l-3 119 30 0 c37 0 48 15 22
29 -19 11 -119 13 -153 4z"/>
<path d="M7460 4176 c0 -35 -3 -71 -6 -80 -9 -23 -33 -20 -44 7 -8 17 -9 18
-7 3 1 -10 10 -24 20 -30 30 -18 47 17 47 96 0 37 -2 68 -5 68 -3 0 -5 -29 -5
-64z"/>
<path d="M6097 4169 c-117 -28 -172 -108 -132 -194 10 -20 33 -46 50 -58 32
-21 32 -22 17 -46 -16 -24 -16 -24 13 -17 17 4 82 11 145 15 63 5 127 13 141
19 39 16 59 50 59 100 0 86 -61 152 -163 179 -57 15 -75 15 -130 2z m153 -21
c129 -38 178 -196 77 -249 -12 -7 -73 -15 -137 -19 -63 -3 -124 -10 -135 -15
-18 -8 -19 -7 -5 9 13 17 11 21 -23 48 -86 69 -87 155 -3 207 62 39 138 45
226 19z"/>
<path d="M6055 4102 c10 -10 214 -37 221 -29 3 2 -37 9 -88 16 -51 6 -104 14
-118 17 -16 3 -21 2 -15 -4z"/>
<path d="M6062 4050 c15 -4 67 -11 115 -14 l88 -5 -100 14 c-112 16 -143 17
-103 5z"/>
<path d="M6055 4000 c17 -4 48 -8 70 -8 l40 1 -45 8 c-25 4 -56 7 -70 7 -23 0
-22 -1 5 -8z"/>
<path d="M5434 4141 c-113 -51 -140 -197 -48 -257 19 -13 52 -18 135 -19 l109
-2 -14 22 c-14 21 -13 25 6 41 30 28 48 68 48 110 0 63 -83 124 -170 124 -14
0 -44 -9 -66 -19z m171 -21 c66 -41 73 -110 18 -171 -29 -32 -35 -44 -26 -57
9 -15 2 -17 -76 -17 -50 0 -100 6 -119 14 -105 44 -66 212 57 252 38 12 109 2
146 -21z"/>
<path d="M5498 4072 c-58 -30 -128 -76 -128 -85 0 -5 15 2 32 15 18 12 60 37
93 55 63 34 66 47 3 15z"/>
<path d="M5473 4014 c-34 -19 -65 -40 -69 -46 -8 -12 83 37 119 64 34 27 18
21 -50 -18z"/>
<path d="M5437 3954 c-16 -9 -27 -18 -24 -21 3 -2 22 5 44 16 21 11 31 20 23
20 -8 0 -28 -7 -43 -15z"/>
<path d="M2822 4058 c-15 -15 -16 -45 -1 -54 6 -3 -2 -14 -20 -25 -17 -10 -31
-24 -31 -31 0 -6 6 -4 13 7 8 10 19 15 24 12 6 -4 13 -1 16 7 4 9 14 12 27 9
11 -3 20 -2 19 3 -1 5 1 17 5 26 18 41 -21 77 -52 46z m46 -22 c5 -26 -13 -42
-32 -27 -12 10 -13 21 -7 49 3 12 36 -7 39 -22z"/>
<path d="M1841 4050 c-141 -30 -240 -175 -184 -271 25 -42 74 -61 180 -69 85
-6 96 -9 125 -36 17 -16 29 -22 26 -14 -10 34 -69 60 -133 60 -72 0 -155 22
-178 47 -61 69 -1 203 114 252 70 31 178 31 245 1 83 -36 124 -88 124 -156 0
-29 -7 -44 -35 -70 -20 -18 -51 -36 -70 -40 -30 -5 -35 -10 -35 -34 0 -16 -4
-40 -10 -54 -5 -14 -6 -26 -1 -26 11 0 21 35 21 73 0 18 5 27 16 27 28 0 95
44 110 72 42 82 -7 176 -117 222 -46 19 -143 27 -198 16z"/>
<path d="M2898 3962 c9 -10 19 -17 21 -16 6 5 -20 34 -30 34 -5 0 -1 -8 9 -18z"/>
<path d="M4982 3957 c-9 -10 -5 -13 16 -12 21 0 28 -5 30 -24 4 -24 -11 -41
-36 -41 -7 0 -21 14 -31 31 -12 20 -21 27 -26 19 -4 -7 1 -24 12 -38 24 -32
73 -41 93 -17 14 17 17 62 4 75 -18 16 -51 20 -62 7z"/>
<path d="M1930 3953 c-78 -8 -170 -25 -170 -32 0 -4 28 -2 63 5 34 8 80 14
102 15 22 1 54 5 70 9 l30 8 -30 -1 c-16 0 -46 -2 -65 -4z"/>
<path d="M2879 3925 c-1 -11 0 -27 1 -34 1 -13 -1 -13 -14 -2 -10 8 -16 9 -16
3 0 -6 5 -14 10 -17 6 -3 10 -15 10 -26 0 -14 -4 -18 -12 -13 -10 6 -10 5 -2
-7 7 -8 14 -23 17 -34 2 -11 5 -2 6 20 1 30 4 36 13 27 7 -7 16 -12 21 -12 5
0 2 7 -7 15 -9 9 -13 27 -11 44 2 15 -1 34 -6 42 -7 11 -9 10 -10 -6z"/>
<path d="M2789 3908 c-1 -13 0 -33 1 -45 1 -13 -1 -23 -5 -23 -3 0 -10 10 -15
23 -5 12 -9 15 -9 7 -1 -25 15 -41 32 -34 12 4 17 18 17 50 0 44 -19 64 -21
22z"/>
<path d="M2760 3905 c0 -8 5 -15 10 -15 6 0 10 7 10 15 0 8 -4 15 -10 15 -5 0
-10 -7 -10 -15z"/>
<path d="M1985 3904 c-11 -2 -67 -8 -125 -15 -58 -7 -100 -14 -93 -16 14 -5
263 23 270 31 6 6 -14 6 -52 0z"/>
<path d="M5024 3828 c3 -13 13 -52 22 -88 l17 -66 -26 -26 c-15 -15 -37 -29
-49 -31 -20 -4 -19 -4 5 -6 15 0 27 -5 27 -9 0 -17 42 -52 63 -52 33 -1 92
-83 89 -124 -6 -62 60 -88 86 -34 19 39 1 78 -35 77 -23 -1 -24 -3 -6 -6 12
-2 24 -11 27 -19 6 -17 -10 -64 -22 -64 -16 0 -32 24 -32 49 0 13 -18 49 -41
78 -38 50 -40 56 -25 72 9 10 16 27 16 37 0 15 14 26 53 42 45 19 57 20 84 10
39 -15 63 1 63 41 0 32 -17 51 -44 50 -20 0 -20 -1 2 -9 23 -10 31 -53 12 -65
-15 -9 -40 14 -40 36 0 11 -4 19 -10 19 -5 0 -10 -11 -10 -24 0 -19 -11 -28
-57 -48 -57 -25 -58 -25 -89 -6 -27 16 -34 30 -54 103 -13 47 -25 85 -28 85
-2 0 -2 -10 2 -22z m82 -194 c16 -24 16 -26 -4 -47 -21 -20 -22 -20 -42 -2
-22 20 -27 61 -7 68 25 11 37 6 53 -19z"/>
<path d="M5746 3835 c-22 -8 -54 -27 -73 -41 -98 -75 -79 -203 37 -239 32 -10
40 -22 40 -62 0 -46 17 -50 56 -12 31 30 39 33 127 39 133 10 187 44 187 118
0 71 -50 146 -125 185 -52 27 -192 34 -249 12z m249 -26 c61 -31 105 -90 112
-151 10 -83 -58 -128 -194 -128 -60 0 -94 -15 -121 -52 -21 -28 -32 -21 -32
20 0 46 -7 57 -44 66 -46 11 -96 68 -96 109 0 38 31 90 71 119 74 55 215 63
304 17z"/>
<path d="M5785 3750 c33 -4 92 -10 130 -13 l70 -6 -80 14 c-44 7 -102 13 -130
13 l-50 -1 60 -7z"/>
<path d="M5720 3710 c0 -4 50 -12 111 -19 60 -6 124 -14 142 -16 l32 -5 -30
10 c-40 12 -255 38 -255 30z"/>
<path d="M5725 3659 c4 -5 22 -9 42 -9 45 0 40 5 -10 13 -22 3 -35 2 -32 -4z"/>
<path d="M1795 3830 l-30 -8 30 -1 c17 0 37 4 45 9 13 9 13 10 0 9 -8 -1 -28
-5 -45 -9z"/>
<path d="M2803 3780 c0 -30 2 -43 4 -27 2 15 2 39 0 55 -2 15 -4 2 -4 -28z"/>
<path d="M2837 3806 c-4 -10 -1 -13 8 -9 8 3 12 9 9 14 -7 12 -11 11 -17 -5z"/>
<path d="M4684 3788 c-4 -7 -3 -8 5 -4 16 10 41 -12 41 -36 0 -10 -7 -21 -15
-24 -20 -8 -45 14 -45 39 0 16 -3 18 -11 10 -17 -17 -3 -58 25 -71 50 -23 89
44 48 81 -22 20 -38 22 -48 5z"/>
<path d="M941 3776 c-26 -31 -50 -39 -82 -25 -38 15 -44 8 -29 -36 11 -33 10
-40 -9 -66 -11 -15 -21 -31 -21 -34 0 -3 20 -5 45 -5 41 0 48 -4 63 -30 17
-30 42 -40 42 -17 0 7 -6 19 -12 26 -11 11 -10 13 0 7 7 -5 16 2 22 18 5 14
14 26 19 26 5 0 22 5 38 11 l27 10 -39 22 c-35 20 -41 28 -45 66 -5 40 -6 43
-19 27z"/>
<path d="M2852 3760 c0 -14 2 -19 5 -12 2 6 2 18 0 25 -3 6 -5 1 -5 -13z"/>
<path d="M7237 3707 c3 -34 9 -80 13 -102 l7 -40 8 57 c4 32 4 65 1 74 -11 28
3 33 52 19 56 -17 72 -18 72 -5 0 5 -26 17 -57 25 -32 9 -68 20 -80 25 -22 9
-23 9 -16 -53z"/>
<path d="M2872 3715 c0 -16 2 -22 5 -12 2 9 2 23 0 30 -3 6 -5 -1 -5 -18z"/>
<path d="M3454 3709 c-16 -17 -43 -39 -61 -50 l-32 -20 -76 32 c-41 18 -79 29
-83 25 -3 -4 8 -49 25 -99 l31 -92 -49 -64 c-27 -35 -49 -70 -49 -79 0 -14 42
-14 182 1 12 1 30 -19 55 -62 67 -113 97 -111 107 7 8 92 15 101 96 127 95 30
102 46 33 76 -27 11 -63 32 -80 45 -32 25 -33 27 -33 105 0 70 -2 79 -18 79
-10 0 -31 -14 -48 -31z m-151 -79 c3 -11 1 -18 -4 -14 -5 3 -9 12 -9 20 0 20
7 17 13 -6z m116 -32 c15 -43 8 -45 -12 -3 -9 19 -13 35 -8 35 5 0 14 -14 20
-32z m161 -94 c0 -8 -4 -12 -10 -9 -5 3 -10 10 -10 16 0 5 5 9 10 9 6 0 10 -7
10 -16z m65 -33 c-3 -6 -11 -11 -17 -11 -6 0 -6 6 2 15 14 17 26 13 15 -4z
m-255 -92 c23 -45 22 -63 -2 -27 -17 27 -32 68 -24 68 3 0 15 -18 26 -41z m91
-57 c6 -7 8 -21 4 -30 -5 -13 -11 -8 -25 23 -23 47 -25 68 -5 40 8 -11 19 -26
26 -33z"/>
<path d="M2801 3698 c-1 -31 16 -46 32 -28 9 10 8 12 -6 7 -10 -4 -16 -3 -14
1 3 4 1 16 -4 27 -7 18 -8 17 -8 -7z"/>
<path d="M2831 3704 c0 -11 3 -14 6 -6 3 7 2 16 -1 19 -3 4 -6 -2 -5 -13z"/>
<path d="M2854 3691 c1 -24 26 -44 26 -21 0 6 -4 9 -9 5 -5 -3 -12 5 -14 17
-4 21 -4 21 -3 -1z"/>
<path d="M4212 3702 c-28 -22 -21 -49 16 -59 31 -7 114 -92 105 -107 -4 -6 1
-5 10 3 39 31 91 -14 67 -59 -14 -25 -45 -26 -77 0 -18 14 -39 20 -72 18 l-46
-1 44 -4 c32 -3 49 -11 63 -29 26 -32 80 -33 102 -2 21 30 20 64 -3 87 -28 28
-10 54 34 45 25 -4 35 -2 42 10 8 15 15 14 66 -9 31 -13 57 -22 57 -20 0 3
-25 16 -55 30 -44 19 -55 29 -55 47 0 43 -31 59 -64 35 -16 -12 -15 -13 11
-12 22 0 29 -5 31 -24 6 -41 -16 -50 -44 -16 l-24 30 0 -31 c0 -31 -19 -55
-54 -68 -14 -5 -29 3 -57 30 -31 31 -37 42 -32 65 6 30 -10 59 -31 59 -6 0
-21 -8 -34 -18z m46 -20 c4 -25 -19 -30 -37 -9 -8 10 -7 17 1 25 17 17 32 10
36 -16z"/>
<path d="M1653 3650 c-68 -30 -103 -109 -70 -154 11 -15 22 -17 63 -12 27 4
68 8 91 9 39 2 41 4 36 28 -3 16 1 30 11 38 9 8 16 29 16 48 0 29 -5 36 -35
49 -45 18 -61 18 -112 -6z"/>
<path d="M4881 3657 c-8 -11 -5 -13 18 -9 32 4 49 -21 30 -44 -16 -20 -36 -17
-52 6 -12 17 -16 18 -26 7 -6 -8 -29 -22 -51 -32 -22 -10 -38 -20 -36 -22 2
-3 23 5 45 17 38 19 43 19 57 5 21 -20 57 -19 77 3 22 24 21 45 -1 65 -22 20
-46 22 -61 4z"/>
<path d="M7308 3654 c-9 -8 19 -64 32 -64 6 0 10 6 10 14 0 19 -34 59 -42 50z"/>
<path d="M4702 3620 c0 -14 2 -19 5 -12 2 6 2 18 0 25 -3 6 -5 1 -5 -13z"/>
<path d="M1414 3569 c-5 -8 -3 -9 6 -4 7 4 16 2 22 -6 8 -12 9 -12 6 0 -6 20
-24 25 -34 10z"/>
<path d="M4651 3561 c-24 -24 -18 -56 15 -78 22 -14 26 -14 49 1 30 20 33 56
7 79 -24 22 -48 21 -71 -2z m54 -7 c23 -23 15 -49 -15 -49 -25 0 -37 22 -26
51 7 18 21 18 41 -2z"/>
<path d="M1380 3559 c0 -5 5 -7 10 -4 6 3 10 8 10 11 0 2 -4 4 -10 4 -5 0 -10
-5 -10 -11z"/>
<path d="M1310 3550 c-20 -6 -21 -8 -5 -8 11 0 29 3 40 8 25 11 -1 11 -35 0z"/>
<path d="M4115 3550 c-3 -5 0 -7 8 -4 8 3 22 -2 31 -12 15 -14 15 -19 3 -38
-21 -31 -44 -31 -60 0 -9 18 -17 23 -21 15 -12 -18 21 -61 47 -61 28 0 41 9
56 37 15 29 14 39 -5 57 -17 18 -50 21 -59 6z"/>
<path d="M1389 3533 c-13 -16 -12 -17 4 -4 16 13 21 21 13 21 -2 0 -10 -8 -17
-17z"/>
<path d="M4951 3476 c-71 -72 -75 -74 -97 -59 -17 11 -28 12 -41 4 -15 -8 -23
-4 -46 22 -19 21 -25 25 -18 10 6 -12 15 -24 20 -28 6 -3 7 -20 4 -38 -6 -39
16 -67 52 -67 28 0 55 24 55 49 0 10 12 28 26 42 30 28 128 139 122 139 -2 0
-37 -33 -77 -74z m-101 -81 c26 -31 -18 -71 -47 -42 -19 19 -8 57 16 57 10 0
24 -7 31 -15z"/>
<path d="M1258 3533 c7 -3 16 -2 19 1 4 3 -2 6 -13 5 -11 0 -14 -3 -6 -6z"/>
<path d="M1405 3520 c-10 -11 -21 -17 -26 -15 -4 3 -10 1 -14 -5 -3 -5 -11
-10 -17 -10 -6 0 -3 10 8 23 12 14 8 13 -12 -5 -16 -16 -34 -28 -39 -28 -5 0
2 12 16 28 22 25 22 25 -9 -3 -37 -34 -30 -41 25 -26 51 15 63 14 63 -4 0 -8
-9 -15 -20 -15 -10 0 -25 -10 -31 -22 -12 -22 -11 -22 8 -5 11 9 22 15 25 11
3 -3 16 9 28 25 16 23 17 29 6 25 -21 -8 -20 5 1 28 9 10 14 18 11 18 -3 0
-13 -9 -23 -20z"/>
<path d="M1195 3520 c-3 -5 -12 -7 -19 -4 -7 3 -16 -2 -20 -11 -3 -9 -10 -13
-16 -10 -5 3 -10 2 -10 -4 0 -5 6 -12 13 -14 10 -4 10 -6 0 -6 -7 -1 -13 -6
-13 -13 0 -7 17 4 38 24 20 20 46 38 57 41 18 4 18 5 -2 6 -12 0 -24 -3 -28
-9z m-15 -14 c0 -2 -8 -10 -17 -17 -16 -13 -17 -12 -4 4 13 16 21 21 21 13z"/>
<path d="M1270 3495 c-19 -19 -30 -35 -24 -35 5 0 22 16 37 35 36 45 30 45
-13 0z"/>
<path d="M6407 3516 c-52 -19 -85 -51 -113 -111 -56 -119 -15 -233 99 -271 95
-32 191 0 240 78 57 91 42 192 -36 249 -41 30 -97 39 -97 17 0 -7 27 -64 59
-126 58 -109 59 -113 41 -134 l-17 -22 -13 40 c-7 21 -32 86 -56 144 -24 58
-42 114 -41 125 3 25 -18 28 -66 11z m39 -63 c9 -21 40 -89 71 -152 42 -89 52
-116 41 -122 -22 -14 -31 -5 -49 49 -10 29 -38 96 -63 148 -25 53 -43 100 -40
105 11 18 25 8 40 -28z m140 -15 c40 -49 56 -94 49 -139 -7 -38 -25 -45 -25
-11 0 9 -15 54 -34 100 -18 45 -30 82 -26 82 5 0 21 -15 36 -32z m-141 -136
c39 -78 67 -143 63 -143 -5 -1 -13 -2 -18 -3 -12 -1 -147 269 -142 284 9 27
32 -6 97 -138z m-71 1 c25 -49 55 -103 68 -122 19 -30 20 -34 4 -28 -10 4 -24
7 -32 7 -8 0 -17 8 -21 18 -3 9 -23 57 -44 106 -34 77 -40 106 -24 106 3 0 25
-39 49 -87z m-38 -68 c8 -19 10 -35 5 -35 -11 0 -41 63 -41 87 1 17 1 17 11 0
5 -9 17 -33 25 -52z"/>
<path d="M1230 3485 c-28 -29 -31 -35 -15 -35 10 0 15 3 12 7 -4 4 5 19 20 35
15 15 25 28 22 28 -3 0 -20 -16 -39 -35z"/>
<path d="M2284 3500 c-327 -4 -394 -7 -409 -20 -17 -14 -18 -35 -12 -359 5
-296 8 -346 22 -360 14 -14 73 -16 510 -19 l494 -3 22 22 c21 21 21 23 16 362
-5 312 -7 341 -24 357 -24 24 -130 27 -619 20z m-294 -66 c0 -8 -2 -14 -5 -14
-6 0 -35 56 -35 67 1 14 40 -39 40 -53z m54 -3 c-6 -7 -33 32 -34 49 0 8 9 2
20 -15 10 -16 17 -31 14 -34z m16 34 c19 -36 7 -40 -14 -5 -9 17 -13 30 -8 30
5 0 15 -11 22 -25z m44 -35 c-8 -7 -34 31 -34 49 0 10 8 4 20 -14 10 -16 17
-32 14 -35z m56 9 c0 -5 -4 -9 -8 -9 -9 0 -32 44 -32 58 1 10 40 -38 40 -49z
m24 29 c19 -27 20 -38 3 -38 -7 0 -18 14 -24 30 -13 35 -1 40 21 8z m41 -8
c13 -25 13 -30 1 -30 -7 0 -16 8 -20 18 -3 9 -9 23 -12 30 -12 27 16 10 31
-18z m45 -21 c0 -5 -4 -9 -8 -9 -9 0 -32 44 -32 58 1 10 40 -38 40 -49z m25
25 c9 -14 14 -29 10 -32 -6 -7 -44 36 -45 51 0 16 19 6 35 -19z m40 0 c9 -14
14 -29 10 -32 -7 -7 -45 34 -45 49 0 17 18 9 35 -17z m40 -4 c19 -36 4 -40
-19 -5 -19 28 -20 35 -6 35 5 0 16 -13 25 -30z m31 13 c-9 27 8 20 27 -13 20
-33 13 -41 -10 -12 -14 16 -14 16 -9 0 8 -28 -9 -21 -22 7 -16 36 -15 42 4 19
13 -16 15 -16 10 -1z m67 -12 c31 -53 14 -53 -23 -1 -15 22 -17 30 -8 30 8 0
21 -13 31 -29z m57 -31 c0 -17 -27 1 -39 26 -6 14 -11 28 -11 32 1 10 50 -47
50 -58z m27 -3 c-2 -6 -11 2 -20 20 -23 43 -21 51 4 19 11 -14 19 -32 16 -39z
m34 46 c13 -16 12 -17 -3 -4 -17 13 -22 21 -14 21 2 0 10 -8 17 -17z m53 -14
c20 -35 12 -54 -11 -24 -28 39 -35 55 -21 55 8 0 22 -14 32 -31z m66 1 c22
-30 24 -40 12 -40 -4 0 -16 14 -26 31 -10 17 -20 28 -23 26 -2 -3 3 -17 12
-31 10 -14 13 -26 7 -26 -5 0 -19 15 -30 34 l-20 34 24 0 c15 0 32 -11 44 -28z
m41 -12 c12 -17 17 -29 10 -27 -7 3 -22 20 -34 39 -26 41 -7 32 24 -12z m40 5
c19 -21 53 -61 76 -89 41 -50 42 -51 40 -131 0 -43 3 -85 8 -92 4 -8 4 -12 -2
-10 -14 6 -93 98 -93 110 0 11 20 13 20 2 1 -13 59 -79 60 -68 0 6 -18 32 -40
59 -22 26 -40 52 -40 57 0 19 16 7 44 -32 15 -22 31 -38 33 -35 3 3 -13 30
-36 59 -52 68 -53 86 -1 27 22 -25 40 -40 40 -34 0 6 -18 32 -40 57 -22 25
-40 49 -40 54 0 6 -9 18 -21 29 -29 26 -62 74 -52 74 5 0 25 -17 44 -37z m61
-17 c44 -58 66 -70 28 -16 -27 38 -22 49 9 16 17 -18 22 -33 19 -67 l-3 -43
-28 43 c-15 23 -44 60 -64 81 -25 29 -31 40 -19 40 9 0 35 -25 58 -54z m3 43
c11 -17 -1 -21 -15 -4 -8 9 -8 15 -2 15 6 0 14 -5 17 -11z m55 -38 c0 -12 -6
-9 -20 9 -26 33 -26 48 0 25 11 -10 20 -25 20 -34z m-990 30 c1 14 50 -39 50
-53 0 -18 -18 -6 -29 18 -6 15 -14 24 -18 21 -3 -4 0 -14 8 -23 8 -10 14 -46
16 -96 l2 -80 -40 67 c-43 73 -45 81 -26 88 9 3 9 7 -1 20 -11 13 -11 18 0 31
9 10 17 11 26 4 8 -7 12 -6 12 3z m670 -45 c0 -12 -14 5 -31 39 -8 16 -6 15
10 -4 12 -13 21 -28 21 -35z m-460 13 c0 -6 -4 -7 -10 -4 -5 3 -10 11 -10 16
0 6 5 7 10 4 6 -3 10 -11 10 -16z m-115 1 c3 -5 1 -10 -4 -10 -6 0 -11 5 -11
10 0 6 2 10 4 10 3 0 8 -4 11 -10z m603 -15 c-3 -3 -9 2 -12 12 -6 14 -5 15 5
6 7 -7 10 -15 7 -18z m180 -27 c9 -8 12 -76 12 -279 0 -255 -1 -269 -19 -279
-13 -6 -158 -10 -403 -10 -316 0 -388 3 -404 14 -18 14 -19 29 -19 278 0 227
2 265 16 279 14 14 60 15 410 11 242 -3 399 -8 407 -14z m-883 -109 c19 -33
35 -70 35 -82 0 -15 -11 -4 -34 38 -60 107 -61 147 -1 44z m3 -72 c22 -43 40
-137 26 -137 -2 0 -20 32 -39 70 -19 39 -32 70 -27 70 4 0 18 -21 30 -46 13
-26 25 -44 28 -41 3 3 -11 37 -31 77 -20 40 -31 69 -25 65 6 -3 23 -30 38 -58z
m1002 -126 c0 -6 -4 -11 -10 -11 -5 0 -10 4 -10 9 0 4 -18 29 -40 54 -22 25
-40 49 -40 54 1 12 100 -94 100 -106z m-1003 17 c23 -44 41 -138 27 -138 -2 0
-19 31 -39 69 -21 43 -31 72 -24 76 5 4 7 15 4 26 -12 36 5 19 32 -33z m957
-4 c26 -31 43 -60 40 -66 -3 -5 -13 1 -22 14 -8 13 -28 38 -44 56 -25 29 -35
52 -24 52 3 0 25 -25 50 -56z m-4 -42 c19 -26 36 -60 37 -76 l1 -28 -34 33
c-45 44 -44 30 2 -21 20 -22 34 -46 31 -54 -3 -7 0 -19 6 -25 18 -18 -4 -13
-25 6 -22 19 -25 41 -3 23 25 -21 17 0 -18 43 -19 23 -34 53 -35 66 -1 23 0
23 35 -10 l36 -34 -42 56 c-22 31 -41 59 -41 62 0 17 18 2 50 -41z m-921 -152
c-1 -15 -67 116 -68 135 0 6 15 -19 34 -55 19 -35 35 -71 34 -80z m-20 -10
c23 -52 46 -103 52 -113 9 -17 5 -37 -5 -26 -7 8 -96 224 -96 233 0 17 8 1 49
-94z m926 60 c27 -30 12 -34 -15 -5 -13 14 -19 25 -13 25 5 0 18 -9 28 -20z
m-931 -109 c20 -46 34 -86 31 -89 -3 -3 -6 -3 -8 -1 -11 15 -67 154 -67 167 0
22 4 16 44 -77z m956 38 c50 -64 44 -79 -8 -19 -46 53 -56 70 -43 70 6 0 29
-23 51 -51z m27 -96 c-5 -37 -17 -39 -42 -8 -13 17 -24 25 -25 19 0 -6 7 -17
15 -24 17 -14 20 -30 6 -30 -8 0 -51 64 -51 77 0 3 7 0 15 -7 12 -10 15 -10
15 1 0 8 9 4 23 -9 41 -39 40 -23 -2 24 -55 63 -52 79 4 24 32 -31 44 -51 42
-67z m-997 21 c11 -25 20 -47 20 -48 0 -8 -36 -1 -42 8 -14 21 -7 31 7 12 20
-26 20 0 0 34 -15 27 -18 40 -10 40 3 0 15 -21 25 -46z m930 25 c0 -6 -4 -7
-10 -4 -5 3 -10 11 -10 16 0 6 5 7 10 4 6 -3 10 -11 10 -16z m-829 -46 c5 -14
12 -23 15 -20 3 3 1 15 -6 26 -7 13 -7 21 -1 21 9 0 41 -50 41 -64 0 -2 -12
-3 -26 -2 -26 3 -53 35 -54 64 0 20 20 3 31 -25z m79 -35 c0 -17 -18 -6 -28
17 -19 41 -14 53 8 20 11 -16 20 -33 20 -37z m35 31 c9 -17 14 -33 11 -36 -4
-4 -36 49 -36 62 0 13 11 2 25 -26z m55 -31 c0 -5 -4 -8 -10 -8 -9 0 -40 52
-40 67 1 10 50 -49 50 -59z m15 21 c9 -16 12 -29 7 -29 -7 0 -20 20 -40 64
-11 23 20 -9 33 -35z m28 6 c9 -19 13 -35 9 -35 -5 0 -16 16 -25 35 -9 19 -13
35 -9 35 5 0 16 -16 25 -35z m32 4 c9 -17 14 -34 11 -37 -8 -7 -19 6 -34 41
-16 38 4 35 23 -4z m40 -10 c13 -24 13 -29 1 -29 -7 0 -16 8 -19 18 -2 9 -8
26 -13 36 -12 30 13 10 31 -25z m28 6 c9 -19 13 -35 8 -35 -7 0 -15 14 -39 63
-2 4 0 7 5 7 5 0 17 -16 26 -35z m30 6 c19 -33 21 -41 8 -41 -8 0 -41 54 -41
67 0 13 19 -2 33 -26z m32 -1 c17 -33 18 -40 8 -40 -8 0 -33 47 -33 62 0 16
10 7 25 -22z m30 0 c17 -33 18 -40 8 -40 -8 0 -33 47 -33 62 0 16 10 7 25 -22z
m55 -31 c0 -16 -28 -10 -33 9 -2 9 -8 26 -12 37 -5 15 -1 14 19 -8 14 -15 26
-32 26 -38z m18 26 c14 -23 18 -35 10 -35 -7 0 -21 16 -30 35 -23 45 -10 45
20 0z m31 0 c11 -19 17 -35 13 -35 -8 0 -42 53 -42 64 0 13 9 4 29 -29z m51
-8 c0 6 -4 15 -10 18 -5 3 -10 11 -10 17 0 7 6 6 15 -2 11 -9 15 -9 15 -1 0 7
5 9 10 6 15 -9 42 -65 32 -65 -5 0 -14 12 -21 26 -6 15 -14 24 -17 21 -3 -3
-1 -15 6 -26 9 -18 8 -21 -12 -21 -15 0 -30 10 -41 29 -25 42 -21 51 8 16 13
-16 24 -25 25 -18z m78 8 c16 -25 18 -35 9 -35 -12 0 -20 12 -45 63 -2 4 0 7
5 7 4 0 18 -16 31 -35z m30 5 c23 -31 27 -40 15 -40 -5 0 -18 16 -31 35 -27
43 -14 47 16 5z m61 0 c11 -14 20 -20 21 -13 0 6 -4 15 -10 18 -12 7 -13 25
-2 25 8 0 42 -52 42 -64 0 -3 -18 -5 -39 -4 -31 1 -42 6 -52 27 -7 14 -15 29
-17 32 -9 18 39 0 57 -21z m74 1 c19 -33 21 -41 8 -41 -5 0 -18 16 -30 35 -14
24 -16 35 -8 35 7 0 20 -13 30 -29z m-705 -36 c-3 -3 -9 2 -12 12 -6 14 -5 15
5 6 7 -7 10 -15 7 -18z"/>
<path d="M1890 3454 c0 -13 42 -75 47 -70 3 3 -5 21 -17 40 -21 34 -30 43 -30
30z"/>
<path d="M1890 3405 c0 -13 42 -86 46 -82 6 5 -33 87 -41 87 -3 0 -5 -2 -5 -5z"/>
<path d="M1891 3115 c0 -5 11 -30 24 -55 13 -25 24 -40 24 -35 0 6 -11 30 -24
55 -13 25 -24 41 -24 35z"/>
<path d="M2700 2804 c0 -5 7 -19 15 -30 8 -10 15 -14 15 -8 0 5 -7 19 -15 30
-8 10 -15 14 -15 8z"/>
<path d="M7384 3475 c9 -45 11 -49 24 -41 13 8 3 53 -16 68 -13 12 -14 8 -8
-27z"/>
<path d="M1199 3487 c-57 -44 -72 -58 -68 -61 2 -2 24 14 49 35 42 36 55 54
19 26z"/>
<path d="M1410 3445 c-8 -14 -20 -23 -27 -21 -7 3 -13 1 -13 -4 0 -6 6 -10 14
-10 8 0 16 -7 18 -15 2 -13 5 -12 15 4 11 18 10 19 -5 14 -16 -7 -16 -5 1 21
10 15 17 30 14 32 -2 2 -10 -7 -17 -21z"/>
<path d="M4640 3406 c-21 -51 -25 -54 -50 -49 -15 3 -30 0 -34 -5 -3 -6 2 -8
13 -5 26 7 54 -33 40 -59 -13 -25 -52 -20 -58 7 -2 11 -9 24 -17 28 -8 4 -32
35 -54 67 -23 33 -43 60 -46 60 -7 0 3 -15 50 -80 22 -30 39 -59 38 -64 -2 -4
4 -19 13 -32 34 -53 123 -8 98 49 -8 16 -4 34 14 76 13 29 22 55 20 58 -3 2
-15 -21 -27 -51z"/>
<path d="M1158 3425 c-16 -13 -28 -27 -28 -31 0 -4 9 1 19 10 11 10 24 16 28
13 5 -3 9 3 9 14 0 10 0 19 -1 19 0 0 -12 -12 -27 -25z"/>
<path d="M1311 3428 c-14 -23 -14 -23 8 -4 22 20 25 26 13 26 -4 0 -13 -10
-21 -22z"/>
<path d="M1280 3429 c0 -5 5 -7 10 -4 6 3 10 8 10 11 0 2 -4 4 -10 4 -5 0 -10
-5 -10 -11z"/>
<path d="M1232 3400 c-19 -25 -20 -30 -7 -30 9 0 14 4 11 8 -3 5 4 19 15 30
11 12 16 22 11 22 -4 0 -18 -13 -30 -30z"/>
<path d="M1185 3390 c-22 -23 -25 -30 -12 -30 9 0 17 6 17 14 0 8 10 22 22 30
12 9 18 16 12 16 -6 0 -23 -13 -39 -30z"/>
<path d="M1260 3395 c-10 -12 -9 -15 6 -14 11 0 37 7 59 15 30 10 32 12 10 8
-16 -3 -38 -7 -49 -11 -12 -3 -16 -1 -12 6 10 16 0 13 -14 -4z"/>
<path d="M4296 3340 c-20 -38 -35 -70 -32 -70 7 0 77 132 73 136 -2 3 -21 -27
-41 -66z"/>
<path d="M1411 3373 c-7 -8 -11 -16 -8 -19 2 -2 10 2 17 11 17 20 9 27 -9 8z"/>
<path d="M1429 3353 c-13 -16 -12 -17 4 -4 9 7 17 15 17 17 0 8 -8 3 -21 -13z"/>
<path d="M1142 3341 c-8 -5 -12 -21 -10 -40 3 -31 3 -31 16 -10 8 11 9 18 3
14 -15 -9 -14 18 1 33 14 14 9 15 -10 3z"/>
<path d="M1172 3330 c0 -14 2 -19 5 -12 2 6 2 18 0 25 -3 6 -5 1 -5 -13z"/>
<path d="M1412 3303 c-23 -25 -36 -43 -27 -39 26 9 17 -8 -22 -42 l-38 -34 41
31 c22 16 47 37 54 46 11 13 10 14 -6 9 -16 -6 -15 -3 5 19 29 32 35 34 28 7
-3 -11 -1 -18 3 -15 5 3 8 19 8 35 -1 17 -1 30 -2 29 -1 0 -20 -21 -44 -46z"/>
<path d="M1400 3319 c0 -5 5 -7 10 -4 6 3 10 8 10 11 0 2 -4 4 -10 4 -5 0 -10
-5 -10 -11z"/>
<path d="M5472 3295 c-54 -25 -113 -63 -79 -51 15 5 18 1 15 -17 -2 -12 -9
-21 -16 -19 -8 1 -11 -1 -9 -5 3 -5 -10 -24 -29 -43 l-34 -34 1 39 c1 35 2 37
9 15 8 -24 8 -23 9 8 1 34 16 44 24 15 3 -11 5 -7 6 10 1 24 -1 26 -18 17 -38
-20 -147 -112 -183 -155 l-38 -43 -67 34 c-88 44 -133 54 -134 28 0 -14 -2
-15 -6 -4 -7 18 -24 30 -34 24 -4 -2 20 -30 53 -61 33 -32 82 -91 110 -133 28
-41 47 -64 43 -50 -4 14 -11 27 -14 30 -26 19 -41 60 -41 113 0 79 19 65 22
-16 l2 -62 3 58 c2 31 8 57 13 57 6 0 10 -4 10 -10 0 -5 6 -10 14 -10 11 0 14
-9 10 -37 -4 -40 -1 -37 12 12 7 26 9 20 14 -40 l6 -70 2 75 c2 66 5 78 27 99
l25 23 0 -60 c0 -88 -14 -111 -21 -37 l-6 60 0 -71 c1 -47 -3 -77 -12 -88 -8
-9 -12 -18 -9 -21 2 -2 21 24 41 59 54 95 149 208 241 288 130 114 131 115 38
73z m18 -9 c0 -3 -4 -8 -10 -11 -5 -3 -10 -1 -10 4 0 6 5 11 10 11 6 0 10 -2
10 -4z m-46 -41 c-11 -8 -20 -10 -23 -4 -1 6 5 16 15 24 11 8 20 10 23 4 1 -6
-5 -16 -15 -24z m-133 -91 c3 -31 -17 -68 -63 -116 -10 -10 -18 -22 -18 -27 0
-6 -4 -13 -10 -16 -6 -4 -10 18 -10 59 0 71 16 91 23 29 l4 -38 1 43 c2 37 19
72 36 72 2 0 7 -15 9 -32 3 -30 4 -29 5 8 1 22 5 44 9 47 9 10 11 6 14 -29z
m-364 -86 c-3 -7 -5 -2 -5 12 0 14 2 19 5 13 2 -7 2 -19 0 -25z m54 -12 c2
-30 2 -30 6 -3 7 47 23 30 23 -25 l0 -52 -35 34 c-40 41 -50 92 -15 83 14 -4
20 -14 21 -37z"/>
<path d="M5252 3095 c0 -16 2 -22 5 -12 2 9 2 23 0 30 -3 6 -5 -1 -5 -18z"/>
<path d="M7402 3297 c-15 -34 -16 -67 -2 -67 13 0 23 41 18 71 -4 24 -5 24
-16 -4z"/>
<path d="M3804 3270 c-34 -22 -76 -78 -93 -123 -17 -43 -13 -129 5 -156 49
-69 231 -69 367 1 22 11 37 21 35 23 -2 2 -40 -7 -83 -21 -210 -64 -328 -29
-311 94 12 92 92 182 162 182 37 0 86 -36 109 -81 18 -34 19 -91 3 -107 -35
-35 -78 7 -78 76 l0 43 -37 -7 c-50 -8 -73 -32 -80 -81 -10 -78 37 -110 78
-54 l21 29 23 -26 c20 -23 26 -25 56 -16 62 18 75 97 28 172 -41 69 -140 94
-205 52z m86 -126 c0 -21 -39 -94 -49 -94 -13 0 -22 45 -14 67 16 45 63 65 63
27z"/>
<path d="M5952 3270 c-70 -43 -84 -172 -25 -231 50 -51 154 -52 212 -3 84 71
53 200 -55 231 -82 24 -98 24 -132 3z"/>
<path d="M1140 3260 c-8 -5 -12 -12 -9 -15 4 -3 12 1 19 10 14 17 11 19 -10 5z"/>
<path d="M1308 3254 c-15 -8 -33 -24 -39 -36 -11 -21 -11 -21 18 2 17 14 39
30 49 37 27 17 4 15 -28 -3z"/>
<path d="M1441 3248 c0 -9 -4 -25 -7 -35 -5 -17 -5 -17 6 0 6 10 9 25 7 35 -4
15 -5 15 -6 0z"/>
<path d="M4208 3249 c-22 -13 -23 -52 -2 -73 20 -20 27 -20 55 3 20 16 22 23
14 47 -11 31 -39 41 -67 23z m47 -19 c7 -23 -1 -40 -20 -40 -8 0 -17 5 -20 10
-9 15 4 50 20 50 8 0 16 -9 20 -20z"/>
<path d="M1307 3218 c-26 -18 -47 -36 -47 -40 0 -6 76 46 99 68 15 14 -12 -1
-52 -28z"/>
<path d="M1136 3225 c-8 -8 -21 -13 -28 -10 -8 3 -27 -9 -43 -27 l-30 -33 32
29 c56 50 50 18 -7 -39 -35 -36 -58 -51 -64 -45 -6 6 -1 19 15 37 21 25 22 26
2 9 -32 -27 -29 -8 5 27 24 26 24 28 5 18 -40 -20 -57 -77 -30 -99 10 -9 31 7
92 68 44 44 77 80 73 80 -4 0 -13 -7 -22 -15z"/>
<path d="M1379 3203 l-34 -38 40 35 c22 19 42 36 44 38 2 1 0 2 -5 2 -6 0 -26
-17 -45 -37z"/>
<path d="M1095 3145 c-77 -71 -79 -74 -50 -74 28 0 82 17 61 18 -6 1 6 18 25
38 32 35 31 35 -13 -5 -26 -23 -56 -42 -65 -42 -12 0 8 24 57 70 41 38 73 69
70 69 -3 0 -41 -33 -85 -74z"/>
<path d="M1384 3178 l-29 -33 33 29 c30 28 37 36 29 36 -2 0 -16 -15 -33 -32z"/>
<path d="M1399 3163 l-24 -28 28 24 c25 23 32 31 24 31 -2 0 -14 -12 -28 -27z"/>
<path d="M1170 3162 c0 -10 -7 -29 -16 -42 l-16 -25 21 24 c19 21 29 61 16 61
-3 0 -5 -8 -5 -18z"/>
<path d="M1271 3161 c-19 -12 -7 -28 26 -34 31 -6 53 1 53 15 0 6 -7 4 -17 -3
-11 -10 -17 -11 -20 -3 -2 7 -14 9 -26 6 -20 -5 -20 -4 -8 11 15 19 13 21 -8
8z"/>
<path d="M7346 3107 c-13 -20 -16 -31 -8 -39 13 -13 35 24 30 50 -3 14 -7 11
-22 -11z"/>
<path d="M6415 3091 c-93 -24 -182 -100 -221 -188 -31 -69 -44 -181 -23 -194
15 -10 513 -12 569 -3 l36 6 -7 71 c-12 123 -75 230 -166 280 -53 29 -138 41
-188 28z m131 -199 c81 -156 83 -163 59 -160 -21 3 -32 18 -68 98 -24 52 -60
121 -80 153 -42 66 -45 80 -17 75 16 -2 43 -45 106 -166z m28 103 c17 -33 53
-106 78 -162 l47 -103 -28 0 c-25 0 -29 6 -45 58 -10 31 -42 103 -72 159 -30
56 -54 105 -54 108 0 4 10 5 21 3 14 -2 32 -23 53 -63z m-170 12 c10 -17 42
-75 70 -127 29 -52 60 -107 70 -122 l18 -28 -26 0 c-22 0 -30 7 -42 38 -21 50
-82 168 -111 214 -12 21 -23 42 -23 48 0 22 26 8 44 -23z m245 -22 c46 -53 82
-134 105 -238 6 -25 4 -28 -15 -25 -18 2 -27 18 -49 88 -15 47 -41 113 -58
148 -36 69 -30 80 17 27z m-257 -85 c33 -58 68 -119 79 -137 l21 -33 -21 0
c-14 0 -26 13 -39 43 -10 23 -44 82 -76 130 -51 80 -62 114 -34 105 6 -2 38
-51 70 -108z m-55 -27 c32 -49 66 -100 76 -115 l19 -28 -26 0 c-22 0 -30 10
-55 63 -16 34 -44 86 -61 115 -52 86 -14 59 47 -35z m-87 39 c0 -5 24 -48 54
-95 45 -72 51 -87 36 -87 -11 0 -22 10 -26 23 -4 12 -24 49 -45 81 -39 60 -48
86 -29 86 6 0 10 -4 10 -8z m20 -144 c20 -36 20 -38 3 -38 -13 0 -27 18 -45
54 -45 92 -11 78 42 -16z m-60 -18 c9 -16 8 -20 -5 -20 -8 0 -15 9 -15 20 0
11 2 20 5 20 2 0 9 -9 15 -20z"/>
<path d="M7198 2982 c-24 -15 -39 -42 -23 -42 8 0 85 50 85 55 0 10 -36 2 -62
-13z"/>
<path d="M5934 2956 c-59 -27 -95 -70 -118 -139 -23 -67 -21 -104 6 -118 25
-13 287 -4 302 11 4 4 12 46 17 92 4 45 9 94 11 107 2 19 -5 31 -31 48 -46 31
-119 31 -187 -1z"/>
<path d="M3184 2918 c3 -18 8 -72 12 -120 4 -49 10 -88 15 -88 5 0 6 -8 2 -17
-5 -14 0 -12 20 6 15 14 29 23 30 20 2 -2 17 -26 32 -54 16 -27 30 -52 31 -54
2 -2 19 7 38 19 35 21 35 22 19 46 -12 19 -18 22 -24 12 -13 -20 -11 -31 6
-24 20 7 19 -4 -2 -20 -28 -21 -38 -17 -56 21 -20 41 -21 49 -7 40 13 -8 13 5
0 25 -8 13 -10 12 -10 -3 0 -10 -4 -15 -10 -12 -5 3 -9 20 -8 38 1 18 -2 52
-6 76 -6 30 -5 41 2 37 6 -4 14 -27 18 -53 4 -31 15 -54 33 -70 14 -14 20 -22
14 -18 -17 8 -16 -13 1 -30 25 -25 30 15 6 47 l-21 28 41 0 c25 0 39 4 35 10
-4 6 -11 7 -17 4 -6 -4 -8 -3 -5 3 6 10 -166 163 -184 163 -7 0 -9 -12 -5 -32z
m66 -41 c0 -6 -11 0 -25 13 -14 13 -25 28 -25 33 0 6 11 0 25 -13 14 -13 25
-28 25 -33z m-20 -35 c0 -7 -4 -10 -10 -7 -5 3 -10 16 -10 28 0 18 2 19 10 7
5 -8 10 -21 10 -28z m90 -12 c0 -5 -2 -10 -4 -10 -3 0 -8 5 -11 10 -3 6 -1 10
4 10 6 0 11 -4 11 -10z m-62 -69 c-2 -13 -10 -27 -18 -29 -13 -4 -13 -3 -2 11
9 11 11 21 4 33 -5 9 -7 26 -4 37 5 19 6 19 14 -3 5 -13 8 -35 6 -49z m59 27
c-3 -8 -6 -5 -6 6 -1 11 2 17 5 13 3 -3 4 -12 1 -19z"/>
<path d="M6830 2941 c0 -11 61 -33 69 -25 9 8 -30 34 -51 34 -10 0 -18 -4 -18
-9z"/>
<path d="M6990 2915 c0 -16 43 -21 75 -9 24 10 -1 24 -42 24 -23 0 -33 -5 -33
-15z"/>
<path d="M5137 2846 c-4 -10 -13 -13 -23 -9 -14 5 -15 3 -4 -17 l13 -24 14 28
c8 15 13 30 10 32 -2 3 -7 -2 -10 -10z"/>
<path d="M1373 2796 c-12 -24 -36 -60 -54 -80 -17 -20 -29 -39 -26 -42 10 -10
46 16 64 46 9 17 20 30 24 30 4 0 5 -60 2 -132 -4 -106 -2 -146 12 -197 24
-93 66 -171 132 -242 72 -77 139 -121 236 -154 134 -45 327 -29 422 35 38 25
36 25 -60 -5 -44 -14 -112 -28 -152 -32 -309 -26 -575 233 -572 557 0 36 4 74
8 85 7 18 9 18 26 -8 10 -15 27 -33 38 -39 20 -10 20 -10 0 18 -36 51 -57 98
-68 152 l-11 53 -21 -45z"/>
<path d="M4615 2746 c24 -42 25 -48 9 -41 -11 5 -59 10 -107 13 -80 4 -93 2
-142 -23 -30 -14 -55 -33 -55 -41 0 -19 7 -18 41 6 41 30 122 44 202 36 72 -8
86 -20 36 -30 -19 -3 -29 -11 -26 -18 2 -7 11 -11 18 -9 8 3 39 7 70 10 l57 6
-65 70 -65 70 27 -49z"/>
<path d="M3873 2720 c-96 -20 -184 -87 -231 -175 -23 -43 -27 -62 -27 -140 0
-79 4 -97 28 -147 70 -142 247 -213 400 -161 l58 20 21 -30 21 -29 13 23 c22
40 87 210 82 215 -3 2 -25 -46 -49 -108 -24 -62 -45 -105 -47 -96 -4 21 56
200 71 210 5 3 -26 9 -69 12 -43 4 -94 9 -111 12 -38 6 -39 4 -18 -37 9 -16
13 -34 10 -39 -3 -5 -29 -12 -59 -15 -76 -10 -135 18 -176 81 -48 76 -37 156
29 218 58 55 160 45 250 -25 58 -46 131 -7 117 62 -10 50 -43 86 -109 118 -69
33 -140 44 -204 31z m51 -75 c-39 -56 -69 -83 -80 -72 -2 2 14 29 37 61 23 32
39 59 37 62 -5 5 -88 -110 -88 -121 0 -4 -16 -25 -34 -47 -19 -22 -38 -54 -42
-70 -3 -17 -29 -65 -58 -106 -42 -63 -52 -72 -54 -54 -2 16 28 74 92 175 53
84 105 168 117 187 l21 35 -24 -27 c-13 -15 -66 -95 -118 -178 -51 -82 -97
-150 -102 -150 -17 0 -7 41 23 92 61 103 179 267 197 271 9 2 40 4 68 5 l52 0
-44 -63z m105 54 c17 -6 31 -13 31 -15 0 -3 -18 -29 -41 -59 -26 -34 -46 -52
-55 -48 -11 4 -6 17 22 57 l36 51 -41 -45 c-22 -25 -41 -48 -41 -52 0 -9 -40
-11 -40 -2 0 11 81 124 89 124 4 0 22 -5 40 -11z m-233 -28 c-3 -5 -44 -65
-91 -135 -57 -85 -85 -119 -85 -104 0 13 30 63 66 112 36 48 63 90 61 93 -3 2
-27 -25 -53 -61 -50 -68 -66 -79 -40 -28 22 42 83 105 95 98 6 -4 15 3 21 14
6 11 15 20 21 20 6 0 8 -4 5 -9z m341 -34 c12 -11 27 -35 34 -54 15 -46 -7
-82 -51 -81 -33 1 -35 -6 15 71 29 46 8 30 -26 -19 -21 -31 -35 -42 -41 -36
-7 7 -2 21 15 44 13 18 30 44 36 58 l12 25 -21 -25 c-11 -14 -28 -37 -37 -52
-19 -30 -28 -34 -38 -17 -4 6 2 20 13 32 10 12 27 36 37 52 16 28 15 28 -12
-4 -15 -19 -35 -44 -45 -55 -9 -12 -20 -18 -24 -14 -4 5 10 33 30 63 41 59 50
60 103 12z m-373 -305 c3 -6 -10 -36 -30 -67 -19 -31 -33 -59 -30 -62 2 -3 19
21 37 52 l32 56 41 -40 c23 -23 47 -41 54 -41 16 0 16 -2 -15 -65 -41 -82 -61
-71 -23 13 10 23 17 42 14 42 -3 0 -15 -22 -28 -49 -17 -37 -26 -47 -36 -41
-12 7 -11 17 8 56 13 25 21 48 19 51 -3 2 -15 -16 -27 -41 -12 -26 -26 -46
-31 -46 -13 0 -12 5 21 70 38 76 32 78 -11 4 l-32 -56 -25 25 -25 25 24 39
c12 21 30 49 38 63 9 13 11 21 4 17 -6 -4 -24 -27 -40 -52 -15 -25 -31 -45
-35 -45 -19 0 -4 43 34 101 l42 63 7 -30 c3 -17 9 -36 13 -42z m276 -32 c0 -5
-4 -10 -10 -10 -5 0 -10 5 -10 10 0 6 5 10 10 10 6 0 10 -4 10 -10z m40 8 c0
-12 -73 -205 -80 -212 -25 -26 -20 13 13 94 20 49 37 96 37 105 0 8 7 15 15
15 8 0 15 -1 15 -2z m109 -14 c2 -2 -8 -31 -21 -66 -14 -35 -28 -76 -32 -92
-5 -19 -10 -26 -17 -19 -7 7 -1 33 16 78 14 37 24 70 21 72 -5 5 -46 -93 -46
-111 0 -8 -9 -20 -20 -26 -28 -15 -26 5 5 82 14 34 23 63 21 65 -3 3 -30 -59
-67 -154 -5 -13 -14 -23 -20 -23 -6 0 -8 6 -6 13 3 6 20 54 37 105 l32 94 47
-7 c25 -4 48 -9 50 -11z m-194 -116 c-14 -29 -25 -61 -25 -70 0 -11 -8 -18
-20 -18 -24 0 -24 -5 0 64 24 72 27 76 50 76 18 0 18 -3 -5 -52z m-75 38 c0
-19 -55 -116 -66 -116 -18 0 -18 -2 11 64 14 32 31 56 40 56 8 0 15 -2 15 -4z
m35 -18 c-18 -58 -46 -109 -57 -105 -15 5 -13 16 14 80 21 48 56 69 43 25z"/>
<path d="M4136 2544 c-10 -14 -16 -28 -13 -30 2 -3 12 7 21 22 10 14 16 28 13
30 -2 3 -12 -7 -21 -22z"/>
<path d="M1802 2683 c2 -28 9 -41 28 -50 19 -10 153 -13 575 -13 614 0 595 -2
595 66 l0 34 -601 0 -600 0 3 -37z m49 10 c13 -16 12 -17 -3 -4 -17 13 -22 21
-14 21 2 0 10 -8 17 -17z m58 -19 c12 -20 20 -38 18 -41 -4 -4 -47 63 -47 73
0 11 10 1 29 -32z m38 -11 c2 3 0 15 -7 26 -6 13 -7 21 -1 21 12 0 23 -32 18
-51 -2 -8 -2 -10 1 -6 2 4 11 2 20 -5 13 -11 12 -7 -2 20 -10 19 -15 36 -12
40 7 6 7 7 29 -38 17 -33 18 -20 3 25 -4 11 2 4 13 -15 11 -19 20 -38 21 -41
0 -3 -20 -6 -44 -6 -40 -1 -45 2 -60 33 -20 44 -20 59 0 21 9 -16 18 -27 21
-24z m96 7 c8 -22 14 -40 11 -40 -2 0 -13 18 -24 40 -11 22 -16 40 -12 40 5 0
16 -18 25 -40z m17 19 c0 -6 -4 -7 -10 -4 -5 3 -10 11 -10 16 0 6 5 7 10 4 6
-3 10 -11 10 -16z m55 -15 c8 -20 15 -39 15 -43 -1 -8 -39 61 -40 72 -1 18 11
4 25 -29z m28 -6 c9 -21 13 -38 8 -38 -7 0 -31 58 -31 75 0 13 7 3 23 -37z
m17 21 c0 -6 -4 -7 -10 -4 -5 3 -10 11 -10 16 0 6 5 7 10 4 6 -3 10 -11 10
-16z m57 -39 c7 0 13 -4 13 -10 0 -5 -9 -10 -20 -10 -11 0 -20 6 -20 13 0 9
-2 9 -8 0 -4 -6 -8 7 -8 30 l-1 42 15 -32 c9 -18 22 -33 29 -33z m68 23 c8
-20 13 -38 10 -41 -4 -4 -35 59 -35 73 0 15 12 1 25 -32z m340 7 c22 -43 18
-61 -5 -20 -11 19 -19 38 -20 43 0 15 10 6 25 -23z m41 -47 c-6 -6 -36 52 -36
69 1 7 10 -4 21 -25 11 -22 18 -41 15 -44z m86 2 c-3 -5 -12 4 -18 20 -20 46
-15 64 5 25 11 -19 16 -39 13 -45z m21 39 c11 -21 13 -34 6 -32 -13 4 -42 68
-30 68 4 0 15 -16 24 -36z m20 19 c2 -10 8 -27 12 -38 4 -11 -2 -7 -14 10 -23
32 -26 45 -12 45 5 0 11 -8 14 -17z m55 -23 c6 -16 7 -30 3 -30 -5 0 -11 8
-14 18 -2 9 -8 26 -13 36 -5 13 -4 17 3 13 6 -4 16 -20 21 -37z m67 10 c17
-34 18 -40 6 -40 -5 0 -11 8 -14 18 -2 9 -8 25 -12 35 -12 28 3 19 20 -13z
m49 1 c14 -26 14 -30 -1 -35 -9 -4 -18 -4 -21 -1 -3 3 0 5 7 5 8 0 11 6 7 15
-3 8 -9 22 -12 30 -11 27 5 16 20 -14z m26 8 c0 -5 -4 -9 -10 -9 -5 0 -10 7
-10 16 0 8 5 12 10 9 6 -3 10 -10 10 -16z m-892 -31 c6 -16 8 -28 3 -28 -5 0
-11 8 -14 18 -2 9 -8 26 -12 37 -12 30 9 6 23 -27z m300 22 c53 0 81 -4 77
-10 -3 -5 -35 -10 -70 -10 -65 0 -115 15 -115 34 0 6 5 5 12 -2 7 -7 44 -12
96 -12z m211 -40 c0 -8 -6 0 -14 19 -8 18 -15 36 -15 40 1 13 29 -45 29 -59z
m-340 1 c0 -14 -1 -14 -6 -1 -3 8 -10 24 -15 35 -9 20 -9 20 6 1 9 -11 16 -27
15 -35z m461 -5 c0 -18 -17 8 -24 34 l-7 25 15 -25 c9 -14 15 -29 16 -34z
m-650 -1 c0 -5 -5 -3 -10 5 -5 8 -10 20 -10 25 0 6 5 3 10 -5 5 -8 10 -19 10
-25z m420 9 c0 -8 -4 -12 -10 -9 -5 3 -10 10 -10 16 0 5 5 9 10 9 6 0 10 -7
10 -16z m50 1 c5 3 11 1 15 -5 3 -5 -3 -10 -14 -10 -14 0 -21 6 -20 18 0 10 3
12 6 4 2 -6 9 -10 13 -7z m38 -10 c-3 -3 -9 2 -12 12 -6 14 -5 15 5 6 7 -7 10
-15 7 -18z m-138 5 c0 -5 -2 -10 -4 -10 -3 0 -8 5 -11 10 -3 6 -1 10 4 10 6 0
11 -4 11 -10z"/>
<path d="M5604 2655 c20 -25 42 -69 51 -97 15 -53 19 -163 6 -208 l-7 -25 -12
23 c-24 43 -29 22 -8 -32 22 -57 25 -58 71 -22 19 15 19 16 -9 6 -16 -6 -31
-8 -34 -6 -2 3 3 26 12 52 31 90 16 206 -37 295 -18 30 -40 55 -50 57 -14 3
-10 -7 17 -43z"/>
<path d="M3310 2683 c0 -5 7 -17 15 -27 15 -20 20 -10 9 18 -6 16 -24 22 -24
9z"/>
<path d="M5313 2621 c-3 -14 -13 -19 -31 -18 -24 2 -27 -2 -27 -28 -1 -23 -6
-31 -23 -33 -27 -4 -31 -47 -4 -57 14 -5 15 -4 5 6 -20 20 -15 37 10 41 17 2
22 10 22 33 0 27 3 30 28 27 22 -3 30 1 34 17 5 21 33 30 33 11 0 -5 9 -10 19
-10 11 0 23 5 26 10 10 17 25 11 35 -12 l9 -23 0 22 c1 26 -33 40 -55 22 -11
-9 -18 -9 -26 -1 -18 18 -49 14 -55 -7z"/>
<path d="M5465 2589 c-4 -6 0 -9 11 -7 13 2 19 -3 20 -17 1 -11 2 -26 3 -32 1
-7 7 -13 15 -13 23 0 31 -22 13 -35 -21 -15 -22 -31 -2 -39 23 -8 18 -25 -10
-36 -20 -8 -25 -16 -23 -37 3 -25 0 -28 -25 -25 -22 2 -30 -2 -34 -17 -6 -23
-38 -29 -46 -8 -3 7 -6 6 -6 -5 -1 -9 3 -20 9 -23 14 -9 50 13 50 31 0 10 7
13 24 8 26 -6 41 8 41 41 0 11 5 19 12 18 7 -2 17 7 23 18 9 16 8 25 -6 40
-15 17 -15 19 0 25 23 9 20 45 -5 51 -15 4 -19 11 -15 26 9 35 -32 65 -49 36z"/>
<path d="M5330 2520 c-11 -11 -20 -25 -20 -31 0 -7 11 0 25 15 29 31 58 33 85
6 27 -27 25 -55 -6 -79 -35 -27 -40 -27 -75 8 -16 16 -29 25 -29 20 0 -18 49
-59 70 -59 29 0 70 44 70 75 0 34 -33 65 -70 65 -17 0 -39 -9 -50 -20z"/>
<path d="M5940 2475 c-13 -14 -22 -26 -19 -28 2 -1 16 10 31 25 15 15 23 28
19 28 -4 0 -18 -11 -31 -25z"/>
<path d="M6181 2497 c2 -1 13 -9 24 -17 19 -14 19 -14 6 3 -7 9 -18 17 -24 17
-6 0 -8 -1 -6 -3z"/>
<path d="M5213 2462 c-19 -12 -4 -52 19 -52 15 0 18 -5 13 -20 -8 -26 12 -52
36 -45 13 4 18 0 21 -17 4 -28 39 -36 58 -13 7 9 8 15 2 15 -6 0 -12 -5 -14
-12 -2 -6 -12 -9 -21 -5 -10 4 -14 12 -11 22 6 15 2 17 -41 19 -16 1 -19 7
-17 29 2 22 -2 30 -17 34 -23 6 -27 23 -9 41 13 13 0 16 -19 4z"/>
<path d="M6238 2453 c6 -2 18 -2 25 0 6 3 1 5 -13 5 -14 0 -19 -2 -12 -5z"/>
<path d="M6280 2446 c0 -2 8 -10 18 -17 15 -13 16 -12 3 4 -13 16 -21 21 -21
13z"/>
<path d="M4970 2415 c-11 -28 -31 -32 -51 -9 -8 10 -21 13 -38 9 -40 -10 -51
-23 -41 -50 12 -31 -8 -47 -48 -39 -27 5 -33 3 -43 -19 -9 -20 -8 -30 5 -48
30 -43 16 -69 -35 -69 -15 0 -19 -7 -19 -34 0 -30 4 -35 30 -41 36 -8 40 -37
9 -59 l-22 -15 20 -33 c11 -18 26 -31 34 -29 39 10 44 6 44 -33 0 -52 30 -74
76 -56 32 14 45 8 51 -25 2 -15 12 -21 40 -23 32 -3 38 1 52 29 9 18 16 33 16
33 0 1 -8 2 -18 2 -13 0 -17 -6 -14 -22 5 -28 -14 -40 -35 -22 -14 11 -16 11
-9 -1 6 -9 5 -12 -4 -9 -7 2 -15 15 -17 27 -2 18 0 21 10 15 7 -5 2 1 -12 13
-13 11 -30 19 -38 16 -7 -3 -21 1 -31 8 -15 12 -15 12 -5 -1 7 -10 8 -21 3
-30 -7 -12 -12 -11 -29 4 -23 21 -28 46 -10 46 8 0 9 4 0 13 -6 8 -9 16 -6 19
3 3 -5 13 -17 24 -12 10 -18 14 -15 8 9 -15 -25 -24 -47 -12 -9 5 -16 18 -16
28 0 22 10 25 28 10 8 -7 9 -7 3 1 -10 13 -2 61 10 53 5 -3 9 -3 9 0 0 2 -15
14 -34 26 -22 13 -34 28 -33 41 1 11 7 17 14 15 7 -3 15 -1 19 5 4 6 12 6 22
-3 14 -10 15 -10 5 2 -7 7 -9 20 -5 29 12 26 8 49 -10 63 -15 11 -15 15 -3 32
15 19 15 19 40 -4 17 -16 24 -19 20 -9 -8 21 22 34 41 18 11 -9 11 -5 -1 17
-20 38 -19 49 3 33 15 -12 15 -11 -1 8 -18 21 -18 21 3 28 12 4 28 1 37 -7 9
-7 30 -13 47 -13 27 0 31 3 31 25 0 21 5 25 33 27 20 1 32 -3 31 -10 -3 -26 2
-48 9 -43 5 3 7 19 4 36 -4 28 -7 30 -43 30 -33 0 -41 -4 -49 -25z"/>
<path d="M2683 2423 c9 -2 25 -2 35 0 9 3 1 5 -18 5 -19 0 -27 -2 -17 -5z"/>
<path d="M5955 2419 c-4 -6 -5 -12 -2 -15 2 -3 7 2 10 11 7 17 1 20 -8 4z"/>
<path d="M5010 2406 c0 -2 8 -10 18 -17 15 -13 16 -12 3 4 -13 16 -21 21 -21
13z"/>
<path d="M5120 2395 c-7 -8 -19 -15 -27 -15 -8 0 -12 -4 -8 -9 3 -6 14 -9 25
-8 10 1 16 5 14 9 -3 5 2 11 11 14 24 10 44 -16 38 -49 -5 -27 -6 -27 -24 -11
-11 9 -19 15 -19 12 0 -3 21 -23 47 -44 26 -21 44 -34 40 -27 -9 14 23 27 37
13 5 -5 11 -19 13 -31 3 -19 1 -20 -12 -9 -13 11 -14 10 -10 -3 4 -8 1 -18 -4
-22 -6 -3 -8 -11 -5 -17 4 -6 1 -9 -7 -6 -8 3 -14 10 -14 16 0 5 -3 13 -7 17
-3 4 -5 0 -4 -9 1 -9 20 -31 41 -49 22 -17 35 -26 31 -18 -6 9 -5 12 5 9 9 -3
13 -15 11 -34 -5 -40 -8 -41 -39 -13 -25 22 -26 22 -9 2 20 -24 10 -32 -14
-10 -12 10 -12 9 -2 -4 7 -9 10 -24 6 -32 -3 -9 1 -26 9 -38 12 -17 13 -27 4
-46 -9 -21 -16 -24 -43 -19 -38 8 -59 -12 -50 -48 7 -29 -18 -43 -43 -24 -14
12 -14 11 -2 -4 9 -12 10 -18 2 -18 -6 0 -16 11 -21 25 -12 30 -20 33 -15 4 8
-42 23 -50 62 -31 29 14 34 20 29 43 -7 35 9 49 49 42 28 -4 33 -2 44 25 11
26 10 34 -3 53 -18 26 -6 49 24 49 17 0 30 26 30 62 0 9 -13 21 -30 27 -35 12
-38 27 -10 56 28 30 8 69 -40 73 -41 4 -53 18 -38 46 9 16 6 24 -16 43 -32 27
-39 28 -56 8z"/>
<path d="M6001 2384 c-12 -15 -21 -34 -21 -43 1 -9 7 -2 14 15 8 18 22 37 33
43 10 6 13 11 6 11 -6 0 -21 -12 -32 -26z"/>
<path d="M4870 2386 c0 -2 8 -10 18 -17 15 -13 16 -12 3 4 -13 16 -21 21 -21
13z"/>
<path d="M5045 2350 c10 -11 20 -20 23 -20 3 0 -3 9 -13 20 -10 11 -20 20 -23
20 -3 0 3 -9 13 -20z"/>
<path d="M6420 2365 c0 -5 5 -17 10 -25 5 -8 10 -10 10 -5 0 6 -5 17 -10 25
-5 8 -10 11 -10 5z"/>
<path d="M5000 2335 c13 -14 26 -25 28 -25 3 0 -5 11 -18 25 -13 14 -26 25
-28 25 -3 0 5 -11 18 -25z"/>
<path d="M5025 2340 c10 -11 20 -20 23 -20 3 0 -3 9 -13 20 -10 11 -20 20 -23
20 -3 0 3 -9 13 -20z"/>
<path d="M5070 2356 c0 -2 8 -10 18 -17 15 -13 16 -12 3 4 -13 16 -21 21 -21
13z"/>
<path d="M2409 2323 l-24 -28 28 24 c25 23 32 31 24 31 -2 0 -14 -12 -28 -27z"/>
<path d="M4870 2336 c0 -2 8 -10 18 -17 15 -13 16 -12 3 4 -13 16 -21 21 -21
13z"/>
<path d="M4900 2336 c0 -2 8 -10 18 -17 15 -13 16 -12 3 4 -13 16 -21 21 -21
13z"/>
<path d="M4930 2336 c0 -2 8 -10 18 -17 15 -13 16 -12 3 4 -13 16 -21 21 -21
13z"/>
<path d="M4970 2336 c0 -2 8 -10 18 -17 15 -13 16 -12 3 4 -13 16 -21 21 -21
13z"/>
<path d="M6336 2327 c3 -10 9 -15 12 -12 3 3 0 11 -7 18 -10 9 -11 8 -5 -6z"/>
<path d="M4529 2294 c-13 -15 -37 -35 -54 -45 -18 -11 -23 -19 -14 -19 8 0 34
16 56 35 23 20 44 32 46 28 3 -5 10 -27 16 -50 7 -24 15 -43 20 -43 4 0 -1 27
-12 60 -11 33 -23 60 -27 60 -3 0 -17 -12 -31 -26z"/>
<path d="M5140 2295 c13 -14 26 -25 28 -25 3 0 -5 11 -18 25 -13 14 -26 25
-28 25 -3 0 5 -11 18 -25z"/>
<path d="M6392 2295 c0 -16 2 -22 5 -12 2 9 2 23 0 30 -3 6 -5 -1 -5 -18z"/>
<path d="M4970 2306 c0 -2 8 -10 18 -17 15 -13 16 -12 3 4 -13 16 -21 21 -21
13z"/>
<path d="M4920 2296 c0 -2 8 -10 18 -17 15 -13 16 -12 3 4 -13 16 -21 21 -21
13z"/>
<path d="M5063 2283 c24 -28 5 -41 -28 -19 -16 10 -25 12 -25 5 0 -6 -6 -9
-14 -6 -18 7 -72 -26 -86 -54 -19 -34 -29 -78 -21 -84 5 -2 11 13 15 34 12 74
88 111 156 76 57 -29 68 -102 24 -154 -44 -52 -126 -49 -166 7 -7 10 -22 22
-33 26 -16 6 -14 1 8 -22 16 -17 30 -34 30 -39 1 -4 5 -7 10 -5 4 1 26 -7 50
-19 23 -12 39 -18 35 -14 -10 11 71 47 86 38 6 -3 8 -3 4 2 -4 4 -2 17 4 29
17 31 17 88 1 114 -7 12 -10 22 -7 22 4 0 0 8 -9 18 -10 10 -15 21 -12 24 3 3
-5 13 -17 24 l-23 19 18 -22z"/>
<path d="M5114 2283 c2 -9 11 -17 20 -19 17 -2 17 -2 0 17 -21 23 -23 23 -20
2z"/>
<path d="M3057 2226 c4 -51 2 -69 -15 -103 -28 -54 -93 -108 -154 -129 -47
-15 -49 -17 -33 -35 24 -25 114 -43 160 -30 27 7 44 6 71 -5 19 -8 56 -16 82
-19 26 -2 56 -6 67 -10 13 -4 10 1 -10 17 -16 12 -40 33 -52 46 l-22 24 39 36
c52 50 60 95 29 159 -24 49 -71 84 -138 103 l-30 8 6 -62z"/>
<path d="M4790 2286 c0 -2 8 -10 18 -17 15 -13 16 -12 3 4 -13 16 -21 21 -21
13z"/>
<path d="M6323 2263 c-12 -13 -19 -23 -14 -23 10 0 46 39 40 43 -2 2 -14 -7
-26 -20z"/>
<path d="M6431 2274 c0 -11 3 -14 6 -6 3 7 2 16 -1 19 -3 4 -6 -2 -5 -13z"/>
<path d="M5180 2266 c0 -2 8 -10 18 -17 15 -13 16 -12 3 4 -13 16 -21 21 -21
13z"/>
<path d="M4870 2256 c0 -2 8 -10 18 -17 15 -13 16 -12 3 4 -13 16 -21 21 -21
13z"/>
<path d="M5100 2256 c0 -2 8 -10 18 -17 15 -13 16 -12 3 4 -13 16 -21 21 -21
13z"/>
<path d="M4543 2210 c0 -25 2 -35 4 -22 2 12 2 32 0 45 -2 12 -4 2 -4 -23z"/>
<path d="M6088 2243 c6 -2 18 -2 25 0 6 3 1 5 -13 5 -14 0 -19 -2 -12 -5z"/>
<path d="M5140 2195 c13 -14 26 -25 28 -25 3 0 -5 11 -18 25 -13 14 -26 25
-28 25 -3 0 5 -11 18 -25z"/>
<path d="M5150 2216 c0 -2 8 -10 18 -17 15 -13 16 -12 3 4 -13 16 -21 21 -21
13z"/>
<path d="M6195 2210 c-4 -6 -10 -8 -15 -5 -4 3 -10 -5 -13 -16 -6 -21 -5 -21
19 2 13 12 24 24 24 26 0 7 -9 3 -15 -7z"/>
<path d="M5190 2186 c0 -2 8 -10 18 -17 15 -13 16 -12 3 4 -13 16 -21 21 -21
13z"/>
<path d="M4800 2166 c0 -2 8 -10 18 -17 15 -13 16 -12 3 4 -13 16 -21 21 -21
13z"/>
<path d="M5140 2166 c0 -2 8 -10 18 -17 15 -13 16 -12 3 4 -13 16 -21 21 -21
13z"/>
<path d="M5195 2150 c10 -11 20 -20 23 -20 3 0 -3 9 -13 20 -10 11 -20 20 -23
20 -3 0 3 -9 13 -20z"/>
<path d="M5180 2136 c0 -2 8 -10 18 -17 15 -13 16 -12 3 4 -13 16 -21 21 -21
13z"/>
<path d="M4830 2116 c0 -2 8 -10 18 -17 15 -13 16 -12 3 4 -13 16 -21 21 -21
13z"/>
<path d="M2954 2088 l-19 -23 23 19 c21 18 27 26 19 26 -2 0 -12 -10 -23 -22z"/>
<path d="M4810 2106 c0 -2 8 -10 18 -17 15 -13 16 -12 3 4 -13 16 -21 21 -21
13z"/>
<path d="M5700 2096 c0 -8 -12 -17 -26 -20 -39 -10 -74 -50 -74 -86 0 -33 46
-90 72 -90 7 1 1 7 -14 16 -32 17 -48 43 -48 76 1 32 21 55 64 73 20 8 36 20
36 25 0 15 26 12 40 -5 7 -8 22 -14 34 -14 19 2 19 2 -2 6 -13 3 -26 11 -29
19 -7 18 -53 19 -53 0z"/>
<path d="M4556 2055 c3 -22 10 -44 15 -50 11 -11 3 35 -13 70 -5 13 -6 7 -2
-20z"/>
<path d="M4870 2086 c0 -2 8 -10 18 -17 15 -13 16 -12 3 4 -13 16 -21 21 -21
13z"/>
<path d="M2405 2060 c10 -11 20 -20 23 -20 3 0 -3 9 -13 20 -10 11 -20 20 -23
20 -3 0 3 -9 13 -20z"/>
<path d="M4850 2076 c0 -2 8 -10 18 -17 15 -13 16 -12 3 4 -13 16 -21 21 -21
13z"/>
<path d="M5190 2076 c0 -2 8 -10 18 -17 15 -13 16 -12 3 4 -13 16 -21 21 -21
13z"/>
<path d="M4830 2066 c0 -2 8 -10 18 -17 15 -13 16 -12 3 4 -13 16 -21 21 -21
13z"/>
<path d="M5123 2055 c0 -8 4 -12 9 -9 5 3 6 10 3 15 -9 13 -12 11 -12 -6z"/>
<path d="M5810 2062 c0 -4 10 -13 23 -21 22 -14 22 -14 3 8 -20 22 -26 25 -26
13z"/>
<path d="M4810 2056 c0 -2 8 -10 18 -17 15 -13 16 -12 3 4 -13 16 -21 21 -21
13z"/>
<path d="M5154 2036 c1 -8 5 -18 8 -22 4 -3 5 1 4 10 -1 8 -5 18 -8 22 -4 3
-5 -1 -4 -10z"/>
<path d="M5094 2025 c1 -8 8 -21 16 -28 12 -10 12 -9 2 4 -6 9 -9 18 -6 21 3
3 1 9 -4 12 -6 3 -9 -1 -8 -9z"/>
<path d="M5184 2015 c1 -8 8 -21 16 -28 12 -10 12 -9 2 4 -6 9 -9 18 -6 21 3
3 1 9 -4 12 -6 3 -9 -1 -8 -9z"/>
<path d="M5692 2018 c-14 -14 -16 -35 -3 -42 5 -4 7 3 4 14 -3 11 0 20 6 20 6
0 11 -10 12 -22 0 -13 3 -17 6 -10 2 6 9 9 15 6 5 -4 2 5 -7 20 -20 30 -18 29
-33 14z"/>
<path d="M5748 2018 c-3 -7 -1 -24 3 -38 7 -25 7 -25 8 4 1 23 4 26 15 17 10
-8 20 -8 37 -1 l24 11 -25 -5 c-14 -3 -31 1 -41 10 -13 12 -18 12 -21 2z"/>
<path d="M4830 2016 c0 -2 8 -10 18 -17 15 -13 16 -12 3 4 -13 16 -21 21 -21
13z"/>
<path d="M5120 2016 c0 -2 8 -10 18 -17 15 -13 16 -12 3 4 -13 16 -21 21 -21
13z"/>
<path d="M4944 1996 c1 -8 5 -18 8 -22 4 -3 5 1 4 10 -1 8 -5 18 -8 22 -4 3
-5 -1 -4 -10z"/>
<path d="M5030 2006 c0 -2 8 -10 18 -17 15 -13 16 -12 3 4 -13 16 -21 21 -21
13z"/>
<path d="M5070 2006 c0 -2 8 -10 18 -17 15 -13 16 -12 3 4 -13 16 -21 21 -21
13z"/>
<path d="M2704 1958 l-19 -23 23 19 c21 18 27 26 19 26 -2 0 -12 -10 -23 -22z"/>
<path d="M5070 1976 c0 -2 8 -10 18 -17 15 -13 16 -12 3 4 -13 16 -21 21 -21
13z"/>
<path d="M4980 1956 c0 -2 8 -10 18 -17 15 -13 16 -12 3 4 -13 16 -21 21 -21
13z"/>
<path d="M5805 1950 c3 -5 12 -10 19 -10 7 0 21 -16 31 -35 25 -46 13 -82 -40
-113 -28 -16 -32 -21 -15 -17 14 4 37 20 53 36 37 40 36 82 -2 120 -28 27 -59
41 -46 19z"/>
<path d="M4960 1946 c0 -2 8 -10 18 -17 15 -13 16 -12 3 4 -13 16 -21 21 -21
13z"/>
<path d="M5110 1946 c0 -2 8 -10 18 -17 15 -13 16 -12 3 4 -13 16 -21 21 -21
13z"/>
<path d="M4618 1895 c12 -25 50 -60 57 -53 3 2 -12 20 -31 39 -23 21 -33 26
-26 14z"/>
<path d="M5718 1862 c3 -35 2 -36 -12 -18 -9 11 -16 15 -16 10 0 -12 21 -34
32 -34 10 0 10 67 0 74 -4 2 -6 -12 -4 -32z"/>
<path d="M4106 1881 c-4 -5 9 -62 28 -128 20 -68 31 -119 25 -121 -22 -8 -67
-53 -72 -72 -13 -50 66 -68 108 -25 14 13 25 28 25 34 0 5 -13 -4 -29 -20 -29
-28 -71 -39 -71 -18 0 5 6 7 13 3 8 -5 8 -2 -2 9 -14 18 -26 23 -16 8 3 -5 1
-12 -4 -15 -5 -4 -8 2 -6 11 2 10 4 22 4 27 1 5 13 -1 29 -15 l27 -24 -22 26
c-29 32 -30 48 -3 24 12 -11 28 -20 36 -21 13 -2 13 0 -1 16 -10 11 -20 19
-24 18 -19 -2 -24 3 -11 12 10 6 22 3 40 -13 l25 -22 -19 23 c-11 12 -14 22
-8 22 8 0 10 27 2 38 -2 1 -4 7 -5 12 -1 6 -4 12 -5 15 -1 3 -4 14 -5 25 -1
11 -4 22 -5 25 -1 3 -3 8 -4 13 -1 4 -5 13 -9 20 -5 6 -5 12 -1 12 3 0 0 8 -7
17 -12 15 -12 16 3 11 9 -4 24 0 35 8 10 9 12 12 5 9 -7 -4 -23 1 -35 12 -21
18 -21 18 -7 -1 13 -17 13 -19 0 -14 -8 2 -16 14 -16 26 -1 22 7 21 39 -6 9
-8 17 -12 17 -8 0 3 13 0 29 -9 33 -16 63 -54 55 -67 -3 -4 0 -8 5 -8 6 0 11
-8 11 -17 0 -16 -1 -16 -16 -2 -8 9 -16 23 -18 32 -1 9 -13 25 -27 35 -21 18
-27 18 -44 6 -10 -8 -15 -14 -9 -14 5 0 2 -5 -6 -10 -12 -7 -12 -10 -1 -10 7
0 11 -6 7 -15 -3 -8 -1 -15 5 -15 6 0 9 -7 5 -15 -3 -8 -1 -15 5 -15 6 0 9 -7
5 -15 -3 -8 0 -15 7 -15 8 0 8 -3 -2 -9 -8 -5 -9 -11 -3 -15 6 -4 9 -15 7 -26
-2 -11 1 -23 7 -26 6 -4 8 -3 4 4 -3 5 -2 12 4 14 5 2 1 35 -11 82 -11 43 -18
81 -15 83 12 12 76 -66 76 -92 0 -16 4 -24 11 -20 6 4 8 14 5 22 -3 8 -1 11 4
8 6 -4 10 7 10 24 0 36 -35 80 -95 118 -25 15 -45 31 -45 36 0 10 -38 9 -44
-2z m105 -88 c13 -16 12 -17 -3 -4 -17 13 -22 21 -14 21 2 0 10 -8 17 -17z"/>
<path d="M5759 1888 c-5 -17 -4 -50 3 -54 4 -3 8 7 8 23 1 27 1 27 15 9 8 -11
15 -15 15 -10 0 17 -36 45 -41 32z"/>
<path d="M3538 1873 c6 -2 18 -2 25 0 6 3 1 5 -13 5 -14 0 -19 -2 -12 -5z"/>
<path d="M3638 1873 c6 -2 18 -2 25 0 6 3 1 5 -13 5 -14 0 -19 -2 -12 -5z"/>
<path d="M3722 1845 c25 -14 55 -36 66 -50 11 -14 23 -25 28 -25 4 0 -5 14
-22 31 -27 29 -93 70 -111 69 -4 -1 13 -12 39 -25z"/>
<path d="M5620 1850 c-11 -8 -7 -9 15 -4 37 8 45 14 19 14 -10 0 -26 -5 -34
-10z"/>
<path d="M3404 1798 l-29 -33 33 29 c17 17 32 31 32 33 0 8 -8 1 -36 -29z"/>
<path d="M5618 1815 c13 -25 55 -49 74 -42 8 3 6 6 -6 6 -11 1 -33 13 -49 29
-23 21 -27 22 -19 7z"/>
<path d="M5140 1770 c-19 -11 -29 -19 -22 -20 14 0 72 28 72 35 0 9 -15 4 -50
-15z"/>
<path d="M3504 1764 c-18 -14 -18 -14 6 -3 31 14 36 19 24 19 -6 0 -19 -7 -30
-16z"/>
<path d="M4751 1777 c14 -12 89 -35 89 -29 0 5 -17 14 -39 20 -38 12 -58 15
-50 9z"/>
<path d="M3710 1739 c19 -19 37 -33 39 -32 7 4 -32 44 -54 56 -11 5 -4 -5 15
-24z"/>
<path d="M5724 1750 c1 -9 13 -16 29 -18 21 -3 27 1 26 15 0 10 -3 13 -6 6 -2
-7 -13 -13 -23 -13 -10 0 -20 6 -23 13 -2 7 -3 6 -3 -3z"/>
<path d="M3831 1730 c15 -45 24 -54 15 -15 -4 17 -12 34 -17 40 -5 5 -4 -6 2
-25z"/>
<path d="M4975 1730 l-50 -7 53 -1 c29 -1 52 2 52 8 0 6 -1 9 -2 8 -2 0 -25
-4 -53 -8z"/>
<path d="M3852 1650 c0 -19 2 -27 5 -17 2 9 2 25 0 35 -3 9 -5 1 -5 -18z"/>
<path d="M3747 1536 c-4 -10 -1 -13 8 -9 8 3 12 9 9 14 -7 12 -11 11 -17 -5z"/>
<path d="M3835 1539 c-4 -6 -5 -12 -2 -15 2 -3 7 2 10 11 7 17 1 20 -8 4z"/>
<path d="M3724 1499 c-3 -6 -25 -20 -48 -30 -27 -12 -34 -19 -21 -19 19 0 100
59 83 60 -4 0 -10 -5 -14 -11z"/>
<path d="M3806 1459 c13 -22 98 -116 93 -103 -2 6 -26 35 -53 65 -27 30 -45
47 -40 38z"/>
<path d="M4306 1435 c22 -102 -10 -195 -107 -318 l-54 -67 -3 35 c-4 39 -22
49 -22 11 0 -13 -7 -43 -15 -66 -8 -24 -14 -44 -13 -46 2 -1 42 14 90 34 49
19 86 37 84 39 -2 2 -23 -1 -47 -6 -24 -5 -44 -9 -45 -8 -2 1 20 29 47 62 27
33 64 89 82 125 27 55 32 76 32 137 0 57 -4 76 -19 90 -18 17 -18 17 -10 -22z"/>
<path d="M3775 1350 c21 -22 41 -40 44 -40 3 0 -13 18 -34 40 -21 22 -41 40
-44 40 -3 0 13 -18 34 -40z"/>
<path d="M3573 1363 c15 -2 37 -2 50 0 12 2 0 4 -28 4 -27 0 -38 -2 -22 -4z"/>
<path d="M3940 1305 c13 -14 26 -25 28 -25 3 0 -5 11 -18 25 -13 14 -26 25
-28 25 -3 0 5 -11 18 -25z"/>
<path d="M3850 1270 c0 -5 5 -10 11 -10 5 0 7 5 4 10 -3 6 -8 10 -11 10 -2 0
-4 -4 -4 -10z"/>
<path d="M3934 1238 l-29 -33 33 29 c30 28 37 36 29 36 -2 0 -16 -15 -33 -32z"/>
<path d="M3955 1220 c-22 -23 -26 -33 -17 -42 9 -9 12 -8 12 7 0 10 10 29 22
42 12 13 19 23 17 23 -3 0 -18 -14 -34 -30z"/>
<path d="M4000 1241 c0 -5 5 -13 10 -16 6 -3 10 -2 10 4 0 5 -4 13 -10 16 -5
3 -10 2 -10 -4z"/>
<path d="M3968 1163 c7 -3 16 -2 19 1 4 3 -2 6 -13 5 -11 0 -14 -3 -6 -6z"/>
<path d="M3889 984 c-11 -13 -10 -24 5 -63 10 -25 19 -56 19 -68 1 -12 6 -25
10 -29 4 -5 5 0 1 10 -6 15 -4 17 7 11 21 -14 46 -13 46 1 0 7 -3 11 -7 9 -11
-7 -43 72 -37 89 4 9 2 26 -3 38 -7 19 -9 19 -9 5 -1 -10 -6 -15 -11 -12 -6 4
-8 11 -5 16 10 15 -2 10 -16 -7z m50 -104 c5 -17 6 -28 2 -25 -5 3 -14 19 -20
35 -5 17 -6 28 -2 25 5 -3 14 -19 20 -35z"/>
<path d="M3755 973 c4 -10 13 -41 20 -70 11 -49 11 -53 -11 -79 -29 -33 -31
-48 -5 -35 10 6 21 7 25 4 3 -3 6 2 6 12 0 17 1 17 20 0 11 -10 22 -16 24 -14
9 8 -7 89 -16 83 -8 -5 -51 80 -51 104 0 6 -5 12 -10 12 -5 0 -6 -8 -2 -17z
m65 -146 c0 -5 -4 -5 -10 -2 -5 3 -10 14 -10 23 0 15 2 15 10 2 5 -8 10 -19
10 -23z"/>
<path d="M3821 924 c0 -11 3 -14 6 -6 3 7 2 16 -1 19 -3 4 -6 -2 -5 -13z"/>
<path d="M3851 905 c0 -11 16 -47 35 -80 26 -43 34 -52 28 -30 -3 17 -7 37 -8
45 -2 19 -25 59 -26 45 0 -5 -7 1 -15 15 -13 22 -14 23 -14 5z"/>
<path d="M3850 840 c0 -19 49 -124 55 -118 6 5 -33 110 -46 123 -6 5 -9 4 -9
-5z"/>
</g>
</svg>
