<svg width="836" height="622" viewBox="0 0 836 622" fill="none" xmlns="http://www.w3.org/2000/svg">
<path d="M835.5 302.787C835.5 374.802 790.613 454.3 717.934 515.814C645.267 577.318 544.879 620.787 434 620.787C323.126 620.787 214.734 573.947 134.056 509.056C53.3595 444.15 0.5 361.278 0.5 289.287C0.5 217.346 53.3016 155.479 133.982 111.568C214.645 67.667 323.061 41.7875 434 41.7875C544.927 41.7875 645.329 71.036 717.984 118.298C790.644 165.563 835.5 230.801 835.5 302.787Z" fill="#282544" stroke="#549875"/>
<path d="M314.195 419.46H274.802C272.15 419.46 270 415.508 270 410.638V288.03C270 283.154 272.15 279.207 274.802 279.207H314.195C316.85 279.207 319 283.154 319 288.03V410.638C319 415.508 316.85 419.46 314.195 419.46Z" fill="#EDEDED"/>
<path d="M311.802 327.391H278.198C276.985 327.391 276 325.5 276 323.162V298.387C276 296.049 276.985 294.158 278.198 294.158H311.802C313.017 294.158 314 296.049 314 298.387V323.162C314 325.5 313.017 327.391 311.802 327.391ZM311.802 366.064H278.198C276.985 366.064 276 364.173 276 361.835V337.06C276 334.722 276.985 332.831 278.198 332.831H311.802C313.017 332.831 314 334.722 314 337.06V361.835C314 364.173 313.017 366.064 311.802 366.064Z" stroke="#DFDFDF" stroke-width="1.24133" stroke-miterlimit="10"/>
<path d="M296 311.404C296 313.458 295.329 315.123 294.5 315.123C293.671 315.123 293 313.458 293 311.404C293 309.349 293.671 307.685 294.5 307.685C295.329 307.685 296 309.349 296 311.404ZM296 348.818C296 350.873 295.329 352.537 294.5 352.537C293.671 352.537 293 350.873 293 348.818C293 346.764 293.671 345.099 294.5 345.099C295.329 345.099 296 346.764 296 348.818Z" fill="#BDBDBD"/>
<path d="M499.373 238.626L499.098 244.68L498 248.823V250.729H509L507.627 245.636L504.187 241.812L499.373 238.626Z" fill="#FBA894"/>
<path d="M520.913 120.271C518.379 112.435 512.592 111.084 508.829 116.949C507.312 119.312 505.807 122.67 505.014 127.287C503.652 135.185 500.215 158.611 498.201 172.457C497.359 178.251 499.243 184.209 502.367 185.633C504.854 186.773 507.439 184.689 508.702 180.531C512.774 167.133 521.25 138.44 521.915 129.748C522.197 126.059 521.752 122.877 520.913 120.271Z" fill="#24ADB2"/>
<path d="M596.048 125.061L600.654 118.798L603.649 110.865L611.624 104.197C612.166 103.74 612.775 104.56 612.682 105.626C612.604 106.525 612.398 107.618 611.943 108.779C610.792 111.7 608.948 112.956 608.948 112.956L623 110.865L622.539 115.457L615.628 118.383C615.628 118.383 614.016 127.983 612.404 130.489C610.792 132.99 602.959 129.654 602.959 129.654L600.886 135.496L596.048 125.061ZM545.14 401.434V422.308L538 421.893L539.38 401.019L545.14 401.434Z" fill="#FBA894"/>
<path d="M534.249 414.97C534.516 414.845 534.75 414.562 534.907 414.138C535.299 413.097 536.189 411.213 537.37 411.711C538.271 412.096 538.782 413.55 539.052 414.76C539.271 415.728 539.814 416.271 540.354 416.044L540.36 416.039C540.704 415.892 541.063 416.067 541.339 416.491C541.935 417.408 543.133 418.788 544.507 417.838C544.747 417.685 544.961 417.532 545.147 417.379C545.839 416.831 546.619 417.634 546.731 419.048L546.987 422.21C547.09 423.506 546.58 424.677 545.895 424.716C541.258 424.982 525.664 425.746 525.056 424.298C524.368 422.663 530.155 416.904 534.249 414.97Z" fill="#464F6A"/>
<path d="M522.1 387.423L527 406.28L520.701 411.629L517 391.667L522.1 387.423Z" fill="#FBA894"/>
<path d="M515.819 410.049C516.018 409.731 516.155 409.307 516.197 408.824C516.3 407.642 516.643 405.357 517.749 404.848C518.598 404.461 519.344 405.288 519.836 406.089C520.229 406.736 520.808 406.767 521.215 406.147L521.218 406.142C521.478 405.75 521.819 405.612 522.145 405.755C522.846 406.057 524.162 406.274 525.114 404.392C525.285 404.074 525.433 403.777 525.558 403.507C526.025 402.5 526.857 402.564 527.259 403.661L528.161 406.121C528.533 407.128 528.357 408.522 527.784 409.095C523.919 412.959 510.904 425.867 510.075 425.125C509.136 424.288 512.778 414.894 515.819 410.049ZM523.38 391.256C519.238 400.804 516.428 395.889 516.428 395.889C516.428 395.889 504 329.058 504 316.139C504 303.22 511.694 226.841 511.694 226.841C515.244 214.484 525.304 208.303 530.038 222.908C534.775 237.513 529.446 250.426 529.446 252.112L518.794 315.577C518.794 315.577 523.232 327.934 523.824 337.481C524.416 347.029 523.38 391.256 523.38 391.256Z" fill="#464F6A"/>
<path d="M538.657 403.836C538.657 403.836 533.36 326.516 533.305 319.252C533.248 311.988 529 232.678 529 232.678C530.82 207.752 549.557 215.41 551.544 224.589C553.528 233.772 548.406 299.953 548.214 314.533C548.214 314.533 550.468 332.207 550.799 343.484C551.13 354.756 546.229 403.836 546.229 403.836C546.229 403.836 542.255 408.555 538.657 403.836Z" fill="#464F6A"/>
<path d="M517.173 111.339C517.173 111.339 511.422 110.445 508.782 119.375C506.145 128.299 511.021 230.975 511.021 230.975C511.021 230.975 528.428 241.34 552.225 233.65C552.225 233.65 557.414 130.086 556.973 122.943C556.536 115.801 553.459 111.339 548.182 109.552C542.908 107.765 517.173 111.339 517.173 111.339Z" fill="#24ADB2"/>
<path d="M543.649 81.4364C543.649 81.4364 544.87 97.2514 542.759 105.473C541.157 109.092 534.404 105.484 531.185 99.2875C527.965 93.0863 527.19 82.854 528.845 76.6888C530.497 70.5288 537.596 70.6834 539.794 72.1938C541.991 73.699 543.562 78.8796 543.649 81.4364Z" fill="#FBA894"/>
<path d="M537 104.658L536.237 115.729C536.237 115.729 536.006 118.175 532.269 122.37C531.261 123.504 530.457 119.737 529.671 117.621C528.124 113.451 527 108.347 527 108.347L530.437 90.5408L537 104.658Z" fill="#FBA894"/>
<path d="M547.035 109.051C547.035 109.051 553.423 110.172 556.463 114.654C559.503 119.131 573.8 148.248 573.8 148.248C573.8 148.248 594.178 123.613 597.827 120.251L603 132.572C603 132.572 582.011 171.209 575.322 176.251C568.63 181.288 542.473 140.97 542.473 140.97C542.473 140.97 534.564 120.251 547.035 109.051Z" fill="#24ADB2"/>
<path d="M573.196 153.221C573.196 153.221 571.344 158.248 572.27 168.855M597.556 121.958L602.802 134.241L599.716 140.38L593.548 124.192M555.463 138.43L555 161.457M612.824 105.492C612.824 105.492 612.207 111.351 608.891 113.722C608.891 113.722 608.813 120.283 606.039 122.796M623 111.63L622.537 116.236L611.127 120.841M615.598 119.166L614.518 123.634L609.584 125.31M609.43 128.935L613.441 127.818" stroke="#29456A" stroke-width="1.10667" stroke-miterlimit="10"/>
<path d="M518.348 150.358C518.348 150.358 533.162 185.952 550 188.461M517 220.709C517 220.709 536.979 229.083 547.754 225.731M527.475 108.339C527.475 108.339 529.123 118.669 532.114 122.579L526.28 130.116L524.334 111.691L527.475 108.339ZM537.205 109.177C537.205 109.177 537.507 119.317 532.643 122.764L537.205 130.395L538.999 112.809L537.205 109.177Z" stroke="#29456A" stroke-width="1.10667" stroke-miterlimit="10" stroke-linecap="round" stroke-linejoin="round"/>
<path d="M506.391 171.997C502.675 167.528 497.666 172.295 497.275 180.326C497.13 183.345 497 186.73 497 189.263C497 195.086 498.149 242.897 498.149 242.897H505.968C505.968 242.897 509.418 188.017 508.958 179.704C508.775 176.433 507.812 173.708 506.391 171.997Z" fill="#24ADB2"/>
<path d="M499.509 173.768C499.509 173.768 503.609 170.855 507.491 175.854M509 132.546C509 132.546 508.354 154.2 508.139 167.527M498 242.898H505.335L506.125 237.206L499.797 237.762" stroke="#29456A" stroke-width="1.10667" stroke-miterlimit="10" stroke-linecap="round" stroke-linejoin="round"/>
<path d="M530.657 72.5108C530.657 72.5108 538.318 66.7715 542.815 72.2936C545.366 76.7597 543.786 81.2208 538.194 84.4088C535.642 85.8992 533.697 85.687 533.697 85.687L534.547 90.5725L533.697 91.2091L531.995 87.8089C531.995 87.8089 530.9 89.5115 531.389 91.6335C531.874 93.7605 531.631 95.0336 531.631 95.0336L529.444 96.9484L528.955 91.8507C528.955 91.8507 526.161 82.2869 527.253 78.0329C528.349 73.784 530.657 73.5718 530.657 73.5718" fill="#BA792D"/>
<path d="M532 98.3722C532 98.3722 532.333 101.723 537 105.492" stroke="#29456A" stroke-width="1.10667" stroke-miterlimit="10" stroke-linecap="round" stroke-linejoin="round"/>
<path d="M403.037 156.752H314.963C313.879 156.752 313 155.128 313 153.125V65.6894C313 63.687 313.879 62.0629 314.963 62.0629H403.037C404.121 62.0629 405 63.687 405 65.6894V153.125C405 155.128 404.121 156.752 403.037 156.752Z" fill="#EDEDED"/>
<path d="M326 144.649H322V82.7095H326V144.649Z" fill="#DFDFDF"/>
<path d="M332 144.649H327V109.051H332V144.649Z" fill="#BDBDBD"/>
<path d="M339 144.649H335V122.578H339V144.649Z" fill="#DFDFDF"/>
<path d="M345 144.649H340V114.747H345V144.649Z" fill="#BDBDBD"/>
<path d="M352 144.649H347V90.5408H352V144.649Z" fill="#DFDFDF"/>
<path d="M357 144.649H353V99.7961H357V144.649Z" fill="#BDBDBD"/>
<path d="M363 144.649H360V82.7095H363V144.649Z" fill="#DFDFDF"/>
<path d="M370 144.649H366V120.443H370V144.649Z" fill="#BDBDBD"/>
<path d="M376 144.649H372V90.5408H376V144.649Z" fill="#DFDFDF"/>
<path d="M382 144.649H378V106.916H382V144.649Z" fill="#BDBDBD"/>
<path d="M389 144.649H385V93.3887H389V144.649Z" fill="#DFDFDF"/>
<path d="M395 144.649H390V83.4213H395V144.649Z" fill="#BDBDBD"/>
<path d="M454.782 248.463C454.782 248.463 458.617 254.319 464.03 247.204C469.444 240.094 483.878 187.789 483.878 187.789L492 177.536L491.322 175.024C491.322 175.024 489.519 171.258 488.165 170.837C486.811 170.421 481.625 173.976 481.625 173.976C481.625 173.976 484.557 169.794 484.781 166.445C484.872 165.081 484.08 164.112 483.444 164.823C481.434 167.066 478.113 170.869 477.338 172.306C476.435 174.397 475.533 183.603 475.533 183.603C475.533 183.603 457.714 221.683 455.233 231.726C452.752 241.769 454.782 248.463 454.782 248.463Z" fill="#FBA894"/>
<path d="M484.169 187.366C484.169 186.528 491 178.574 491 178.574C491 178.574 490.675 177.525 489.698 177.525C488.724 177.525 486.012 180.455 486.012 180.455M485.58 177.525L490.891 174.177M485.037 174.594L489.592 171.663M485.037 166.007C485.037 166.007 483.52 172.08 482 173.545C482 173.545 483.411 178.152 482.218 181.293" stroke="#29456A" stroke-width="1.10667" stroke-miterlimit="10"/>
<path d="M442.17 188.379C442.17 188.379 448.732 183.759 452.355 194.251C455.975 204.743 463.896 239.985 463.896 239.985C463.896 239.985 465.027 249.215 459.823 251.734C454.617 254.252 451.902 244.6 451.902 244.6C451.902 244.6 439 204.743 439 198.449C439 192.154 442.17 188.379 442.17 188.379Z" fill="#FBA894"/>
<path d="M446.426 185.942C446.426 185.942 451.279 188.506 453.483 195.769C455.691 203.032 459 218.406 459 218.406C459 218.406 449.513 234.641 445.762 235.066C442.011 235.066 436.939 196.624 446.426 185.942Z" fill="#6C98DF"/>
<path d="M440.556 324.311L446 419.455M427.441 324.059L432.133 419.46M403.692 324.059L399 419.46" stroke="#29456A" stroke-width="2.16933" stroke-miterlimit="10" stroke-linecap="round" stroke-linejoin="round"/>
<path d="M430.323 325.483H399.065C397.728 325.483 396.594 323.581 396.413 321.023L390.025 230.228C389.807 227.138 391.058 224.387 392.677 224.387H423.935C425.275 224.387 426.409 226.295 426.587 228.847L432.975 319.642C433.193 322.732 431.945 325.483 430.323 325.483Z" fill="#FFC918"/>
<path d="M448 325.483H410V316.94H443.637C446.047 316.94 448 320.765 448 325.483Z" fill="#FFC918"/>
<path d="M440.742 399.526L439.842 409.034L442.091 414.736C442.091 414.736 449.436 422.613 449.286 423.429C449.136 424.244 431 423.157 431 423.157L434.296 400.613L440.742 399.526ZM483.533 399.526L485.33 409.982L487.803 414.736C487.803 414.736 495.148 422.613 494.998 423.429C494.848 424.244 476.711 423.157 476.711 423.157L477.088 400.613L483.533 399.526Z" fill="#BA7F79"/>
<path d="M439.563 275.647C439.563 275.647 457.552 282.048 472.959 293.812C476.024 296.146 478.261 301.058 478.896 306.977C480.936 325.894 485.288 370.17 484.985 400.95H477.48L463.658 316.816C463.658 316.816 458.522 320.753 441.538 317.174C424.556 313.595 421 292.111 421 292.111L439.563 275.647Z" fill="#464F6A"/>
<path d="M414.371 271.375C414.371 271.375 404.808 301.671 413.972 312.013C423.132 322.355 438.796 316.913 438.796 316.913L432.886 401.832L442.047 402.374C442.047 402.374 452.957 334.737 455.863 306.613C456.506 300.372 454.839 294.105 451.761 291.234L434.953 275.545L414.371 271.375Z" fill="#505E83"/>
<path d="M442.204 413.949L439.576 417.862M440.701 409.667L438 412.767M488 413.949L486.651 418.748M485.523 408.781L483.723 414.54" stroke="#29456A" stroke-width="1.10667" stroke-miterlimit="10"/>
<path d="M447.787 186.803C447.787 186.803 451.011 188.879 451.934 193.861C452.856 198.849 443.869 254.935 443.869 254.935C443.869 254.935 444.867 270.996 444.177 274.322C443.487 277.647 438.569 277.783 438.569 277.783C438.569 277.783 423.072 276.993 415.251 275.409C412.856 274.928 411.009 271.404 410.858 267.065C410.505 256.712 410 238.732 410 238.732C410 238.732 410.461 194.279 413.454 183.064C415.991 180.571 424.974 180.984 424.974 180.984C424.974 180.984 444.098 183.891 447.787 186.803Z" fill="#6C98DF"/>
<path d="M439 316.94C439 316.94 439.52 306.469 446 302.701" stroke="#29456A" stroke-width="1.10667" stroke-miterlimit="10"/>
<path d="M419.832 183.393C419.832 183.393 413.269 178.778 409.646 189.265C406.026 199.758 398.104 235.001 398.104 235.001C398.104 235.001 396.973 244.231 402.177 246.75C407.384 249.269 410.099 239.616 410.099 239.616C410.099 239.616 423 199.758 423 193.463C423 187.169 419.832 183.393 419.832 183.393Z" fill="#FBA894"/>
<path d="M399.16 232.817C399.16 232.817 402.761 229.657 408.842 231.237C414.92 232.817 436.085 243.482 436.085 243.482C436.085 243.482 444.192 236.768 445.768 236.768C447.343 236.768 455 243.875 455 243.875L454.099 249.799L447.57 249.401C447.57 249.401 441.492 255.722 438.789 254.932L436.085 254.142C436.085 254.142 412.988 254.778 401.937 247.741C399.075 245.917 397.383 240.53 398.21 235.392C398.428 234.05 398.766 233.096 399.16 232.817Z" fill="#FBA894"/>
<path d="M419.94 181.177C419.94 181.177 413.193 179.068 409.514 187.932C405.832 196.801 402 214.678 402 214.678C402 214.678 410.281 223.967 416.722 224.387C416.722 224.387 425 197.784 425 191.875C425 185.965 420.861 181.603 419.94 181.177Z" fill="#6C98DF"/>
<path d="M411.726 231.575C411.726 231.575 406.739 230.485 403 236.206M446.636 235.934L445.936 248.593M446.404 238.586L454 243.895M446.636 242.672L452.832 246.347M446.168 246.347L451.079 248.182M415.156 223.952C415.156 223.952 421.391 202.714 421.858 195.909" stroke="#29456A" stroke-width="1.10667" stroke-miterlimit="10"/>
<path d="M442.989 151.467C442.989 151.467 442.787 167.887 440.289 175.711C438.605 178.982 433.014 173.556 430.707 166.416C428.398 159.276 428.542 148.654 430.475 142.809C432.408 136.965 438.577 138.955 440.371 141.063C442.165 143.165 443.115 148.85 442.989 151.467Z" fill="#FBA894"/>
<path d="M438 172.38L437.189 183.523C437.189 183.523 438 189.928 432.973 190.207C427.944 190.486 426 181.572 426 181.572L431.027 158.176L438 172.38Z" fill="#FBA894"/>
<path d="M428.161 146.806C428.161 146.806 428.92 138.864 432.563 135.635C436.202 132.399 440.752 135.046 441.663 134.752C442.573 134.458 444.091 129.752 445.151 131.517C446.213 133.281 445.758 136.517 445.758 136.517C445.758 136.517 447.427 132.987 448.489 135.34C449.549 137.688 446.668 142.982 446.668 142.982C446.668 142.982 448.489 140.923 448.945 142.688C449.397 144.453 446.998 152.844 444.406 151.296C441.815 149.742 437.113 145.63 435.443 145.924C433.774 146.218 432.866 149.448 432.866 149.448V158.854L431.5 159.737V153.86C431.5 153.86 430.171 153.049 429.868 155.991C429.564 158.932 430.438 162.972 430.438 162.972L429.224 168.855C429.224 168.855 425.584 157.389 426.039 152.683C426.495 147.983 428.161 146.806 428.161 146.806Z" fill="#414D75"/>
<path d="M439.529 158.314C439.529 160.751 438.443 162.723 437.102 162.723C435.761 162.723 434.676 160.751 434.676 158.314C434.676 155.877 435.761 153.904 437.102 153.904C438.443 153.904 439.529 155.877 439.529 158.314ZM439.529 158.314H441.147M441.147 158.314C441.147 160.751 442.233 162.723 443.574 162.723C444.914 162.723 446 160.751 446 158.314C446 155.877 444.914 153.904 443.574 153.904C442.233 153.904 441.147 155.877 441.147 158.314ZM426 181.699C426 181.699 427.616 191.855 433.793 189.983" stroke="#29456A" stroke-width="1.10667" stroke-miterlimit="10"/>
<path d="M488.742 250.729H450.766C449.697 250.729 448.872 249.012 449.016 247.08L452.508 200.116C452.626 198.525 453.376 197.333 454.261 197.333H492.234C493.303 197.333 494.128 199.05 493.984 200.982L490.492 247.946C490.374 249.542 489.624 250.729 488.742 250.729Z" fill="#DFDFDF"/>
<path d="M476 227.593C476 231.722 474.208 235.066 471.999 235.066C469.792 235.066 468 231.722 468 227.593C468 223.465 469.792 220.115 471.999 220.115C474.208 220.115 476 223.465 476 227.593Z" fill="#BDBDBD"/>
<path d="M421 232.198C421 232.198 435.108 233.423 444.142 217.054M447.89 202.317C447.89 202.317 448.331 221.962 447.449 230.966" stroke="#29456A" stroke-width="1.10667" stroke-miterlimit="10"/>
<path d="M432 166.007C432 166.007 432.154 171.128 436 173.839" stroke="#29456A" stroke-width="1.10667" stroke-miterlimit="10" stroke-linecap="round" stroke-linejoin="round"/>
<path d="M417.856 250.729H380.729C379.684 250.729 378.877 249.012 379.015 247.08L382.432 200.116C382.547 198.525 383.28 197.333 384.143 197.333H421.27C422.319 197.333 423.125 199.05 422.984 200.982L419.57 247.946C419.452 249.542 418.722 250.729 417.856 250.729Z" fill="#DFDFDF"/>
<path d="M418.766 242.898L422 200.893H385.231L382 242.898H418.766Z" fill="#A9C9FC"/>
<path d="M557.261 250.729H595.234C596.303 250.729 597.128 249.012 596.984 247.08L593.492 200.116C593.374 198.525 592.624 197.333 591.742 197.333H553.769C552.697 197.333 551.872 199.05 552.016 200.982L555.508 247.946C555.626 249.542 556.376 250.729 557.261 250.729Z" fill="#DFDFDF"/>
<path d="M558.153 242.898L555 200.893H590.85L594 242.898H558.153Z" fill="#A9C9FC"/>
<path d="M657 259.272H297V250.729H657V259.272Z" fill="#DFDFDF"/>
<path d="M617.402 195.909C617.402 195.909 622.04 198.429 623.365 206.406C624.688 214.377 628 252.153 628 252.153L611 251.318L617.402 195.909Z" fill="#EF6164"/>
<path d="M587.828 401.231L589.116 409.104L583 418.383C583 418.383 587.023 419.503 589.116 417.821C591.206 416.132 597 416.414 597 416.414L594.585 400.95L587.828 401.231Z" fill="#FBA894"/>
<path d="M595.655 410.508C595.655 410.508 593.009 409.197 590.82 412.033C588.635 414.863 587.829 418.785 583.8 418.352C583.224 417.913 583.8 417.26 583.8 417.26C583.8 417.26 580.575 417.913 580.001 420.963C579.885 423.14 594.504 422.268 596.805 421.182C597.611 419.438 595.655 410.508 595.655 410.508Z" fill="#414D75"/>
<path d="M580 361.414L589.114 404.977L595.109 403.941C595.109 403.941 596.571 375.761 592.152 349.625C587.733 323.484 580 361.414 580 361.414ZM617.494 400.066L618.689 407.822L613.016 416.965C613.016 416.965 616.748 418.068 618.689 416.41C620.628 414.747 626 415.024 626 415.024L623.762 399.794L617.494 400.066Z" fill="#FBA894"/>
<path d="M625.655 409.048C625.655 409.048 623.009 407.891 620.82 410.393C618.635 412.89 617.826 416.35 613.8 415.968C613.224 415.581 613.8 415.005 613.8 415.005C613.8 415.005 610.575 415.581 610.001 418.272C609.885 420.193 624.504 419.428 626.805 418.465C627.611 416.926 625.655 409.048 625.655 409.048Z" fill="#414D75"/>
<path d="M608 358.646L617.471 402.374L623.789 401.402C623.789 401.402 625.221 373.052 620.629 346.812C616.036 320.572 608 358.646 608 358.646Z" fill="#FBA894"/>
<path d="M595.552 271.582C595.552 271.582 576.956 279.957 571.426 298.494C566.174 318.061 576.956 363.883 579.167 365.428C581.379 366.973 613.218 377.476 624 357.914C623.447 347.101 616.595 320.615 617.424 320.615C618.253 320.615 623.659 310.29 623.935 296.908C624.212 283.52 620.894 274.251 620.894 274.251C620.894 274.251 599.792 270.463 595.552 271.582Z" fill="#6C98DF"/>
<path d="M598.59 150.632C598.59 150.632 595.942 166.361 597.481 175.128C598.335 178.697 599.64 177.122 600.321 178.418C601.006 179.719 599.091 199.914 599.091 199.914L609.689 200.893C609.689 200.893 614.474 173.284 613.962 162.894C613.45 152.503 602.692 143.811 598.59 150.632Z" fill="#FBA894"/>
<path d="M593 212.558C593 212.558 594.76 246.114 598.72 256.26C598.72 256.26 595.643 267.187 595.643 272.65C595.643 272.65 613.24 277.333 626 274.992C618.52 223.219 619.4 209.436 619.4 209.436L593 212.558Z" fill="#EF6164"/>
<path d="M598.07 198.909C598.07 198.909 598.338 194.485 601.825 194.485C605.313 194.485 616.578 194.485 618.992 198.417C621.407 202.355 618.724 227.947 618.724 227.947L597 223.025L598.07 198.909Z" fill="#EF6164"/>
<path d="M561.038 227.899C561.038 227.899 580.868 259.648 591.879 256.156C599.244 250.378 605.482 208.984 603.69 202.661C601.897 196.344 598.517 195.919 598.517 195.919C598.517 195.919 595.341 195.396 592.974 202.046C590.606 208.702 586.069 232.631 586.069 232.631C586.069 232.631 567.485 214.203 560.715 211.768L552.672 205.82C552.672 205.82 551.832 209.209 553.301 211.47C554.774 213.732 558.136 215.239 558.136 215.239L547 218.254C547 218.254 549.522 225.791 551.62 227.673C553.722 229.56 561.038 227.899 561.038 227.899Z" fill="#FBA894"/>
<path d="M600.541 194.806C600.541 194.806 594.848 192.016 591.403 202.89C587.955 213.764 585.409 232.444 585.409 232.444C585.409 232.444 577.317 224.08 575.369 222.407C575.369 222.407 569.975 234.954 571.174 244.433C571.174 244.433 584.81 262.834 591.85 258.655C597.543 253.913 603.687 221.012 603.687 221.012C603.687 221.012 608.181 199.827 600.541 194.806Z" fill="#EF6164"/>
<path d="M585.894 235.482C585.894 235.482 586.045 243.291 588 248.593M548.373 221.117L553.905 219.859M549.916 224.603L554.357 223.624M552.098 227.531L555.562 225.999M558.873 214.42L547 217.653M560.953 227.557C560.953 227.557 560.68 223.208 561.356 220.907" stroke="#29456A" stroke-width="1.10667" stroke-miterlimit="10"/>
<path d="M598 195.114C598 195.114 598.032 186.574 600.014 186.02C601.996 185.466 612.968 187.959 613.728 190.724C614.34 193.217 613.728 198.757 613.728 198.757L598 195.114Z" fill="#EF6164"/>
<path d="M598 149.45C598 149.45 598.009 149.978 598.063 150.898C598.281 154.427 599.223 163.759 603.23 171.481L601.826 187.87C601.826 187.87 616.702 195.043 624 184.289C623.158 173.53 621.474 154.061 614.457 145.351C607.44 136.646 599.784 140.228 598 149.45Z" fill="#6C98DF"/>
<path d="M603.619 214.054C603.619 214.054 599.591 238.14 596.908 246.59M598.096 256.977C598.096 256.977 595.388 270.022 595.141 273.729C594.896 277.441 595.045 274.622 595.045 274.622H598.324M597.846 195.419C597.846 195.419 606.378 193.488 611 195.179" stroke="#29456A" stroke-width="1.10667" stroke-miterlimit="10"/>
<path d="M590.496 324.311L587 415.115M603.281 324.059L598.705 419.46M626.425 324.059L631 419.46" stroke="#29456A" stroke-width="2.16933" stroke-miterlimit="10" stroke-linecap="round" stroke-linejoin="round"/>
<path d="M599.677 325.483H630.935C632.275 325.483 633.408 323.581 633.587 321.023L639.975 230.228C640.195 227.138 638.945 224.387 637.322 224.387H606.068C604.727 224.387 603.594 226.295 603.415 228.847L597.025 319.642C596.807 322.732 598.058 325.483 599.677 325.483Z" fill="#FFC918"/>
<path d="M583 325.483H620V316.94H587.249C584.902 316.94 583 320.765 583 325.483Z" fill="#FFC918"/>
<path d="M398 252.153H365V245.745H398V252.153Z" fill="#DFDFDF"/>
<path d="M345.519 401.231L344.323 409.104L350 418.383C350 418.383 346.264 419.503 344.323 417.821C342.378 416.132 337 416.414 337 416.414L339.241 400.95L345.519 401.231Z" fill="#FBA894"/>
<path d="M337.345 410.508C337.345 410.508 339.994 409.197 342.182 412.033C344.367 414.863 345.172 418.785 349.2 418.352C349.777 417.913 349.2 417.26 349.2 417.26C349.2 417.26 352.423 417.913 352.999 420.963C353.112 423.14 338.498 422.268 336.195 421.182C335.389 419.438 337.345 410.508 337.345 410.508Z" fill="#414D75"/>
<path d="M361.028 296.096C358.779 292.081 354.457 288.239 349.704 284.902C349.35 287.696 348.853 291.34 348.254 295.397C349.505 303.155 348.201 310.595 345.063 314.359C343.864 320.567 342.554 326.263 341.241 330.137C340.068 336.486 338.699 345.158 338.413 352.285C337.898 365.186 337 398.699 337 400.542C342.677 403.309 345.657 402.119 345.657 402.119C345.657 402.119 366.705 308.997 361.028 296.096Z" fill="#24ADB2"/>
<path d="M373.519 401.231L372.323 409.104L378 418.383C378 418.383 374.267 419.503 372.323 417.821C370.381 416.132 365 416.414 365 416.414L367.243 400.95L373.519 401.231Z" fill="#FBA894"/>
<path d="M364.348 410.508C364.348 410.508 366.994 409.197 369.181 412.033C371.366 414.863 372.172 418.785 376.2 418.352C376.777 417.913 376.2 417.26 376.2 417.26C376.2 417.26 379.423 417.913 379.999 420.963C380.115 423.14 365.498 422.268 363.194 421.182C362.389 419.438 364.348 410.508 364.348 410.508Z" fill="#414D75"/>
<path d="M356.815 273.022C356.815 273.022 381.467 283.522 388.046 295.559C393.616 308.526 372.973 402.118 372.973 402.118C372.973 402.118 370.053 403.314 364.484 400.533C364.484 398.681 365.364 364.998 365.869 352.032C366.377 339.065 370.375 320.962 370.375 320.962C370.375 320.962 366.939 318.406 361.372 317.478C355.803 316.549 340.113 318.406 331.506 305.44C322.903 292.474 326.952 273.022 326.952 273.022C326.952 273.022 350.236 269.317 356.815 273.022Z" fill="#24ADB2"/>
<path d="M353.317 150.632C353.317 150.632 356.121 166.361 354.491 175.128C353.586 178.697 352.205 177.122 351.483 178.418C350.758 179.719 352.786 199.914 352.786 199.914L341.564 200.893C341.564 200.893 336.498 173.284 337.041 162.894C337.583 152.503 348.973 143.811 353.317 150.632Z" fill="#FBA894"/>
<path d="M359 212.558C359 212.558 357.24 246.114 353.28 256.26C353.28 256.26 356.36 267.187 356.36 272.65C356.36 272.65 338.76 277.333 326 274.992C333.48 223.219 332.6 209.436 332.6 209.436L359 212.558Z" fill="#FF725E"/>
<path d="M352.519 188.799C352.519 188.799 355.717 188.264 358.1 195.076C360.48 201.883 365.051 226.376 365.051 226.376C365.051 226.376 383.76 207.514 390.575 205.021C390.575 205.021 401.731 203.347 402.353 205.263C402.975 207.178 404.247 217.124 399.682 219.454C395.281 220.64 390.253 221.532 390.253 221.532C390.253 221.532 370.287 254.028 359.203 250.454C351.788 244.54 345.508 202.172 347.313 195.706C349.114 189.235 352.519 188.799 352.519 188.799Z" fill="#FBA894"/>
<path d="M395.847 206.794L402.701 206.588M396.689 210.35L403 209.809M397.642 213.609L402.764 213.744M401.752 216.878L398.578 217.003M365.631 229.934C365.631 229.934 365.395 238.205 363 242.898" stroke="#29456A" stroke-width="1.10667" stroke-miterlimit="10"/>
<path d="M351.348 187.835C351.348 187.835 354.259 185.958 357.024 189.712C359.79 193.461 362.555 206.871 362.992 207.943C363.283 209.016 355.714 219.207 348.582 218.671C341.453 217.598 351.348 187.835 351.348 187.835Z" fill="#FF725E"/>
<path d="M340.91 136.134C340.91 136.134 349.299 135.038 352.097 146.37C354.693 157.34 345.504 162.093 346.103 172.696C346.702 183.298 353.097 184.033 351.896 196.828C350.698 209.624 347.703 211.817 351.096 226.811C354.493 241.8 354.295 254.6 342.509 261.908C330.723 269.227 319.935 258.986 317.338 237.414C314.742 215.841 327.903 196.414 329.302 179.594C330.7 162.78 329.823 156.548 331.641 148.694C333.555 140.405 337.513 136.864 340.91 136.134Z" fill="#414D75"/>
<path d="M365 400.809C365 400.809 368.719 402.058 373.676 402.374M371.02 322.252C371.02 322.252 378.281 321.785 382 309.109" stroke="#29456A" stroke-width="1.10667" stroke-miterlimit="10"/>
<path d="M361.345 324.311L365 415.115M347.979 324.059L352.763 419.46M323.783 324.059L319 419.46" stroke="#29456A" stroke-width="2.16933" stroke-miterlimit="10" stroke-linecap="round" stroke-linejoin="round"/>
<path d="M350.323 325.483H319.065C317.725 325.483 316.591 323.581 316.413 321.023L310.025 230.228C309.807 227.138 311.055 224.387 312.677 224.387H343.935C345.272 224.387 346.406 226.295 346.587 228.847L352.975 319.642C353.193 322.732 351.942 325.483 350.323 325.483Z" fill="#FFC918"/>
<path d="M367 325.483H330V316.94H362.752C365.098 316.94 367 320.765 367 325.483Z" fill="#FFC918"/>
<path d="M355 286.326L383.624 304.071C384.639 304.7 385.213 306.701 384.926 308.624L371.358 399.526" stroke="#29456A" stroke-width="0.542667" stroke-miterlimit="10"/>
<path d="M432 122.578H409V63.4869H432V122.578Z" fill="#EDEDED"/>
<path d="M429 77.3862H412V74.1661H429V77.3862ZM419.287 83.4214H412V80.2013H419.287V83.4214Z" fill="#DFDFDF"/>
<path d="M461 33.5851V0.123535" stroke="#EDEDED" stroke-width="1.24133" stroke-miterlimit="10"/>
<path d="M463.438 40.7046H463.765V31.4493H457.233V40.7046H457.559L436 59.2152H485L463.438 40.7046Z" fill="#EDEDED"/>
<path d="M519 33.5851V0.123535" stroke="#EDEDED" stroke-width="1.24133" stroke-miterlimit="10"/>
<path d="M523.927 41.3862H524.25V31.4493H517.837V41.3862H518.157L497 61.26H545.086L523.927 41.3862ZM583.73 49.8901L571.707 74.9851V41.6311C561.276 41.6311 552.885 57.5447 553.437 76.7828C553.923 93.6187 561.487 107.412 570.721 108.292C581.272 109.303 590 94.0043 590 74.9851C590 64.97 587.565 56.0075 583.73 49.8901Z" fill="#EDEDED"/>
<path d="M584.831 55.4857L573.001 80.9292V47.112C562.738 47.112 554.483 63.2466 555.025 82.7519C555.503 99.8217 562.946 113.806 572.031 114.699C582.413 115.724 591 100.213 591 80.9292C591 70.7751 588.604 61.6881 584.831 55.4857Z" stroke="#DFDFDF" stroke-width="1.24133" stroke-miterlimit="10"/>
<path d="M583.546 37.7222C580.922 34.1685 577.725 31.8937 574.243 31.4544C573.574 31.3714 573 32.3087 573 33.5046V57.1602C573 59.0543 574.317 59.9378 575.014 58.5075L583.715 40.7194C584.155 39.8212 584.076 38.4447 583.546 37.7222Z" fill="#24ADB2"/>
<path d="M455.056 162.28H452V149.689H455.056V162.28ZM460.044 162.28H456.988V155.984H460.044V162.28ZM465.032 162.28H461.976V143.878H465.032V162.28ZM470.017 162.28H466.964V134.162H470.017V162.28ZM698.557 230.794H640.294L654.74 59.2152H713L698.557 230.794Z" fill="#EDEDED"/>
<path d="M654.335 422.308H651V229.37H654.335V422.308ZM693 422.308H689.665V229.37H693V422.308Z" fill="#EDEDED"/>
<path d="M661.449 75.8086L706 74.1661L704.274 89.8991L659.723 90.3537L661.449 75.8086ZM659.723 96.9754L689.755 97.6985L688.559 108.504L657 109.051L659.723 96.9754Z" stroke="#DFDFDF" stroke-width="1.24133" stroke-miterlimit="10"/>
<path d="M651 161.736L659.558 148.096L664.863 152.534L671.357 131.245L683.255 140.821L692.01 122.696L696.692 127.434L702 114.747" stroke="#24ADB2" stroke-width="2.66667" stroke-miterlimit="10"/>
<path d="M296.393 173.483C296.393 175.251 295.633 176.686 294.696 176.686C293.757 176.686 293 175.251 293 173.483C293 171.714 293.757 170.279 294.696 170.279C295.633 170.279 296.393 171.714 296.393 173.483ZM308.196 173.483C308.196 175.251 307.436 176.686 306.5 176.686C305.564 176.686 304.804 175.251 304.804 173.483C304.804 171.714 305.564 170.279 306.5 170.279C307.436 170.279 308.196 171.714 308.196 173.483ZM320 173.483C320 175.251 319.243 176.686 318.304 176.686C317.367 176.686 316.607 175.251 316.607 173.483C316.607 171.714 317.367 170.279 318.304 170.279C319.243 170.279 320 171.714 320 173.483Z" stroke="#DFDFDF" stroke-width="1.24133" stroke-miterlimit="10"/>
</svg>
