<svg width="178" height="204" viewBox="0 0 178 204" fill="none" xmlns="http://www.w3.org/2000/svg">
<rect x="0.5" y="0.5" width="177" height="203" rx="19.5" fill="#041306"/>
<rect x="0.5" y="0.5" width="177" height="203" rx="19.5" stroke="#CFF6DA"/>
<path d="M98.2393 131.491L90.2071 137.436C89.8399 137.708 89.42 137.844 89 137.844C88.58 137.844 88.1601 137.708 87.7929 137.436L79.7607 131.491L39.8173 161.059L27.666 170.055C28.5894 171.884 30.3138 173.115 32.2903 173.115H145.711C147.687 173.115 149.412 171.884 150.335 170.055L138.184 161.059L98.2402 131.491H98.2393Z" fill="#FAFDFF"/>
<path d="M41.2673 96.9233L89 132.259L97.8945 125.676C96.9266 126.005 95.9216 126.173 94.9111 126.173C92.166 126.173 89.5711 124.967 87.6011 122.778L75.1105 108.896C74.3326 109.224 73.5085 109.395 72.6787 109.395C70.8969 109.395 69.2114 108.621 67.9348 107.286C66.3579 108.042 64.6594 108.439 62.9508 108.439C60.6062 108.439 58.3534 107.711 56.4001 106.394L56.401 106.396C54.4152 105.058 52.7789 103.136 51.6608 100.828L48.5514 94.4084C47.4509 92.1421 46.903 89.6431 46.9225 87.1196H32.2894C31.2121 87.1196 30.21 87.4873 29.37 88.1173L30.7866 89.166L41.2673 96.9244V96.9233ZM127.651 92.9273C127.162 94.8918 126.033 96.5196 124.474 97.513C123.483 98.1431 122.369 98.4735 121.236 98.4756C120.483 98.4756 119.748 98.3311 119.057 98.0549V98.0559C118.367 97.7829 117.721 97.3823 117.143 96.8702L112.593 97.9168L108.015 98.9718L98.3432 101.198L102.22 105.506C104.629 108.183 105.759 111.908 105.318 115.72C105.045 118.086 104.196 120.239 102.89 121.977L136.733 96.9233L147.213 89.1649L148.63 88.1163V88.1173C147.763 87.4649 146.748 87.1186 145.711 87.1196H127.073C127.934 88.9025 128.141 90.9648 127.651 92.9273ZM151.002 92.4311L144.935 96.9233L102.339 128.455L140.597 156.774L151.051 164.512V93.2386C151.051 92.9655 151.033 92.6935 151.002 92.4311ZM75.6611 128.456L33.0654 96.9244L26.9976 92.4321C26.967 92.6956 26.9494 92.9666 26.9494 93.2396V164.513L37.4032 156.775L75.6611 128.456Z" fill="#FAFDFF"/>
<path d="M85.8702 42.7709L110.327 93.2365L118.759 91.2953C118.807 91.2847 118.851 91.2677 118.897 91.2539L119.289 92.0625C119.886 93.2939 121.24 93.7369 122.314 93.0538C123.388 92.3695 123.775 90.8172 123.179 89.5868L115.236 73.1978C121.157 69.4291 123.298 60.843 120.01 54.0579C116.722 47.2728 109.23 44.8184 103.31 48.5871L95.3672 32.198C94.7702 30.9666 93.4157 30.5235 92.3422 31.2067C91.2677 31.8909 90.8811 33.4433 91.4772 34.6736L91.8684 35.4822C91.8341 35.5194 91.798 35.5534 91.7646 35.5938L85.8702 42.772V42.7709ZM116.119 56.5335C118.216 60.86 116.851 66.3351 113.075 68.7384L105.469 53.0443C109.244 50.6409 114.021 52.2059 116.118 56.5335H116.119ZM55.5518 98.3524C57.8194 103.031 62.9666 104.717 67.0485 102.119L69.3829 100.634L70.4203 102.774C71.112 104.202 72.6834 104.717 73.9303 103.923L73.9572 103.906C75.2393 103.09 76.8228 103.458 77.7851 104.726H77.7842C77.8991 104.878 78.0197 105.024 78.1457 105.164L90.6994 119.118C92.6129 121.245 95.5165 121.686 97.8472 120.202C101.394 117.944 102.034 112.403 99.1219 109.166L89.1725 98.1059L105.748 94.2905L82.6699 46.6693L65.6487 67.3986H65.6477C65.3872 67.7163 65.1935 68.0978 65.0822 68.5143C64.9821 68.5599 64.8838 68.6109 64.7874 68.6726L58.7187 72.5358C57.4727 73.3284 57.0231 75.1294 57.7156 76.5574L58.0614 77.2703L55.727 78.7557C51.6451 81.3546 50.1738 87.2536 52.4405 91.9318L55.5518 98.3524ZM57.8871 83.215L60.2215 81.7296L67.2219 96.1754L64.8875 97.6608C62.9573 98.8901 60.5145 98.089 59.4418 95.8768L56.3305 89.4561C55.2579 87.244 55.9569 84.4443 57.8871 83.215ZM119.535 46.0349C119.903 46.325 120.34 46.4791 120.787 46.4791C121.498 46.4791 122.196 46.0891 122.627 45.3656L127.967 36.3896C128.66 35.2261 128.397 33.6398 127.382 32.8461C126.367 32.0524 124.983 32.3531 124.29 33.5166L118.95 42.4926C118.258 43.656 118.52 45.2423 119.535 46.036V46.0349ZM134.259 69.2538C134.567 69.4301 134.905 69.5215 135.249 69.5215C136.067 69.5215 136.854 69.003 137.243 68.1073C137.791 66.8461 137.343 65.3161 136.242 64.6882L127.757 59.8474C126.656 59.2195 125.32 59.7327 124.773 60.9939C124.225 62.2551 124.673 63.7851 125.774 64.413L134.259 69.2538ZM123.118 54.281C123.532 54.978 124.222 55.3956 124.958 55.3945C125.405 55.3945 125.841 55.2394 126.209 54.9504L142.007 42.602C143.022 41.8083 143.284 40.222 142.591 39.0586C141.898 37.8951 140.514 37.5955 139.499 38.3892L123.702 50.7376C122.687 51.5313 122.425 53.1176 123.118 54.281Z" fill="#FAFDFF"/>
</svg>
