<svg width="202" height="204" viewBox="0 0 154 204" fill="none" xmlns="http://www.w3.org/2000/svg">
<rect x="0.5" y="0.5" width="153" height="203" rx="19.5" fill="#041306" stroke="#CFF6DA"/>
<path d="M101.786 114.395C101.493 112.709 100.776 111.118 99.6509 109.829C98.5147 108.551 97.1309 107.779 95.6965 107.497L72.6172 101.664L79.294 107.449L68.7528 150.603L62.8156 118.545L56.8784 150.603L46.3372 107.453L53.014 101.668L29.9319 107.5C28.4975 107.783 27.1137 108.554 25.9775 109.833C24.8497 111.118 24.1353 112.712 23.84 114.398L17 153.648L29.9066 159.499C34.1956 165.313 46.1909 169.596 60.5769 170H65.0487C79.4375 169.592 91.4328 165.313 95.719 159.499L108.628 153.648L101.786 114.395Z" fill="#FAFDFF"/>
<path d="M62.8129 106.046L57.4916 108.536L62.8129 118.552L68.1341 108.536L62.8129 106.046ZM82.565 67.3949C82.565 49.5809 76.9513 35.6162 62.8129 35.6162C48.6716 35.6162 43.0607 49.5773 43.0607 67.3949C41.5813 68.405 40.611 70.7668 42.0622 75.8355C42.7963 78.3809 44.0872 80.5112 45.1813 81.6278C49.2116 94.7294 57.1344 104.845 62.8129 104.845C68.4885 104.845 76.4141 94.7294 80.4416 81.6278C81.5385 80.5112 82.8294 78.3809 83.5607 75.8355C85.0147 70.7668 84.0444 68.405 82.565 67.3949ZM96.5685 60.3832H86.0807C86.1482 61.1619 86.2044 61.9516 86.2494 62.756H96.5685V60.3832ZM117.778 52.2034H84.8319C85.0091 52.9748 85.1638 53.7718 85.31 54.5762H117.778V52.2034Z" fill="#FAFDFF"/>
<path d="M123.76 35.6236C122.964 34.5841 121.884 34.0001 120.759 34.0001H74.0741C76.1357 35.4142 77.9919 37.2911 79.5585 39.5427H120.759V78.3221H109.405L100.81 89.5468V78.3221H86.8991C86.2297 80.368 85.2763 82.3037 84.1766 83.8647H96.5656V99.1003C96.5656 99.721 96.8469 100.309 97.3138 100.562H97.3166C97.7694 100.808 98.2897 100.672 98.6356 100.217L111.16 83.861H120.759C121.884 83.8647 122.964 83.277 123.76 82.2375C124.556 81.1981 125.003 79.7913 125 78.3185V39.5427C125.003 38.0698 124.556 36.663 123.76 35.6236Z" fill="#FAFDFF"/>
<path d="M117.777 44.0273H82.1038C82.4609 44.7987 82.7928 45.592 83.0994 46.4001H117.777V44.0273Z" fill="#FAFDFF"/>
</svg>
