<svg width="182" height="204" viewBox="0 0 182 204" fill="none" xmlns="http://www.w3.org/2000/svg">
<rect x="0.5" y="0.5" width="181" height="203" rx="19.5" fill="#041306" stroke="#CFF6DA"/>
<rect width="142" height="186" transform="translate(21 9)" fill="#041306"/>
<path fill-rule="evenodd" clip-rule="evenodd" d="M85.4853 123.636H92.8234V131.66H85.4853V123.636ZM81.9882 154.089L85.5821 134.062H92.9201L95.6228 154.089H81.9882ZM109.035 52.6657C108.629 53.0669 108.053 52.9609 107.746 52.4311C107.439 51.9013 107.521 51.1464 107.926 50.7434C110.768 47.9242 113.942 45.7312 117.324 44.2497C120.618 42.7985 124.153 42.0133 127.806 42.0133C128.05 42.0133 128.284 42.1419 128.458 42.3671C128.63 42.5942 128.728 42.9007 128.726 43.2204C128.728 43.5402 128.63 43.8467 128.458 44.0738C128.284 44.3008 128.05 44.4276 127.806 44.4276C124.339 44.4276 121.007 45.1636 117.9 46.5259C114.71 47.928 111.716 50.0017 109.035 52.6657ZM131.768 79.8929L128.601 85.8852L127.088 84.5229L130.262 78.5306V78.5287C129.508 78.0557 128.68 77.8116 127.844 77.8135C124.728 77.8135 122.206 81.119 122.206 85.1983C122.206 89.2777 124.729 92.5851 127.844 92.5851C130.958 92.5851 133.482 89.2796 133.482 85.1983C133.486 83.1984 132.866 81.2817 131.767 79.8929H131.768ZM139.788 64.7203L135.7 72.4589C138.53 75.4598 140.35 80.05 140.35 85.1983C140.35 94.2406 134.75 101.578 127.845 101.578C120.942 101.578 115.347 94.2406 115.347 85.1983C115.347 76.1542 120.941 68.828 127.845 68.828C130.159 68.828 132.33 69.6529 134.188 71.0947L138.285 63.3466C135.26 60.8642 131.68 59.4338 127.847 59.4338C116.981 59.4338 108.175 70.9679 108.175 85.1983C108.175 99.4401 116.981 110.974 127.847 110.974C138.711 110.974 147.525 99.4401 147.525 85.1983C147.525 76.8523 144.492 69.4278 139.79 64.7203H139.788ZM146.751 38.091C146.616 37.4533 146.908 36.7968 147.395 36.6189C147.886 36.4524 148.389 36.8327 148.526 37.4742L149.82 43.7521H154.665V43.7502C154.909 43.7502 155.143 43.877 155.317 44.104C155.489 44.3292 155.587 44.6357 155.585 44.9555C155.587 45.2771 155.49 45.5837 155.317 45.8088C155.143 46.0359 154.909 46.1626 154.665 46.1626H149.596L148.637 47.9677H152.433C152.678 47.9677 152.912 48.0945 153.085 48.3215C153.258 48.5467 153.355 48.8532 153.355 49.1729C153.355 49.4927 153.258 49.8011 153.085 50.0263C152.913 50.2533 152.678 50.3801 152.433 50.3801H147.365L144.497 55.8142C151.349 62.4724 155.789 73.1646 155.789 85.1983C155.789 105.413 143.277 121.803 127.844 121.803C127.237 121.803 126.646 121.772 126.047 121.725V153.974H114.56L114.567 153.906V131.613C114.567 130.926 114.134 130.359 113.608 130.359L113.61 130.355C113.081 130.357 112.652 130.917 112.652 131.609V154.089H97.4891L94.6579 133.365V123.636H101.396C101.641 123.621 101.87 123.479 102.033 123.243C102.197 123.004 102.28 122.69 102.266 122.372L101.613 105.875L106.091 108.17C103.544 104.042 101.665 99.1658 100.684 93.8414V93.8395C101.573 93.0089 102.408 92.0837 103.179 91.0733C106.683 86.4831 108.854 80.137 108.854 73.1344C108.854 68.8885 108.054 64.8754 106.646 61.3656C111.768 53.5475 119.367 48.6053 127.844 48.6053C133.43 48.6053 138.626 50.7434 142.991 54.4405L145.89 48.9591L144.519 42.3198V42.3179C144.454 42.0095 144.487 41.6803 144.61 41.404C144.733 41.1278 144.934 40.9272 145.171 40.8478C145.657 40.6718 146.159 41.054 146.294 41.7011L147.259 46.3708L148.12 44.7322L146.749 38.091H146.751ZM51.918 161.504C51.4168 161.504 51.0051 160.965 51.0051 160.299C51.0051 159.631 51.4168 159.092 51.918 159.092H115.813H115.811C116.055 159.092 116.289 159.219 116.463 159.446C116.634 159.673 116.731 159.979 116.731 160.299C116.731 160.619 116.634 160.925 116.463 161.153C116.289 161.378 116.055 161.504 115.811 161.504H51.9166H51.918ZM85.0447 167.419C84.5363 167.419 84.1246 166.88 84.1246 166.223H84.1231C84.1217 165.904 84.2185 165.595 84.3918 165.37C84.5652 165.143 84.7992 165.016 85.0433 165.016H136.417C136.661 165.016 136.896 165.143 137.068 165.37C137.242 165.595 137.338 165.904 137.338 166.223C137.338 166.88 136.927 167.419 136.418 167.419H85.0433H85.0447ZM141.682 167.419C141.174 167.419 140.762 166.88 140.762 166.223H140.76C140.76 165.904 140.857 165.595 141.029 165.37C141.203 165.143 141.437 165.016 141.681 165.016H148.106C148.607 165.016 149.019 165.555 149.019 166.223C149.017 166.882 148.61 167.417 148.106 167.419H141.681H141.682ZM34.1709 167.243C33.9268 167.243 33.6928 167.116 33.5195 166.889C33.3476 166.662 33.2493 166.356 33.2508 166.036C33.2508 165.716 33.3476 165.41 33.5195 165.183C33.6928 164.958 33.9268 164.831 34.1709 164.831H61.4792C61.9819 164.831 62.4008 165.37 62.4008 166.036C62.4008 166.704 61.9819 167.243 61.4792 167.243H34.1709ZM135.835 141.655C135.543 141.115 135.633 140.36 136.044 139.978C136.457 139.586 137.025 139.713 137.325 140.252L139.616 144.421L145.929 138.731C146.341 138.359 146.917 138.487 147.202 139.036C147.486 139.585 147.381 140.33 146.969 140.703L139.923 147.068H139.921C139.511 147.441 138.949 147.314 138.656 146.784L135.833 141.655H135.835ZM141.51 129.768C146.489 129.768 150.518 135.055 150.518 141.567C150.518 148.08 146.489 153.367 141.51 153.367C136.538 153.367 132.502 148.08 132.502 141.567C132.502 135.053 136.538 129.768 141.51 129.768ZM36.2236 130.671L29.1325 130.669C28.6241 130.669 28.2124 130.118 28.2124 129.464L28.2109 129.462C28.2109 129.142 28.3077 128.836 28.4811 128.609C28.653 128.383 28.887 128.255 29.1325 128.257H35.3323V63.8083C35.3323 63.4885 35.4291 63.1801 35.601 62.9549C35.7743 62.7279 36.0083 62.6011 36.2525 62.6011C36.7609 62.6049 37.1712 63.1423 37.1741 63.8083V68.9377H52.779V75.2933H59.3543V94.2709H45.0206V87.9154H37.1741V128.255H52.2546V118.437L76.6869 105.873L76.0282 122.438C76.0282 123.095 76.4399 123.646 76.9483 123.646L83.6421 123.636V133.327L80.093 154.091H65.6567V131.611C65.6567 130.924 65.2233 130.357 64.6975 130.357L64.699 130.355C64.1703 130.357 63.7413 130.919 63.7413 131.611V153.974H52.2546V130.671L36.2221 130.669L36.2236 130.671ZM93.6323 76.7464C93.2437 77.1589 92.6659 77.0794 92.3452 76.5591L92.3438 76.5572C92.1936 76.3074 92.1242 75.9895 92.1517 75.6736C92.1806 75.3576 92.3033 75.0681 92.494 74.8713C93.2509 74.0766 94.4556 73.4201 95.8857 73.4201C96.972 73.4201 98.207 73.7928 99.5027 74.7729C99.7122 74.9319 99.8667 75.193 99.9303 75.4995C99.9924 75.8079 99.9606 76.1352 99.8393 76.4115C99.5923 76.9791 99.0304 77.1759 98.5884 76.8523C97.6075 76.1068 96.686 75.823 95.8857 75.823C94.9049 75.823 94.1191 76.245 93.6323 76.7445V76.7464ZM79.8243 76.7464V76.7445C79.6365 76.9432 79.3953 77.0359 79.1541 76.9999C78.9143 76.9659 78.6933 76.805 78.543 76.5572C78.2281 76.0368 78.2888 75.2819 78.6861 74.8713C79.4487 74.0766 80.6477 73.4201 82.0777 73.4201C83.1626 73.4201 84.3976 73.7928 85.6933 74.7729C86.1353 75.0965 86.2856 75.8325 86.0371 76.4115C85.7829 76.9791 85.221 77.1759 84.7789 76.8523C83.8054 76.1068 82.8765 75.823 82.0763 75.823C81.0955 75.823 80.3082 76.245 79.8229 76.7445L79.8243 76.7464ZM72.1121 73.1363C72.1121 79.4237 74.0521 85.1113 77.1968 89.2304C80.3414 93.3495 84.6851 95.8905 89.4837 95.8905C94.2751 95.8905 98.6259 93.3514 101.771 89.2304C104.908 85.1113 106.855 79.4218 106.855 73.1363V73.1344C106.857 71.5166 106.725 69.9027 106.467 68.319C103.846 68.2887 101.353 67.583 99.0838 66.3172L99.0824 66.3191C96.9994 65.1516 95.0898 63.515 93.4387 61.4829C92.7049 62.4138 91.9263 63.2785 91.0871 64.0523L91.0351 64.1015C87.8904 66.9945 84.0711 68.6917 79.9529 68.6917C78.5416 68.6936 77.1361 68.4893 75.7595 68.0825C74.7397 67.7892 73.7401 67.3843 72.7708 66.8772C72.3346 68.9131 72.1121 71.019 72.1121 73.1344V73.1363ZM94.733 88.0838C92.6284 89.6731 90.6219 90.2805 88.8625 90.2805C86.5716 90.2805 84.6619 89.2398 83.4572 87.9759C83.06 87.5635 83.0008 86.8085 83.3157 86.2901C83.6306 85.7698 84.2069 85.6922 84.6027 86.1047C85.5229 87.0753 87.0208 87.8794 88.8625 87.8794C90.3374 87.8794 92.0303 87.3496 93.8201 85.9949C94.2534 85.6714 94.8153 85.8662 95.071 86.4358L95.0696 86.4339C95.1923 86.712 95.2256 87.0412 95.162 87.3496C95.0984 87.6581 94.9439 87.923 94.733 88.0819V88.0838ZM77.1968 57.0403C75.5789 59.1594 74.276 61.7005 73.4006 64.514H73.3992C74.2977 64.9908 75.225 65.3673 76.1712 65.6417C77.412 66.0031 78.6803 66.1828 79.9529 66.1809C83.6667 66.1809 87.1031 64.6597 89.9271 62.0713L89.9791 62.0127C90.9643 61.095 91.8743 60.0468 92.6962 58.8832C92.7035 58.8737 92.7107 58.8623 92.7194 58.8548H92.7179C93.5211 57.7157 94.2332 56.4726 94.8457 55.1463C95.2978 54.1529 95.6965 53.118 96.0359 52.047C94.0151 50.9685 91.7978 50.3801 89.4851 50.3801C84.6851 50.3801 80.3429 52.9306 77.1982 57.0403H77.1968ZM97.765 53.1161C97.0139 55.4831 95.9911 57.6855 94.733 59.6476C96.215 61.4621 97.9369 62.953 99.8321 64.0032C101.72 65.0627 103.771 65.6795 105.935 65.7987H105.934C105.247 63.1612 104.196 60.7109 102.834 58.5691C102.497 58.0393 102.143 57.5284 101.771 57.0403C100.583 55.4925 99.234 54.1719 97.765 53.1161ZM78.4983 106.492L88.7268 119.388L81.7108 110.541L81.6733 96.25V96.2519C84.1333 97.6767 86.794 98.4127 89.4837 98.4089C91.9003 98.4108 94.2968 97.8148 96.5444 96.6549L96.5819 110.191L99.8017 106.414L100.385 121.235H77.9147L78.4983 106.494V106.492Z" fill="#FAFDFF"/>
</svg>
