<svg width="182" height="204" viewBox="0 0 182 204" fill="none" xmlns="http://www.w3.org/2000/svg">
<rect x="0.5" y="0.5" width="181" height="203" rx="19.5" fill="#041306" stroke="#CFF6DA"/>
<path d="M101.75 141.047H129.875V97.9219H111.125V78.1562C105.949 78.1562 101.75 82.9854 101.75 88.9375V141.047ZM45.5 103.312C45.5 106.289 43.4004 108.703 40.8125 108.703C38.2246 108.703 36.125 106.289 36.125 103.312C36.125 100.336 38.2246 97.9219 40.8125 97.9219C43.4004 97.9219 45.5 100.336 45.5 103.312ZM45.5 114.094C45.5 117.07 43.4004 119.484 40.8125 119.484C38.2246 119.484 36.125 117.07 36.125 114.094C36.125 111.118 38.2246 108.703 40.8125 108.703C43.4004 108.703 45.5 111.118 45.5 114.094ZM45.5 124.875C45.5 127.851 43.4004 130.266 40.8125 130.266C38.2246 130.266 36.125 127.851 36.125 124.875C36.125 121.899 38.2246 119.484 40.8125 119.484C43.4004 119.484 45.5 121.899 45.5 124.875ZM45.5 135.656C45.5 138.632 43.4004 141.047 40.8125 141.047C38.2246 141.047 36.125 138.632 36.125 135.656C36.125 132.68 38.2246 130.266 40.8125 130.266C43.4004 130.266 45.5 132.68 45.5 135.656ZM98.625 67.375H45.5V63.7812C45.5 59.8132 48.2995 56.5938 51.75 56.5938H92.375C94.0352 56.5938 95.6221 57.3518 96.7939 58.6995C97.9658 60.0471 98.625 61.8721 98.625 63.7812V67.375ZM45.5 153.625H98.625V157.219C98.625 159.128 97.9658 160.953 96.7939 162.301C95.6221 163.648 94.0352 164.406 92.375 164.406H51.75C48.2995 164.406 45.5 161.187 45.5 157.219V153.625ZM45.5 70.9688V150.031H98.625V70.9688H45.5ZM72.0625 92.5312H87.6875V96.125H72.0625V92.5312ZM92.375 103.312V117.687H76.75V103.312H92.375ZM51.75 79.9531H67.375V94.3281H51.75V79.9531ZM50.1875 101.516H72.0625V105.109H50.1875V101.516ZM50.1875 108.703H72.0625V112.297H50.1875V108.703ZM50.1875 115.891H72.0625V119.484H50.1875V115.891ZM67.375 141.047H51.75V126.672H67.375V141.047ZM75.1875 142.844H72.0625V139.25H75.1875V142.844ZM81.4375 142.844H78.3125V139.25H81.4375V142.844ZM87.6875 142.844H84.5625V139.25H87.6875V142.844ZM93.9375 142.844H90.8125V139.25H93.9375V142.844ZM93.9375 135.656H72.0625V132.062H93.9375V135.656ZM93.9375 128.469H72.0625V124.875H93.9375V128.469ZM93.9375 96.125H90.8125V92.5312H93.9375V96.125ZM93.9375 88.9375H72.0625V85.3438H93.9375V88.9375ZM93.9375 81.75H72.0625V78.1562H93.9375V81.75Z" fill="#FAFDFF"/>
</svg>
