<svg width="208" height="204" viewBox="0 0 208 204" fill="none" xmlns="http://www.w3.org/2000/svg">
<rect x="0.5" y="0.5" width="207" height="203" rx="19.5" fill="#041306" stroke="#CFF6DA"/>
<path d="M78.129 57.9447C78.129 63.239 75.0745 67.5304 71.3084 67.5304C67.5413 67.5304 64.4878 63.239 64.4878 57.9447C64.4878 52.6517 67.5413 48.3604 71.3084 48.3604C75.0745 48.3604 78.129 52.6517 78.129 57.9447Z" fill="#FEFFF8"/>
<path d="M102.518 116.039C92.4969 97.3031 95.1895 70.6024 108.521 56.516C113.804 50.9365 120.083 47.9852 126.677 47.9852C131.268 47.9852 135.869 49.4798 139.985 52.3033C144.243 55.2237 148.009 59.5994 150.874 64.9555C157.657 77.64 158.784 94.3097 154.161 108.337C155.43 110.037 156.234 112.329 156.404 114.869C156.479 115.983 156.429 117.077 156.262 118.129H166.658V33.0911C166.658 28.6227 164.08 25 160.901 25H53.7571C50.5777 25 48 28.6227 48 33.0911V118.129H103.712C103.299 117.452 102.901 116.754 102.519 116.039H102.518ZM149.001 36.2447C149.437 35.635 150.037 35.2544 150.695 35.2544H156.068C157.389 35.2544 158.467 36.77 158.467 38.6257C158.467 39.5514 158.196 40.3956 157.762 41.0066L157.763 41.0081C157.315 41.6402 156.705 41.997 156.068 41.997H150.695C149.377 41.997 148.296 40.4785 148.296 38.6257C148.296 37.6986 148.567 36.8543 149.001 36.2447ZM132.977 36.2447C133.412 35.635 134.013 35.2544 134.671 35.2544H140.044C141.365 35.2544 142.443 36.77 142.443 38.6257C142.443 39.5514 142.172 40.3956 141.738 41.0066L141.739 41.0081C141.291 41.6402 140.681 41.997 140.044 41.997H134.671C133.353 41.997 132.272 40.4785 132.272 38.6257C132.272 37.6986 132.543 36.8543 132.977 36.2447ZM116.953 36.2447C117.388 35.635 117.989 35.2544 118.647 35.2544H124.02C125.34 35.2544 126.419 36.77 126.419 38.6257C126.419 39.5514 126.148 40.3956 125.714 41.0066L125.715 41.0081C125.267 41.6402 124.657 41.997 124.02 41.997H118.647C117.328 41.997 116.248 40.4785 116.248 38.6257C116.248 37.6986 116.519 36.8543 116.953 36.2447ZM69.1915 105.175C68.7427 105.809 68.133 106.165 67.4973 106.165H58.7786C57.4583 106.165 56.3798 104.65 56.3798 102.794C56.3798 101.868 56.6487 101.024 57.0845 100.413C57.5203 99.8035 58.119 99.4228 58.7786 99.4228H67.4973C68.8176 99.4228 69.8961 100.941 69.8961 102.794C69.8961 103.721 69.6252 104.565 69.1915 105.175ZM85.5323 91.6899C85.0965 92.2996 84.4978 92.6802 83.8382 92.6802H58.7796C57.4593 92.6802 56.3808 91.1646 56.3808 89.3089C56.3808 88.3832 56.6497 87.539 57.0855 86.928C57.5213 86.3183 58.12 85.9376 58.7796 85.9376H83.8382C85.1585 85.9376 86.237 87.4561 86.237 89.3089C86.237 90.2361 85.9681 91.0803 85.5323 91.6899ZM86.237 59.5488C86.237 60.4492 85.9761 61.2668 85.5553 61.8581C85.1205 62.4706 84.5298 62.8147 83.9141 62.8133C83.7822 62.8133 83.6553 62.7951 83.5283 62.7642C83.2415 64.2504 82.8167 65.6761 82.2639 67.005C82.3449 67.0935 82.4209 67.1862 82.4958 67.2887C83.4034 68.5642 83.4014 70.6305 82.4958 71.906L81.0715 73.9077C80.164 75.1832 78.6937 75.1832 77.7862 73.9077C77.7002 73.7869 77.6233 73.6549 77.5523 73.52L77.5533 73.5172C76.5968 74.2729 75.5743 74.8475 74.5108 75.2281C74.5238 75.3686 74.5338 75.5147 74.5338 75.6622C74.5338 77.4644 73.4933 78.9253 72.2119 78.9253H70.197C69.5563 78.9253 68.9766 78.5615 68.5558 77.9673C68.134 77.3774 67.8741 76.5626 67.8741 75.6608C67.8741 75.4641 67.8871 75.2731 67.9121 75.0863L67.9131 75.0877C66.9426 74.6958 66.009 74.1395 65.1325 73.4315C65.0485 73.6099 64.9506 73.7799 64.8366 73.9386C63.9311 75.2113 62.4588 75.2113 61.5533 73.9386L60.129 71.9341C59.2214 70.6586 59.2214 68.5923 60.129 67.3196C60.2399 67.1609 60.3608 67.0233 60.4878 66.9038H60.4888C59.9511 65.589 59.5363 64.1815 59.2544 62.7164C59.0775 62.7782 58.8936 62.8133 58.7017 62.8133C57.4193 62.8133 56.3798 61.351 56.3798 59.5502V56.7183C56.3798 54.9161 57.4203 53.4552 58.7017 53.4552C58.8876 53.4552 59.0705 53.4903 59.2424 53.5493H59.2434C59.5183 52.0912 59.9261 50.6907 60.4558 49.3787C60.2789 49.2354 60.11 49.0627 59.961 48.8533C59.0535 47.5779 59.0535 45.5115 59.961 44.2361L61.3853 42.2344C62.2929 40.9589 63.7632 40.9589 64.6707 42.2344C64.8066 42.4254 64.9226 42.6389 65.0185 42.8651L65.0175 42.8665C65.9391 42.0995 66.9286 41.5039 67.9591 41.0965C67.9051 40.8184 67.8751 40.5305 67.8751 40.2284C67.8751 38.4262 68.9156 36.9653 70.197 36.9653H72.2119C73.4943 36.9653 74.5338 38.4276 74.5338 40.2284C74.5338 40.4813 74.5108 40.7243 74.4738 40.9617H74.4748C75.5913 41.3564 76.6637 41.9661 77.6622 42.771C77.7452 42.5898 77.8441 42.4226 77.9561 42.2639C78.8636 40.9912 80.3339 40.9884 81.2415 42.2639L82.6657 44.2656C83.1185 44.9019 83.3474 45.7377 83.3474 46.5749C83.3454 47.4107 83.1205 48.2437 82.6657 48.8843C82.5548 49.0402 82.4319 49.1806 82.3049 49.2972C82.8517 50.6317 83.2644 52.0477 83.5423 53.5015C83.6632 53.4748 83.7882 53.4552 83.9141 53.4552C85.1965 53.4552 86.236 54.9175 86.236 56.7183V59.5502L86.237 59.5488ZM137.82 138.109C134.998 138.109 132.503 135.886 131.256 132.526C129.758 132.846 128.241 133.009 126.713 133.009C122.122 133.009 117.522 131.515 113.406 128.691C111.829 127.61 110.319 126.329 108.899 124.872H48V133.112C48 137.579 50.5777 141.203 53.7571 141.203H69.5743C70.6877 141.203 71.5893 142.47 71.5893 144.032C71.5893 146.268 72.2339 148.291 73.2764 149.752H73.2754C74.3529 151.273 75.8182 152.126 77.3454 152.123H137.312C140.491 152.123 143.069 148.501 143.069 144.032C143.069 143.976 143.071 143.916 143.073 143.859L139.797 137.735C139.159 137.983 138.496 138.11 137.82 138.11V138.109ZM166.658 133.112V124.872H157.245L164.819 139.034C165.951 137.559 166.657 135.449 166.657 133.112H166.658ZM114.223 171.587H113.425V158.866H91.6383V171.587H90.8397C87.6603 171.587 85.0825 175.21 85.0825 179.678V187.648H119.98V179.678C119.98 175.21 117.402 171.587 114.223 171.587Z" fill="#FEFFF8"/>
<path d="M180.348 168.298L170.55 149.98C168.856 146.812 165.828 145.888 163.394 147.593L148.924 120.54L150.604 118.766C152.152 117.131 151.926 113.773 150.187 112.574L147.643 110.822C153.697 98.5013 153.791 81.6336 147.038 69.0066C138.592 53.2163 122.638 50.0375 111.402 61.9072C100.167 73.777 97.9052 96.199 106.351 111.989C113.105 124.616 124.66 129.177 134.764 124.428L135.255 128.349C135.59 131.03 137.822 132.268 139.371 130.633L141.051 128.858L155.52 155.912C153.679 158.727 153.47 163.069 155.163 166.236L164.961 184.555C166.655 187.723 169.68 188.644 172.116 186.942L172.176 187.054L173.022 186.161L174.195 184.922L165.151 168.01C164.355 166.523 164.568 164.407 165.626 163.289C166.687 162.17 168.19 162.47 168.985 163.958L178.029 180.869L179.205 179.627L180.05 178.734L179.99 178.622C181.832 175.809 182.041 171.465 180.348 168.297V168.298ZM139.105 113.697C130.002 123.314 117.03 120.729 110.187 107.937C103.344 95.1441 105.184 76.9123 114.286 67.2957C123.388 57.6791 136.361 60.2637 143.204 73.0564C150.046 85.8491 148.207 104.081 139.104 113.697H139.105Z" fill="#FAFDFF"/>
<path d="M117.631 90.5255C117.358 89.9973 117.042 89.5169 116.689 89.0927C116.325 88.653 115.935 88.2569 115.524 87.9085C115.258 87.688 114.983 87.4857 114.703 87.2989C114.418 87.1106 114.143 86.8915 113.882 86.6443C113.631 86.4055 113.423 86.1245 113.261 85.8014C113.1 85.4798 113.018 85.0808 113.018 84.6018C113.018 84.2282 113.11 83.9065 113.295 83.6354C113.479 83.3671 113.757 83.2294 114.126 83.2294C114.363 83.2294 114.606 83.3235 114.859 83.5104C115.11 83.6986 115.251 83.9767 115.279 84.3532C115.324 84.9544 115.465 85.3913 115.702 85.6624C115.939 85.9307 116.228 86.0683 116.567 86.0683C116.937 86.0683 117.251 85.8759 117.509 85.4896C117.769 85.1061 117.897 84.6454 117.897 84.1017C117.897 83.4163 117.787 82.7926 117.565 82.2321H117.564C117.344 81.6758 117.051 81.1842 116.699 80.7838C116.343 80.3779 115.94 80.066 115.489 79.8483C115.038 79.6306 114.59 79.521 114.148 79.521C113.689 79.521 113.235 79.6249 112.784 79.8328C112.338 80.0365 111.923 80.3596 111.563 80.7838C111.201 81.2095 110.907 81.7404 110.677 82.3711C110.446 83.0061 110.332 83.7492 110.332 84.6018C110.332 85.2059 110.402 85.7719 110.543 86.3015H110.544C110.685 86.8339 110.875 87.3368 111.109 87.7989C111.343 88.2625 111.611 88.6895 111.909 89.0744C112.191 89.4467 112.495 89.7866 112.817 90.09C113.136 90.3878 113.469 90.6533 113.815 90.8837C114.158 91.1126 114.488 91.3781 114.802 91.6773C115.106 91.9695 115.352 92.3067 115.545 92.6915C115.736 93.075 115.834 93.5695 115.834 94.1707C115.834 94.9194 115.655 95.4771 115.301 95.8395C114.946 96.2019 114.554 96.3845 114.124 96.3845C113.622 96.3845 113.186 96.2117 112.816 95.869C112.448 95.5262 112.225 95.0543 112.151 94.4502C112.077 93.9305 111.918 93.5568 111.674 93.3293L111.675 93.3321C111.436 93.1059 111.154 92.9865 110.866 92.9893C110.525 92.9893 110.223 93.1495 109.956 93.4712C109.691 93.7928 109.557 94.255 109.557 94.859C109.557 95.4827 109.68 96.105 109.924 96.7287C110.168 97.3524 110.497 97.9128 110.912 98.4129C111.325 98.9102 111.809 99.3161 112.363 99.628C112.919 99.9398 113.505 100.094 114.126 100.094C114.659 100.094 115.184 99.9693 115.702 99.7207L115.701 99.7221C116.214 99.4763 116.688 99.0942 117.099 98.5983C117.512 98.1011 117.849 97.4774 118.108 96.7287C118.366 95.98 118.496 95.1076 118.496 94.1103C118.496 93.4248 118.418 92.7857 118.263 92.1929C118.107 91.6001 117.894 91.0396 117.631 90.5255ZM127.346 83.6663C127.716 83.6663 128.031 83.4865 128.289 83.1213C128.547 82.7588 128.677 82.3178 128.677 81.7966C128.677 81.2769 128.547 80.84 128.289 80.4874C128.031 80.1349 127.717 79.9579 127.346 79.9579H121.058C120.677 79.9579 120.366 80.1349 120.124 80.4874C119.882 80.84 119.761 81.2769 119.761 81.7966V97.9142C119.761 98.434 119.882 98.8709 120.124 99.2234C120.366 99.576 120.677 99.753 121.058 99.753H127.325C127.679 99.753 127.982 99.5774 128.235 99.2276C128.486 98.8779 128.611 98.4438 128.611 97.9283C128.611 97.3931 128.486 96.9436 128.235 96.584C127.982 96.2244 127.679 96.0432 127.325 96.0432H122.378L122.377 90.805H127.015C127.382 90.805 127.697 90.6098 127.957 90.2193C128.215 89.8259 128.345 89.3947 128.345 88.9199C128.345 88.4044 128.215 87.9717 127.957 87.6205C127.697 87.2708 127.383 87.0952 127.015 87.0952H122.377V83.6663H127.346ZM139.756 80.3484C138.848 79.7977 137.861 79.521 136.796 79.521C135.759 79.521 134.8 79.8019 133.913 80.3638C133.025 80.9243 132.252 81.6828 131.593 82.6394C130.937 83.5961 130.422 84.7016 130.052 85.9602C129.684 87.216 129.498 88.5434 129.498 89.9327C129.498 91.3683 129.695 92.7084 130.087 93.9544C130.479 95.2032 131.008 96.289 131.672 97.2147C132.338 98.1376 133.122 98.8666 134.024 99.3962C134.927 99.9258 135.887 100.19 136.907 100.19C137.928 100.19 138.886 99.9258 139.78 99.3962C140.674 98.8666 141.453 98.1334 142.12 97.1964C142.786 96.2623 143.31 95.1666 143.696 93.9094C144.079 92.6508 144.272 91.3065 144.272 89.8737C144.272 88.4606 144.084 87.1233 143.707 85.8675C143.331 84.6089 142.805 83.5132 142.131 82.5776C141.458 81.6435 140.667 80.9004 139.757 80.3498L139.756 80.3484ZM141.221 92.4598C140.977 93.2689 140.641 93.9768 140.211 94.5781C139.783 95.1821 139.284 95.6541 138.715 95.9968C138.144 96.3396 137.527 96.5123 136.863 96.5123C136.197 96.5123 135.583 96.3396 135.022 95.9968C134.458 95.6541 133.967 95.1821 133.546 94.5781C133.124 93.9768 132.796 93.2787 132.559 92.4907C132.322 91.7012 132.203 90.8486 132.203 89.9327C132.203 89.0393 132.322 88.1824 132.559 87.3621C132.796 86.5403 133.121 85.8225 133.535 85.2101C133.949 84.5962 134.44 84.1088 135.011 83.7435C135.579 83.3811 136.197 83.1985 136.863 83.1985C137.498 83.1985 138.105 83.3755 138.681 83.7281C139.259 84.0807 139.76 84.5597 140.19 85.1609C140.62 85.7649 140.959 86.4701 141.21 87.282C141.46 88.0911 141.586 88.9536 141.586 89.8695C141.586 90.7825 141.465 91.645 141.22 92.457L141.221 92.4598Z" fill="#FEFFF8"/>
</svg>
