<svg width="202" height="204" viewBox="0 0 202 204" fill="none" xmlns="http://www.w3.org/2000/svg">
<rect x="0.5" y="0.5" width="201" height="203" rx="19.5" stroke="#ADEFD3"/>
<rect x="32" y="24" width="137" height="156" rx="20" fill="#041306"/>
<path d="M154.105 153.667H46.8952C41.7805 153.667 37.6191 148.928 37.6191 143.104V133.862C37.6191 133.019 38.2184 132.339 38.957 132.339H162.043C162.398 132.339 162.738 132.499 162.989 132.785C163.24 133.07 163.381 133.457 163.381 133.862V143.104C163.381 148.928 159.219 153.667 154.105 153.667ZM40.2949 135.385V143.104C40.2949 147.249 43.255 150.62 46.8952 150.62H154.105C157.745 150.62 160.705 147.249 160.705 143.104V135.385H40.2949Z" fill="#FDFDFF"/>
<path d="M162.043 135.385H38.957C38.2184 135.385 37.6191 134.703 37.6191 133.862V65.7644C37.6191 58.7915 42.6 53.1199 48.7236 53.1199H95.2822C96.0222 53.1199 96.6201 53.8007 96.6201 54.6433C96.6201 55.4844 96.0222 56.1667 95.2822 56.1667H48.7236C44.0759 56.1667 40.2949 60.472 40.2949 65.7644V132.339H160.705V65.7644C160.705 60.472 156.924 56.1667 152.276 56.1667H121.771C121.032 56.1667 120.433 55.4844 120.433 54.6433C120.433 53.8007 121.032 53.1199 121.771 53.1199H152.276C158.4 53.1199 163.381 58.7915 163.381 65.7644V133.862C163.381 134.265 163.24 134.652 162.989 134.938C162.738 135.224 162.398 135.385 162.043 135.385Z" fill="#FDFDFF"/>
<path d="M79.4979 89.2222C79.0742 89.2222 78.6757 88.9952 78.4234 88.608C78.1712 88.2224 78.0945 87.7225 78.2158 87.2607L83.892 65.7168C83.9562 65.4756 84.0704 65.255 84.2279 65.0773L115.447 29.5288C117.469 27.2262 120.156 25.9598 123.014 25.9598C125.874 25.9598 128.561 27.2278 130.583 29.5288C132.605 31.8314 133.719 34.891 133.719 38.1473C133.719 41.4037 132.605 44.4633 130.583 46.7659L99.3642 82.3128C99.2067 82.4905 99.0144 82.6222 98.8026 82.6952L79.8826 89.1587H79.8812C79.7571 89.2015 79.6275 89.2222 79.4979 89.2222ZM86.3588 66.9594L81.4936 85.4263L97.7113 79.8864L128.69 44.6093C130.207 42.8827 131.042 40.588 131.042 38.1458C131.042 35.7051 130.207 33.4088 128.69 31.6823C127.174 29.9557 125.159 29.0051 123.014 29.0051C120.871 29.0051 118.854 29.9557 117.338 31.6823L86.3574 66.9594H86.3588Z" fill="#FDFDFF"/>
<path d="M89.9028 75.1605C88.3614 75.1605 86.8201 74.4924 85.6452 73.1562C83.2983 70.4839 83.2983 66.1341 85.6452 63.4618H85.6466C86.172 62.8873 87.004 62.8968 87.5197 63.4824C88.0339 64.0695 88.0423 65.0169 87.5378 65.6152C86.2333 67.1006 86.2333 69.5158 87.5378 71.0012C88.8422 72.4865 90.9633 72.4865 92.2678 71.0012H92.2692C92.5186 70.714 92.8601 70.5521 93.2155 70.5505C93.5722 70.5505 93.9137 70.7108 94.1645 70.998C94.4168 71.2837 94.5575 71.6725 94.5561 72.0771C94.5561 72.4834 94.4126 72.8706 94.1603 73.1562C92.9869 74.4924 91.4455 75.1605 89.9028 75.1605Z" fill="#FDFDFF"/>
<path d="M94.0996 72.4693L110.431 53.8725C110.432 53.8717 110.433 53.8708 110.434 53.87C110.782 53.4597 110.776 52.7873 110.424 52.3871L110.423 52.3861C110.103 52.0208 109.615 52.0174 109.29 52.3773L109.24 52.433L92.6435 71.3312C91.5918 72.5287 91.0048 74.131 91.0048 75.8493C91.0048 77.5675 91.5918 79.1698 92.6435 80.3673C93.6933 81.5628 95.0721 82.2047 96.5254 82.2047H96.5268C97.9682 82.209 99.3657 81.5591 100.404 80.3713C100.749 79.9612 100.743 79.2902 100.391 78.8891C100.071 78.5266 99.5865 78.5228 99.2628 78.8759C98.5446 79.6917 97.5723 80.1578 96.5254 80.1578M94.0996 72.4693L96.5254 80.1578M94.0996 72.4693L93.7854 72.8255C93.0712 73.6351 92.6778 74.7244 92.6806 75.8493L94.0996 72.4693ZM96.5254 80.1578V79.6578L96.5271 80.1578C96.5265 80.1578 96.5259 80.1578 96.5254 80.1578ZM93.7841 78.8716C93.7843 78.8718 93.7845 78.872 93.7847 78.8722L94.1604 78.5422L93.7836 78.8709C93.7838 78.8711 93.7839 78.8714 93.7841 78.8716ZM93.7841 78.8716C93.0681 78.0559 92.6809 76.9803 92.6806 75.8506L93.7841 78.8716ZM125.853 51.0187L125.851 51.0187C125.652 51.0196 125.447 50.9309 125.283 50.7439L125.282 50.7428L112.037 35.6608L111.997 35.6149C111.85 35.4306 111.76 35.1792 111.759 34.9083L111.759 34.9066C111.757 34.6144 111.859 34.344 112.025 34.1556L112.027 34.1535C112.19 33.9668 112.399 33.8765 112.602 33.8771C112.803 33.8792 113.012 33.9723 113.174 34.1621L113.174 34.1621L113.178 34.1672L126.424 49.2493C126.678 49.539 126.767 50.0002 126.619 50.4085C126.472 50.8102 126.152 51.0187 125.853 51.0187ZM125.853 51.5187C125.498 51.5203 125.158 51.36 124.907 51.0728L125.853 51.5187ZM86.6211 168.901V169.401H87.1211H113.879H114.379V168.901V153.667V153.167H113.879H87.1211H86.6211V153.667V168.901ZM129.934 119.651H108.527C104.436 119.651 101 115.837 101 111.011C101 106.184 104.436 102.37 108.527 102.37H137.961C141.246 102.37 143.812 99.3488 143.812 95.7761V95.3159C143.812 91.7433 141.246 88.7222 137.961 88.7222H79.4979C79.0934 88.7222 78.66 88.327 78.66 87.6987C78.66 87.0705 79.0934 86.6753 79.4979 86.6753H137.961C142.052 86.6753 145.488 90.489 145.488 95.3159V95.7761C145.488 100.603 142.052 104.417 137.961 104.417H108.527C105.242 104.417 102.676 107.438 102.676 111.011C102.676 114.583 105.242 117.604 108.527 117.604H129.934C130.337 117.604 130.771 118 130.771 118.628C130.771 119.256 130.337 119.651 129.934 119.651ZM79.0938 121.175H38.957C38.5536 121.175 38.1191 120.779 38.1191 120.151C38.1191 119.522 38.5533 119.128 38.957 119.128H79.0938C79.4975 119.128 79.9316 119.522 79.9316 120.151C79.9316 120.779 79.4972 121.175 79.0938 121.175ZM79.0938 112.034H38.957C38.5536 112.034 38.1191 111.638 38.1191 111.011C38.1191 110.381 38.5533 109.987 38.957 109.987H79.0938C79.4975 109.987 79.9316 110.381 79.9316 111.011C79.9316 111.638 79.4972 112.034 79.0938 112.034ZM79.0938 102.893H38.957C38.5536 102.893 38.1191 102.498 38.1191 101.87C38.1191 101.241 38.5533 100.846 38.957 100.846H79.0938C79.4975 100.846 79.9316 101.241 79.9316 101.87C79.9316 102.498 79.4972 102.893 79.0938 102.893ZM115.217 171.448H85.7832C85.3798 171.448 84.9453 171.052 84.9453 170.425V152.143C84.9453 151.514 85.3794 151.12 85.7832 151.12H115.217C115.417 151.12 115.624 151.21 115.787 151.396C115.953 151.584 116.055 151.852 116.055 152.143V170.425C116.055 170.714 115.953 170.982 115.787 171.171C115.623 171.358 115.416 171.448 115.217 171.448Z" fill="#FDFDFF" stroke="#CFF6DA"/>
<path d="M108.527 171.948H92.4727C91.734 171.948 91.1348 171.266 91.1348 170.425V152.143C91.1348 151.301 91.734 150.62 92.4727 150.62H108.527C108.883 150.62 109.223 150.78 109.474 151.066C109.724 151.351 109.865 151.739 109.865 152.143V170.425C109.865 170.828 109.724 171.215 109.474 171.5C109.223 171.786 108.883 171.948 108.527 171.948ZM93.8105 168.901H107.189V153.667H93.8105V168.901Z" fill="#FDFDFF"/>
<path d="M119.23 178.042H81.7695C79.5564 178.042 77.7559 175.991 77.7559 173.471C77.7559 170.951 79.5564 168.901 81.7695 168.901H119.23C121.444 168.901 123.244 170.951 123.244 173.471C123.244 175.991 121.444 178.042 119.23 178.042ZM81.7695 171.948C81.0323 171.948 80.4316 172.632 80.4316 173.471C80.4316 174.311 81.0323 174.995 81.7695 174.995H119.23C119.968 174.995 120.568 174.311 120.568 173.471C120.568 172.632 119.968 171.948 119.23 171.948H81.7695Z" fill="#FDFDFF"/>
</svg>
